<svg xmlns="http://www.w3.org/2000/svg" viewBox="0 0 440 522"><defs><style>.cls-1{fill:#fffffe;}.cls-2{fill:#c8c7c6;}.cls-3{fill:#373737;}.cls-4{fill:#3a3a3a;}.cls-5{fill:#c9c9c8;}.cls-6{fill:#383838;}.cls-7{fill:#414141;}.cls-8{fill:#fff;}.cls-9{fill:#fbfbfb;}.cls-10{fill:#3a3939;}.cls-11{fill:#393939;}.cls-12{fill:#3b3b3b;}.cls-13{fill:#3c3c3b;}.cls-14{fill:#3d3d3c;}.cls-15{fill:#424242;}.cls-16{fill:#3eade3;}.cls-17{fill:#3c3c3c;}.cls-18{fill:#545352;}.cls-19{fill:#333;}.cls-20{fill:#353535;}.cls-21{fill:#4b4b4b;}.cls-22{fill:#676766;}.cls-23{fill:#3d3d3d;}.cls-24{fill:#3f3e3e;}.cls-25{fill:#454545;}.cls-26{fill:#424241;}.cls-27{fill:#404040;}.cls-28{fill:#434342;}.cls-29{fill:#444;}.cls-30{fill:#3e3d3d;}.cls-31{fill:#f7f8f8;}.cls-32{fill:#f5f5f4;}.cls-33{fill:#f0efef;}.cls-34{fill:#fafafa;}.cls-35{fill:#f5f4f4;}.cls-36{fill:#fbfafa;}.cls-37{fill:#f2f1f0;}.cls-38{fill:#f6f5f4;}.cls-39{fill:#fcfcfb;}.cls-40{fill:#f7f7f6;}.cls-41{fill:#f6f6f5;}.cls-42{fill:#f3f2f2;}.cls-43{fill:#f8f8f7;}.cls-44{fill:#f7f6f6;}.cls-45{fill:#acacac;}.cls-46{fill:#adadac;}.cls-47{fill:#aeaeae;}.cls-48{fill:#adadad;}.cls-49{fill:#363636;}.cls-50{fill:#f9f9f9;}.cls-51{fill:#f8f7f7;}.cls-52{fill:#b8b7b7;}</style></defs><g id="Layer_2" data-name="Layer 2"><g id="Layer_1-2" data-name="Layer 1"><g id="v1hOim.tif"><path class="cls-1" d="M440,261.25q0,129.22.05,258.46c0,1.87-.42,2.29-2.29,2.29Q220,521.93,2.29,522C.42,522,0,521.58,0,519.71Q.08,261,0,2.29C0,.42.42,0,2.29,0Q220,.08,437.71,0c1.87,0,2.29.42,2.29,2.29Q439.92,131.77,440,261.25Z"/><path class="cls-2" d="M220.31,116.41H14.84c-4.79,0-5.81-1-5.81-5.86Q9,76.22,9,41.88c0-4.17,1.19-5.37,5.3-5.37H426c4.28,0,5.43,1.17,5.43,5.49q0,34.46,0,68.92c0,4.32-1.15,5.49-5.43,5.49Z"/><path class="cls-2" d="M220.24,216.3H14.77c-4.66,0-5.73-1.07-5.73-5.69q0-34.47,0-68.92c0-4.1,1.21-5.3,5.37-5.3h411.7c4.14,0,5.35,1.2,5.35,5.32q0,34.71,0,69.42c0,3.93-1.26,5.17-5.25,5.17Z"/><path class="cls-2" d="M220.31,316.19H14.84c-4.79,0-5.81-1-5.81-5.87Q9,276,9,241.65c0-4.16,1.19-5.37,5.3-5.37H426c4.28,0,5.43,1.17,5.43,5.49q0,34.34,0,68.67c0,4.67-1.06,5.75-5.68,5.75Z"/><path class="cls-2" d="M220.31,516H14.84c-4.79,0-5.81-1-5.81-5.87q0-34.33,0-68.67c0-4.16,1.19-5.37,5.3-5.37H426c4.28,0,5.43,1.18,5.43,5.5q0,34.45,0,68.92c0,4.32-1.16,5.49-5.43,5.49Z"/><path class="cls-2" d="M220.37,336.16H425.6c4.83,0,5.86,1,5.86,5.81q0,34.33,0,68.67c0,4.28-1.17,5.43-5.49,5.43H14.53c-4.32,0-5.49-1.15-5.49-5.43Q9,376,9,341.47c0-4.11,1.2-5.3,5.36-5.3Z"/><path class="cls-3" d="M69.61,22.07a4.4,4.4,0,0,1-4.47-4.34A4.71,4.71,0,0,1,69.88,13a4.52,4.52,0,1,1-.27,9Z"/><path class="cls-3" d="M79.12,17.29c0,1.14,0,2.28,0,3.42,0,.67.08,1.37-1,1.32-.89,0-.82-.64-.82-1.22,0-2.08,0-4.16,0-6.24,0-.53-.21-1.24.62-1.4a1.47,1.47,0,0,1,1.54.59c1.05,1.37,2.11,2.73,3.68,4.76V14.29c0-.64.14-1.14,1-1.15s.87.57.88,1.16c0,2.08,0,4.16,0,6.24,0,.51.33,1.23-.52,1.44a1.52,1.52,0,0,1-1.68-.77c-1-1.38-2.12-2.74-3.18-4.1Z"/><path class="cls-3" d="M31.68,17.31c0,1.15,0,2.29,0,3.43,0,.71,0,1.35-1,1.28s-.78-.68-.79-1.24c0-2.08,0-4.16,0-6.24,0-.54-.2-1.25.65-1.38a1.51,1.51,0,0,1,1.53.63c1,1.36,2.1,2.72,3.65,4.73,0-1.9,0-3.08,0-4.27,0-.65.19-1.12,1-1.12s.83.42.84,1q0,3.5,0,7c0,.41,0,.84-.56.92a1.48,1.48,0,0,1-1.52-.62c-1.09-1.44-2.2-2.87-3.31-4.31Z"/><path class="cls-4" d="M19.15,16.18c0-.5,0-1,0-1.5,0-.74-.1-1.58,1.06-1.54s.82,1,.86,1.65c.08,1.24,0,2.5.11,3.73a1.8,1.8,0,0,0,2,1.76,1.78,1.78,0,0,0,1.72-1.8c.09-1.41,0-2.82.06-4.23,0-.61,0-1.16.91-1.12a.94.94,0,0,1,1,1.09c0,1.32.08,2.66-.05,4C26.6,21,25.44,22.06,23,22.07s-3.55-1.14-3.81-3.9c-.06-.66,0-1.33,0-2Z"/><path class="cls-3" d="M90.77,22a3.5,3.5,0,0,1-1.2-.24c-.66-.33-1.92-.35-1.68-1.39.32-1.38,1.3-.74,2.14-.36s1.82.72,2.2-.22c.5-1.24-.81-1.08-1.5-1.36-1.2-.49-2.66-.66-2.81-2.39a2.49,2.49,0,0,1,1.23-2.53,4.21,4.21,0,0,1,4.06,0c.42.18,1,.43.69,1.07s-.55,1.07-1.32.68a3.86,3.86,0,0,0-1.17-.4c-.55-.08-1.25-.2-1.4.56s.45.8.92,1,.79.26,1.18.39c1.47.45,2.6,1.18,2.3,3C94.17,21.34,93,22.12,90.77,22Z"/><path class="cls-5" d="M107.06,14.54A3.06,3.06,0,0,0,104,17.75c.32,1.93,1.59,2.8,3.53,2.76.71,0,1.88-1,2,.31.06.85-1.3,1.11-2.22,1.17a4.84,4.84,0,0,1-4.67-3.73,4.12,4.12,0,0,1,2.3-4.52c2-1.19,3.76-.77,5.36.88.79.8.9,2,2.1,2.67.51.27-.65,1.07-1,1.67-.46.8-1,.33-1.38-.12s-1.38-.76-1-1.69C109.5,15.53,108.79,14.52,107.06,14.54Z"/><path class="cls-3" d="M45.32,22.08c-2.27,0-3.75-.81-4.53-2.73a4.31,4.31,0,0,1,.87-4.84,4.45,4.45,0,0,1,5-1.18c.65.24,1.86.31,1.43,1.49s-1.17.68-2,.34A2.37,2.37,0,0,0,43,16a2.67,2.67,0,0,0-.1,3,2.36,2.36,0,0,0,3.21,1c.76-.33,1.65-1,2,.15s-.9,1.31-1.59,1.71A3.3,3.3,0,0,1,45.32,22.08Z"/><path class="cls-6" d="M10.05,17.71c0-4.77.9-5.48,5.7-4.6.71.13,1.05.37,1,1.08s-.43.82-1,.81H13c-.49,0-1,0-1,.73s.17,1.13,1,1.12,1.49,0,2.23,0c.56,0,.94.18,1,.83s-.33.86-.91.86a12.33,12.33,0,0,1-1.49,0c-1.44-.21-1.89.4-1.77,1.79.06.7.44,1.78-1,1.69s-.84-1.15-.92-1.84A22.76,22.76,0,0,1,10.05,17.71Z"/><path class="cls-4" d="M54.31,13.13a6.41,6.41,0,0,1,1.24,0c.8.16,2.05-.57,2.28.78.27,1.61-1.11,1-1.87,1.09-1,.11-.85.83-.85,1.46,0,1.49,0,3,0,4.47,0,.67-.13,1.11-.94,1.09s-.91-.51-.91-1.14c0-1.16,0-2.32,0-3.48,0-1.36.23-2.78-1.92-2.4-.63.11-.86-.31-.85-.91s.21-.95.84-1h3Z"/><path class="cls-7" d="M62.37,17.56c0,1.15,0,2.31,0,3.46,0,.73-.32,1-1,1s-.94-.42-.93-1.07c0-2.23,0-4.45,0-6.67,0-.57,0-1.18.84-1.18s1.14.44,1.12,1.23C62.35,15.42,62.37,16.49,62.37,17.56Z"/><path class="cls-8" d="M220.19,37.5H425.62c4.38,0,4.85.47,4.85,4.88V111c0,3.67-.7,4.37-4.35,4.37q-205.81,0-411.62,0c-3.84,0-4.47-.62-4.47-4.5V42c0-3.87.63-4.5,4.47-4.5Z"/><path class="cls-8" d="M220.51,137.39H425.7c4.23,0,4.77.53,4.77,4.7v68.66c0,3.9-.63,4.55-4.42,4.55H14.42c-3.69,0-4.39-.69-4.39-4.33V141.81c0-3.79.65-4.42,4.55-4.42Z"/><path class="cls-8" d="M220.24,237.28H425.67c4.26,0,4.8.52,4.8,4.67q0,34.46,0,68.91c0,3.64-.7,4.33-4.39,4.33H14.45c-3.72,0-4.42-.68-4.42-4.3V241.48c0-3.48.74-4.2,4.27-4.2Z"/><path class="cls-8" d="M220,515H14.78c-4.21,0-4.75-.53-4.75-4.72V441.33c0-3.53.73-4.28,4.19-4.28H426.34c3.32,0,4.12.8,4.12,4.09q0,34.83,0,69.66c0,3.42-.76,4.16-4.3,4.16Z"/><path class="cls-8" d="M220,415.07H14.78c-4.21,0-4.75-.53-4.75-4.71V341.45c0-3.54.73-4.28,4.19-4.29H426.34c3.32,0,4.12.79,4.12,4.09q0,34.83,0,69.65c0,3.43-.76,4.16-4.3,4.16Z"/><path class="cls-9" d="M72.44,17.5c-.12,1.7-1,2.78-2.63,2.78a2.49,2.49,0,0,1-2.58-2.76A2.37,2.37,0,0,1,69.69,15C71.41,14.91,72.2,16,72.44,17.5Z"/><path class="cls-2" d="M220,105.43H25.76c-4.66,0-5.74-1.07-5.74-5.68v-17c0-4.11,1.21-5.31,5.36-5.31H414.3c4.92,0,6.18,1.26,6.18,6.18v16c0,4.4-1.4,5.81-5.8,5.81Z"/><path class="cls-10" d="M163.71,58a4.17,4.17,0,0,1,0-.5c.16-1-.17-3,.36-2.9,1.65.38,3.17-1.31,4.66-.13a1.69,1.69,0,0,0,2.3.06,2.6,2.6,0,0,1,4.14,1.89,35.15,35.15,0,0,1,.13,4.71c0,.45-.12.79-.67.83s-.83-.33-.82-.9c0-1,0-2,0-3,0-1.23-.14-2.49-1.68-2.54-1.72-.06-1.87,1.3-1.9,2.61,0,.83,0,1.66,0,2.49,0,.54.17,1.26-.7,1.31s-.72-.71-.74-1.22c0-.91,0-1.83,0-2.74,0-1.24-.27-2.45-1.81-2.46s-1.77,1.28-1.86,2.47c-.08,1,0,2,0,3,0,.54-.08,1-.79,1-.55-.06-.54-.53-.54-.94C163.71,60,163.71,59,163.71,58Z"/><path class="cls-3" d="M79.93,60.23c-1.81,1.29-3.46,1.64-5.1.19a3.35,3.35,0,0,1-1-3.84c.65-2,2.17-2.59,4.08-2.36.87.11,1.56.89,2.64.21.68-.43.85.42.85,1,0,1.66,0,3.33,0,5-.05,1.48-.48,2.86-2,3.42a5.72,5.72,0,0,1-4.81-.31c-.27-.14-.71-.24-.42-.66.16-.24.54-.53.75-.48a10.13,10.13,0,0,0,2.4.57C79.08,63,79.86,62.16,79.93,60.23Z"/><path class="cls-11" d="M41.67,62.07c-2.74,0-4.35-1.1-5.2-3.26a5,5,0,0,1,1.32-5.9,4.92,4.92,0,0,1,6-.85c.54.27,1.67.51,1.21,1.47s-1.24.14-1.85-.14c-1.9-.87-3.57-.62-4.77,1.18a3.75,3.75,0,0,0,.6,5.17c1.36,1.3,3,1.2,4.56.24.59-.36,1.16-.86,1.62,0s-.44,1-.83,1.23A4,4,0,0,1,41.67,62.07Z"/><path class="cls-4" d="M135.37,59.3c-.21.76.17,2.62-.34,2.48-1.93-.55-4,1.3-5.72-.43a2.24,2.24,0,0,1-.57-2.49c.47-1.39,1.69-1.37,2.79-1.68.76-.21,2.2.86,2.17-.43s-1.61-1.27-2.79-1.21c-.51,0-1.36,1-1.5-.28-.11-1,.88-.79,1.47-.91C134.19,53.68,135.37,54.94,135.37,59.3Z"/><path class="cls-12" d="M87.41,62.05a3.66,3.66,0,0,1-4-3.4c-.21-2.35.9-4,3-4.43a3.22,3.22,0,0,1,3.9,2.28c.46,1.2.45,2.34-1.44,2.11a6.63,6.63,0,0,0-2,0c-.63.11-1.73-.56-1.82.53s1,1.45,1.87,1.69a3.15,3.15,0,0,0,.74,0c.8,0,1.28-1.21,2.21-.57A.45.45,0,0,1,90,61,3.32,3.32,0,0,1,87.41,62.05Z"/><path class="cls-13" d="M62.52,59.14c-.28.79.33,2.77-.43,2.62-1.83-.35-3.68,1.17-5.39-.23a2.37,2.37,0,0,1,.39-3.92c.58-.27,1.3-.22,1.92-.44s1.92.92,1.88-.5c0-1.21-1.34-1.12-2.36-1.19-.65,0-1.63,1-1.88-.11s1.09-.94,1.77-1.06C61.55,53.79,62.52,54.93,62.52,59.14Z"/><path class="cls-11" d="M181.67,62.1c-2.83-.11-4.16-1.08-4.46-3.23-.34-2.41.64-4,2.75-4.58a3.22,3.22,0,0,1,4.12,2.19c.5,1.24.57,2.31-1.34,2.13a10.48,10.48,0,0,0-2.24,0c-.57.07-1.48-.47-1.64.51s.63,1.3,1.34,1.57a3.66,3.66,0,0,0,1.2.12c.8,0,1.3-1.14,2.22-.6.3.18.3.52,0,.83A3.21,3.21,0,0,1,181.67,62.1Z"/><path class="cls-14" d="M48.72,55c3.74-1.64,5.38-.63,5.28,3.1,0,1.28.72,3.67-.52,3.67-1.77,0-.56-2.23-.82-3.46s0-2.67-1.78-2.74-2,1.34-2.15,2.72a.68.68,0,0,1,0,.25c-.4,1.12.92,3.21-.79,3.23-1.15,0-.46-2.23-.54-3.45-.12-1.82-.06-3.64,0-5.47,0-.57-.34-1.53.72-1.48.77,0,.6.85.62,1.4S48.72,54,48.72,55Z"/><path class="cls-15" d="M153.25,57.6a23,23,0,0,1,0-2.49c.17-1.54-.25-2.38-2-2.12-.48.08-1.29.33-1.39-.52-.12-1,.76-.86,1.38-.87,1.83,0,3.66,0,5.49,0,.6,0,1.24,0,1.17.87s-.73.6-1.15.53c-2-.34-2.14.75-2.06,2.3.11,1.82,0,3.65,0,5.48,0,.6,0,1.23-.86,1.17s-.61-.65-.62-1.11C153.24,59.76,153.25,58.68,153.25,57.6Z"/><path class="cls-16" d="M22,56.47c-.08-2.5,1.42-4.93,3.17-5.29.69-.15,1.47-.19,1.69.56.28.94-.59.73-1.1.81a1.15,1.15,0,0,0-1.11.83c-.15.74.56.61,1,.8a1.31,1.31,0,0,1,.69.59.52.52,0,0,1-.53.67c-2.48-.22-2.19,1.83-2.81,3.24-.49,1.1,0,3.48-1.6,3.08s.21-2.11.17-3.28A7.22,7.22,0,0,1,22,56.47Z"/><path class="cls-11" d="M121.27,62c-1.31-.13-1.74-.92-1.94-2.15-.24-1.58.86-3.38-.82-4.83-.2-.18,1-1.77,1.12-2.89,0-.28,1.05-.11,1,.13-.6,2,2.45,2.82,2.09,2.87-3.09.5-1.5,2.74-1.82,4.2a1,1,0,0,0,.88,1.27c.49.09,1.33-.24,1.16.75S121.85,61.88,121.27,62Z"/><path class="cls-17" d="M186.31,58.06V55.82c0-1.1.05-2.28,1.48-.91.53.5.64,0,.93-.13a6.35,6.35,0,0,1,.88-.41c.35-.08.8-.49,1.07.05s.26,1-.36,1.23c-2.51.73-2.53,2.71-2.52,4.76,0,.55.43,1.5-.65,1.53-1.27,0-.74-1-.81-1.65A20.74,20.74,0,0,1,186.31,58.06Z"/><path class="cls-18" d="M103.13,56.93v4c0,.49,0,1-.68,1.08s-.83-.41-.83-.94q0-4.2,0-8.4c0-.51.14-1,.81-1s.68.61.69,1.09C103.14,54.13,103.13,55.53,103.13,56.93Z"/><path class="cls-19" d="M95.3,64.28c-1.08-.49-3.27,1-3.59-.73-.16-.87,2.4-.3,3.72-.46a29.15,29.15,0,0,1,3.74,0c.46,0,1.12-.09,1.07.66,0,.5-.56.55-1,.55C98,64.29,96.77,64.28,95.3,64.28Z"/><path class="cls-20" d="M145.3,63.07c1.13.49,3.43-1,3.73.74.16.91-2.54.29-3.93.45a30.61,30.61,0,0,1-3.71,0c-.42,0-.9-.08-.92-.59s.46-.61.89-.62Z"/><path class="cls-17" d="M67.53,55.52c-1.7,1.39-1,3.33-1.13,5.06-.05.62.19,1.46-.88,1.36-.9-.08-.57-.85-.58-1.35,0-1.56,0-3.13,0-4.69-.11-2.12.89-1.63,2-1A.72.72,0,0,1,67.53,55.52Z"/><path class="cls-17" d="M108.47,55.52c-1.69,1.39-1,3.33-1.12,5.06-.06.62.18,1.46-.88,1.36-.91-.08-.57-.85-.58-1.35,0-1.56,0-3.13,0-4.69-.11-2.12.9-1.63,2-1A.71.71,0,0,1,108.47,55.52Z"/><path class="cls-4" d="M67.53,55.52l-.59-.58c2.65-1.56,4.49-.68,4.69,2.28.08,1.15.05,2.31,0,3.47,0,.53.17,1.29-.74,1.23-.7-.05-.57-.68-.58-1.14,0-.91,0-1.82,0-2.73C70.26,56.26,69.49,55.23,67.53,55.52Z"/><path class="cls-4" d="M108.47,55.52l-.58-.58c2.64-1.56,4.48-.68,4.69,2.28.08,1.15,0,2.31,0,3.47,0,.53.17,1.29-.75,1.23-.7-.05-.56-.68-.57-1.14,0-.91,0-1.82,0-2.73C111.2,56.26,110.43,55.23,108.47,55.52Z"/><path class="cls-21" d="M126.46,58.25c0,.91,0,1.81,0,2.71,0,.5,0,1-.72,1s-.74-.52-.74-1V55.51c0-.61.09-1.22.9-1.13s.54.71.55,1.16C126.48,56.44,126.46,57.35,126.46,58.25Z"/><path class="cls-21" d="M116.47,58.22c0,1,0,2,0,3,0,.44-.13.81-.67.8a.7.7,0,0,1-.76-.76c0-2,0-3.94,0-5.91,0-.56.24-1,.86-.93s.58.48.59.89C116.48,56.24,116.47,57.23,116.47,58.22Z"/><path class="cls-19" d="M139,56.7c0,1.5,0,3,0,4.49,0,.47-.22.8-.75.73-.38-.05-.5-.38-.5-.72,0-3,0-6,0-9,0-.41,0-.87.62-.86s.64.43.64.85c0,1.5,0,3,0,4.49Z"/><path class="cls-19" d="M161,58.48c-.37,1,.55,3.33-.56,3.23-1.64-.14-.42-2.29-.7-3.53a8.88,8.88,0,0,1,0-2.47c0-.51-.25-1.33.67-1.27s.56.86.59,1.37C161,56.63,161,57.46,161,58.48Z"/><path class="cls-22" d="M160.48,51.38c.47.06.79.29.77.79s-.44.85-1,.81a.75.75,0,0,1-.76-.81C159.47,51.5,159.93,51.37,160.48,51.38Z"/><path class="cls-19" d="M125.8,52.91c-.65-.06-.86-.36-.84-.84s.43-.61.85-.61.73.28.65.78S126.19,53,125.8,52.91Z"/><path class="cls-19" d="M116.5,52.05c-.09.68-.34.92-.85.85a.71.71,0,0,1-.68-.83c0-.58.44-.61.85-.61S116.55,51.74,116.5,52.05Z"/><path class="cls-2" d="M220,205.31H25.78c-4.68,0-5.76-1.06-5.76-5.66v-17c0-4.12,1.21-5.32,5.35-5.32H414.28c4.93,0,6.2,1.25,6.2,6.16v16c0,4.41-1.4,5.82-5.79,5.82Z"/><path class="cls-4" d="M101.5,156.59a3,3,0,0,1,0-1c.46-1.34-1.21-3.39,1-4,3-.87,6.61.62,7.65,2.83a5.31,5.31,0,0,1-1.43,6.3c-2,1.51-4.25,1.23-6.47,1.16-1.18-.05-.74-1.1-.77-1.76C101.46,158.92,101.5,157.76,101.5,156.59Z"/><path class="cls-10" d="M187.18,157.83a4.17,4.17,0,0,1,0-.5c.11-1-.06-2.83.2-2.77,1.63.36,3.18-1.28,4.63-.25,1.07.78,1.76.46,2.76,0a2.61,2.61,0,0,1,3.89,2.1,34.83,34.83,0,0,1,.11,4.46c0,.51,0,1-.73,1s-.76-.45-.76-1c0-1.24,0-2.49-.05-3.73a1.73,1.73,0,1,0-3.45,0c-.08,1.24-.07,2.48-.09,3.73,0,.53-.08,1-.77,1s-.66-.58-.67-1c0-1.16,0-2.33-.05-3.48-.06-1-.49-1.81-1.59-1.91s-1.8.69-1.94,1.8c-.11.82,0,1.66-.16,2.48s.53,2.05-.59,2.05c-1.34,0-.56-1.4-.72-2.17A8.42,8.42,0,0,1,187.18,157.83Z"/><path class="cls-3" d="M80.1,160c-1.9,1.44-3.5,1.78-5.1.5a3.35,3.35,0,0,1-1.12-4c.67-2,2.19-2.59,4.1-2.32.87.12,1.57.86,2.64.2.72-.44.82.48.82,1.07,0,1.75,0,3.5,0,5.24a3.18,3.18,0,0,1-2,3.16,5.93,5.93,0,0,1-4.82-.34c-.29-.16-.62-.28-.38-.7.41-.72.93-.38,1.5-.21C77.68,163.16,79.46,163.22,80.1,160Z"/><path class="cls-11" d="M41.71,162c-2.75,0-4.42-1.07-5.27-3.37a5,5,0,0,1,1.63-6,4.86,4.86,0,0,1,6-.43c.46.28,1.47.45.87,1.39-.45.7-1,.26-1.48-.05-1.79-1.06-3.53-1-4.88.68a3.69,3.69,0,0,0,0,5c1.43,1.79,3.22,1.75,5.06.65.53-.32,1-.72,1.46,0s-.29,1-.66,1.25A4,4,0,0,1,41.71,162Z"/><path class="cls-12" d="M204.8,161.93a3.65,3.65,0,0,1-4.06-3.31c-.26-2.43,1-4.25,3.2-4.56a3.27,3.27,0,0,1,3.79,2.49c.39,1.15.3,2.17-1.43,1.95a8.84,8.84,0,0,0-2.24,0c-.57.08-1.51-.49-1.66.47s.64,1.26,1.34,1.6a2.9,2.9,0,0,0,1.46.1c.75,0,1.23-1.42,2.15-.42.15.16.28.35,0,.6A3.27,3.27,0,0,1,204.8,161.93Z"/><path class="cls-13" d="M62.52,159c-.17.82.12,2.69-.26,2.59-1.89-.48-3.85,1.21-5.61-.27a2.34,2.34,0,0,1,.5-3.9c.52-.23,1.17-.16,1.68-.39.69-.32,2.14,1,2-.58-.09-1.32-1.57-1.11-2.65-1.06-.56,0-1.39.87-1.6-.24s.81-.82,1.39-.94C61.4,153.53,62.52,154.69,62.52,159Z"/><path class="cls-12" d="M87.12,161.94a3.59,3.59,0,0,1-3.73-3.53c-.16-2.35,1-4,3.17-4.34a3.25,3.25,0,0,1,3.81,2.44c.37,1.07.45,2.23-1.37,2a9.33,9.33,0,0,0-2.24,0c-.59.07-1.55-.46-1.69.43s.73,1.39,1.53,1.71a2.34,2.34,0,0,0,2.12-.4c.44-.25.87-.62,1.26,0,.57.86-.41.88-.74,1.21A2.93,2.93,0,0,1,87.12,161.94Z"/><path class="cls-4" d="M132.87,157.2c-.67-2.12-2.07-2-3.49-1.63-.5.12-.95.43-1.07-.36-.08-.5.25-.68.67-.86a3.57,3.57,0,0,1,5.29,3.21c.28,3.93-.13,4.37-4,4.38-1.55,0-2.67-.64-2.82-2.2s.91-2.41,2.45-2.53C130.78,157.14,131.68,157.2,132.87,157.2Z"/><path class="cls-12" d="M150,161.93a3.69,3.69,0,0,1-3.83-3.91,4,4,0,1,1,8,0A3.92,3.92,0,0,1,150,161.93Z"/><path class="cls-14" d="M48.72,154.68c3.93-1.44,5.38-.46,5.29,3.58,0,1.19.73,3.39-.6,3.38-1.63,0-.55-2.13-.76-3.3s.1-2.9-1.84-2.91-1.91,1.61-2.11,3c-.15,1.13.55,3.26-.58,3.19-1.63-.12-.61-2.14-.71-3.3-.17-2-.06-4,0-6,0-.46-.12-1.12.56-1.17.86-.07.77.67.79,1.23C48.74,153.16,48.72,153.88,48.72,154.68Z"/><path class="cls-23" d="M156,158a4.17,4.17,0,0,1,0-.5c.13-1,0-3.06.28-3,1.67.51,3-1.08,4.64-.41a2.71,2.71,0,0,1,1.86,2.39c.12,1.4.06,2.82.05,4.23,0,.46.13,1-.62,1.09s-.87-.53-.87-1.14c0-1.07,0-2.15,0-3.23s-.45-2-1.67-2.07-2,.76-2.14,1.93,0,2.16-.1,3.23c0,.52.23,1.31-.7,1.26s-.68-.78-.7-1.33C156,159.67,156,158.84,156,158Z"/><path class="cls-24" d="M119.47,158.11c0,3.42-1.06,4.33-4.43,3.81a2.29,2.29,0,0,1-2.15-2.07c-.15-1.57-.08-3.15-.09-4.73,0-.44.11-.85.64-.85s.71.35.72.82c0,1.24,0,2.49.12,3.73a1.68,1.68,0,0,0,1.7,1.78,1.79,1.79,0,0,0,2-1.79c.09-1.15.09-2.32.12-3.48,0-.52.09-1.06.75-1.06s.63.62.64,1.1C119.48,156.28,119.47,157.2,119.47,158.11Z"/><path class="cls-12" d="M176.8,157.32a15.08,15.08,0,0,1,0-2.23c.22-1.64-.21-2.52-2.08-2.22-.46.07-1.3.3-1.29-.63s.74-.74,1.3-.74c1.9,0,3.8,0,5.7,0,.63,0,1.26.12,1.17.9s-.78.56-1.19.48c-2.13-.41-2.21.82-2.13,2.41.1,1.81,0,3.63,0,5.45,0,.59.05,1.2-.85,1.13-.73-.06-.65-.6-.66-1.07C176.79,159.63,176.8,158.47,176.8,157.32Z"/><path class="cls-16" d="M26.29,155c-.11.1-.23.31-.34.31-3-.16-2.5,2.43-3.15,4.09-.26.69-.4,1.43-.71,2.09-.09.2-.54.31-.84.33a.46.46,0,0,1-.51-.64c1.33-2.86.47-6.36,2.65-9a3.37,3.37,0,0,1,1.87-1.14c.68-.16,1.48-.13,1.64.65s-.7.64-1.21.75-1,.34-1,.89c-.06.75.65.57,1.06.73S26.45,154.43,26.29,155Z"/><path class="cls-11" d="M138.71,161.92a2,2,0,0,1-1.88-1.95c-.28-1.66.77-3.52-.84-5.07-.18-.16,1-1.77,1.11-2.88,0-.05.61-.13.64-.06.54,1.26,1,2.52,2.67,2.76.14,0-.24.72-.71.66-1.37-.18-1.57.65-1.37,1.66.23,1.17-.84,2.75.94,3.46.47.19,1.33-.17,1.1.8S139.29,161.77,138.71,161.92Z"/><path class="cls-17" d="M209.78,157.78c0-.83,0-1.66,0-2.48,0-.41.16-1.14.43-1,1.28.78,2.35.1,3.49-.26.33-.1.44.16.49.38.1.41.15.9-.35,1.05-2.63.75-2.62,2.83-2.59,5,0,.56.34,1.47-.81,1.37-.9-.08-.64-.81-.66-1.33C209.76,159.6,209.78,158.69,209.78,157.78Z"/><path class="cls-17" d="M121.9,157.92v-2.23c0-1.16.11-2.21,1.49-.88.52.51.64,0,.93-.15a6.46,6.46,0,0,1,.89-.41c.35-.08.8-.48,1.06.07s.23,1-.39,1.22c-2.67.79-2.5,2.93-2.5,5,0,.51.26,1.25-.67,1.28s-.8-.63-.8-1.2C121.89,159.74,121.9,158.83,121.9,157.92Z"/><path class="cls-19" d="M96.23,163c1.15.33,4-.26,3.76.41-.47,1.73-2.6.58-4,.77a25.93,25.93,0,0,1-3.74,0c-.35,0-.68-.1-.73-.5-.09-.57.3-.69.75-.7Z"/><path class="cls-20" d="M168.39,164.17c-1.16,0-2.31,0-3.47,0-.4,0-.89,0-1-.54s.37-.66.8-.66h7.18c.43,0,.87.07.82.63s-.49.58-.91.58C170.7,164.18,169.54,164.17,168.39,164.17Z"/><path class="cls-17" d="M67.53,155.4c-1.7,1.4-1,3.33-1.13,5.07-.05.62.19,1.46-.88,1.36-.9-.08-.57-.86-.58-1.35,0-1.56,0-3.13,0-4.7-.11-2.11.89-1.62,2-.95A.71.71,0,0,1,67.53,155.4Z"/><path class="cls-4" d="M67.53,155.4l-.59-.57c2.65-1.56,4.49-.68,4.69,2.28.08,1.15.05,2.31,0,3.47,0,.53.17,1.29-.74,1.23-.7-.05-.57-.69-.58-1.15,0-.91,0-1.82,0-2.73C70.26,156.14,69.49,155.12,67.53,155.4Z"/><path class="cls-25" d="M183.26,157.64c.36-.95-.64-3.22.57-3.18,1.76,0,.65,2.21.86,3.43a18,18,0,0,1,0,3.2.71.71,0,0,1-.76.77c-.54,0-.69-.33-.69-.78C183.25,160,183.26,158.94,183.26,157.64Z"/><path class="cls-19" d="M144,158.36c-.32,1,.5,3.34-.52,3.24-1.7-.17-.46-2.27-.72-3.51a13.92,13.92,0,0,1,0-3c0-.42.07-.84.64-.83s.62.46.63.87C144,156.16,144,157.15,144,158.36Z"/><path class="cls-22" d="M143.33,152.87a.75.75,0,0,1-.82-.75c0-.66.37-.86.93-.85s.81.2.82.72S143.93,152.89,143.33,152.87Z"/><path class="cls-25" d="M184.79,151.89c0,.45-.07.84-.61.91s-.94-.13-1-.75a.62.62,0,0,1,.72-.73C184.35,151.32,184.75,151.37,184.79,151.89Z"/><path class="cls-2" d="M220,277.23H414.2c5.07,0,6.28,1.22,6.28,6.33,0,5.41,0,10.82,0,16.23,0,3.89-1.54,5.41-5.46,5.41H25.86c-4.82,0-5.84-1-5.84-5.84,0-5.65,0-11.31,0-17,0-3.91,1.28-5.16,5.27-5.16Z"/><path class="cls-12" d="M183.47,257.88a4.17,4.17,0,0,1,0-.5c.13-1-.14-3,.3-2.95,1.74.33,3.48-1.47,5,0,.76.71,1.11.36,1.81,0,2.42-1.28,4.23-.24,4.5,2.52a31.06,31.06,0,0,1,0,3.48c0,.55.15,1.28-.7,1.32s-.69-.73-.72-1.24c0-.83,0-1.66,0-2.49,0-1.29-.15-2.68-1.85-2.68S190.1,256.77,190,258c-.07.9,0,1.82,0,2.73,0,.53-.07,1-.77,1-.55-.07-.54-.53-.55-.94,0-1.24,0-2.49-.12-3.72-.1-1-.54-1.78-1.71-1.77A1.81,1.81,0,0,0,185,257c-.16,1.06-.06,2.15-.14,3.22-.05.57.38,1.55-.72,1.48s-.63-1-.67-1.58S183.47,258.63,183.47,257.88Z"/><path class="cls-3" d="M80,259.89c-1.81,1.39-3.41,1.73-5,.44a3.36,3.36,0,0,1-1.11-4c.67-2,2.2-2.58,4.1-2.31.88.12,1.57.85,2.65.2.72-.44.81.49.81,1.07,0,1.75,0,3.49,0,5.24a3.16,3.16,0,0,1-2,3.15,5.85,5.85,0,0,1-4.82-.34c-.29-.15-.62-.28-.38-.7.41-.71.93-.35,1.5-.2C78.56,263.16,79.24,262.81,80,259.89Z"/><path class="cls-11" d="M105,261.8a4.62,4.62,0,0,1-3-.78c-.4-.25-1.22-.43-.8-1.24s.91-.53,1.43-.12a4.25,4.25,0,0,0,2.81.8,1.62,1.62,0,0,0,1.7-1.2c.21-.93-.41-1.36-1.16-1.61s-1.73-.56-2.6-.83a2.54,2.54,0,0,1-2-2.75,2.74,2.74,0,0,1,2.25-2.61,5,5,0,0,1,3.83.55c.36.17,1,.26.67,1-.3.6-.68.63-1.2.31a2.55,2.55,0,0,0-.87-.44c-1.12-.15-2.57-.67-3,.78-.51,1.6,1,1.75,2.09,2.11s2.32.49,3.08,1.49a2.64,2.64,0,0,1,.2,2.83C107.74,261.5,106.48,261.83,105,261.8Z"/><path class="cls-11" d="M41.79,261.85c-2.9-.05-4.55-1.14-5.38-3.45a5,5,0,0,1,1.72-6,4.85,4.85,0,0,1,6-.36c.45.27,1.23.47.89,1.21-.42.9-1,.42-1.62.07-1.82-1.07-3.54-.91-4.86.76a3.71,3.71,0,0,0,0,5c1.37,1.66,3.09,1.68,4.88.68.56-.32,1.16-1,1.62-.05s-.47,1-.94,1.37A4.05,4.05,0,0,1,41.79,261.85Z"/><path class="cls-12" d="M87.18,253.85A3.67,3.67,0,0,1,90,255.5a2.77,2.77,0,0,1,.48,2.37c-.32.95-1.29.37-2,.49a14.67,14.67,0,0,0-1.49,0c-.66.17-2-.66-1.89.68,0,1.07,1.14,1.53,2.23,1.55.24,0,.48-.15.72-.17.69,0,1.56-1.52,2-.1.23.8-1,1.24-1.92,1.41a3.75,3.75,0,0,1-4.7-3.24A3.93,3.93,0,0,1,87.18,253.85Z"/><path class="cls-13" d="M62.52,258.59c0,.66,0,1.33,0,2,0,.92-.24,1.55-1.27.93s-1.48.39-2.31.34c-1.52-.08-2.87-.26-3.07-2.11s.9-2.52,2.51-2.69a8.09,8.09,0,0,0,1-.08c.54-.13,1.45.72,1.56-.4.09-.87-.73-1.19-1.52-1.28-.25,0-.53.07-.74,0-.69-.29-1.86,1.14-2-.24s1.38-.91,2.13-1C61.58,253.66,62.52,254.86,62.52,258.59Z"/><path class="cls-12" d="M141.42,253.85a3.63,3.63,0,0,1,2.91,1.94c1,2,.68,2.56-1.59,2.58a9.24,9.24,0,0,0-1.49,0c-.68.14-1.94-.54-1.89.72,0,1.1,1.13,1.53,2.23,1.52.16,0,.33-.13.48-.11.75.09,1.7-1.72,2.11-.07.19.78-1.25,1.28-2.29,1.36a3.79,3.79,0,0,1-4.41-3.65A4,4,0,0,1,141.42,253.85Z"/><path class="cls-12" d="M200.72,261.8a3.72,3.72,0,0,1-3.84-3.72,3.93,3.93,0,0,1,3.47-4.17c2.05-.15,3.22,1,3.78,2.89.35,1.21,0,1.7-1.31,1.58a9.87,9.87,0,0,0-2.24,0c-.64.09-1.78-.53-1.83.56s1,1.59,2.1,1.68c.23,0,.48-.16.72-.15.71,0,1.61-1.51,2-.2.28.95-1.08,1.39-2.09,1.5A6.26,6.26,0,0,1,200.72,261.8Z"/><path class="cls-14" d="M48.72,254.71c3.74-1.61,5.37-.6,5.29,3.1,0,1.29.6,3.76-.49,3.68-1.87-.13-.58-2.37-.87-3.67-.25-1.14-.14-2.44-1.75-2.52s-2,1.13-2.14,2.46c-.07,1,0,2,0,3,0,.52,0,1-.77,1-.56,0-.58-.5-.58-.9q0-4.35,0-8.7c0-.49,0-1.1.71-1s.63.66.64,1.15C48.73,253,48.72,253.71,48.72,254.71Z"/><path class="cls-12" d="M128.89,257.73c0-.57,0-1.15,0-1.73,0-1.12-.3-2.6,1.72-1.46.27.15.86-.37,1.33-.49,2-.5,3.33.19,3.67,2.2a31.31,31.31,0,0,1,.17,4.45c0,.52,0,1-.74,1s-.71-.51-.72-1c0-1.16,0-2.32,0-3.48s-.57-1.95-1.8-2a1.92,1.92,0,0,0-2.07,2c-.09,1.15,0,2.32,0,3.48,0,.51,0,1-.75,1s-.73-.52-.73-1C128.89,259.72,128.9,258.73,128.89,257.73Z"/><path class="cls-16" d="M25.52,250.86c.64,0,1.22.08,1.36.63.24.95-.56.76-1.09.83s-1,.29-1.12.81c-.18.93.74.62,1.17.87.74.43.71,1.18,0,1.16-2.47-.08-2.2,1.85-2.85,3.26-.51,1.12.22,3.47-1.82,3.08-.92-.18.1-2.13.39-3.21.54-2-.17-4.26,1.63-6A5.19,5.19,0,0,1,25.52,250.86Z"/><path class="cls-17" d="M156.25,261.81a7.46,7.46,0,0,1-1.32-.33c-.49-.2-1.33-.29-1.1-1.08.35-1.21,1-.2,1.56-.12a12,12,0,0,0,1.44.33,1.17,1.17,0,0,0,1.19-.75c.19-.57-.26-.88-.74-1.08s-1.25-.44-1.86-.71c-1-.43-1.71-1.11-1.45-2.3A2.3,2.3,0,0,1,156.1,254a3.76,3.76,0,0,1,3,.83c.09.07,0,.45-.08.61a.59.59,0,0,1-.86.2,2.73,2.73,0,0,0-1.93-.31,1.2,1.2,0,0,0-.75.54c-.23.46.1.76.52.93s1.07.46,1.61.66c1.21.42,2.07,1.08,1.8,2.53S158,261.82,156.25,261.81Z"/><path class="cls-17" d="M149.86,255.27c-.82,0-1.5-.11-1.73.56s.52.89,1,1.15a4.12,4.12,0,0,0,.69.27c1.1.4,2.29.79,2.35,2.21a2,2,0,0,1-1.2,2,4.46,4.46,0,0,1-4-.28c-.39-.2-.68-.53-.4-1a.65.65,0,0,1,1-.19,5.7,5.7,0,0,0,.91.4c.87.39,1.85.32,2.18-.51s-.72-1.07-1.35-1.36c-.45-.21-.92-.37-1.37-.56a1.92,1.92,0,0,1-1.26-2.18,2.09,2.09,0,0,1,2-1.84,3.17,3.17,0,0,1,3,.81c.47.52-.11.92-.64.89A3.67,3.67,0,0,1,149.86,255.27Z"/><path class="cls-26" d="M113.42,261.78c-1.72.11-2-.89-2.33-2.15-.34-1.52.81-3.23-.8-4.68-.29-.27.72-2,1.23-3.08.1-.2.88-.09.8.15-.74,2.35,2.26,1.52,2.46,3,0,.06-.27.24-.4.23-2.14-.32-2,1.12-1.88,2.47s-.42,2.9,1.84,2.65c.42-.05.54.29.48.66C114.66,262,113.85,261.71,113.42,261.78Z"/><path class="cls-17" d="M174,251.38h2.73c.51,0,1,0,1.11.69s-.53.78-1,.7c-2.37-.44-2.5.93-2.37,2.72a46.25,46.25,0,0,1,0,4.71c0,.57.37,1.54-.72,1.48s-.61-1-.63-1.58c-.05-1.73-.08-3.47,0-5.21.07-1.48-.19-2.42-2-2.13-.46.07-1.31.35-1.33-.58s.86-.77,1.46-.8C172.17,251.35,173.08,251.38,174,251.38Z"/><path class="cls-11" d="M122.39,256.38q0,2.24,0,4.47c0,.56-.14,1-.83.89s-.65-.41-.65-.85c0-3,0-5.95,0-8.93,0-.58.22-1,.86-.91s.61.65.62,1.12C122.4,253.57,122.39,255,122.39,256.38Z"/><path class="cls-11" d="M126.38,256.36c0,1.41,0,2.82,0,4.22,0,.55.13,1.23-.81,1.16-.72-.06-.67-.59-.67-1.07,0-2.82,0-5.63,0-8.44,0-.59,0-1.25.84-1.17s.61.83.63,1.34C126.41,253.72,126.38,255,126.38,256.36Z"/><path class="cls-7" d="M206.14,257.83c0-.75,0-1.5,0-2.24,0-1-.15-1.84,1.47-1.1,1.47.67,1.64.64.6,2.15-.8,1.17-.62,2.54-.68,3.85,0,.56.12,1.28-.79,1.22-.72,0-.58-.67-.59-1.14C206.13,259.66,206.14,258.75,206.14,257.83Z"/><path class="cls-19" d="M164.66,262.84c1.16,0,2.33,0,3.49,0,.4,0,.9-.06,1,.49s-.36.69-.79.7h-7.24c-.35,0-.67-.11-.72-.51-.07-.57.33-.68.77-.68Z"/><path class="cls-19" d="M95.5,264.06c-1.17-.45-3.46.91-3.77-.74-.18-.91,2.51-.28,3.89-.45a23.35,23.35,0,0,1,3.45,0c.46,0,1.12-.12,1.16.55s-.59.65-1.07.66C98,264.07,96.86,264.06,95.5,264.06Z"/><path class="cls-17" d="M67.53,255.29c-1.7,1.39-1,3.33-1.13,5.07-.05.61.19,1.45-.88,1.36-.9-.08-.57-.86-.58-1.35,0-1.57,0-3.14,0-4.7-.11-2.12.89-1.62,2-.95A.71.71,0,0,1,67.53,255.29Z"/><path class="cls-4" d="M67.53,255.29l-.59-.57c2.65-1.56,4.49-.69,4.69,2.27.08,1.15.05,2.32,0,3.47,0,.54.17,1.29-.74,1.23-.7-.05-.57-.68-.58-1.14,0-.91,0-1.82,0-2.73C70.26,256,69.49,255,67.53,255.29Z"/><path class="cls-21" d="M180.89,257.8c0,1,0,2,0,2.95,0,.5,0,1-.73,1a.72.72,0,0,1-.71-.82c0-2,0-3.94,0-5.91,0-.57.29-.94.91-.87s.52.54.53.94C180.9,256,180.89,256.89,180.89,257.8Z"/><path class="cls-25" d="M116.84,257.93c0-.9,0-1.81,0-2.71,0-.48-.06-1.06.66-1.08s.81.42.81,1v5.69c0,.56-.19,1-.84.94s-.62-.63-.63-1.09C116.82,259.75,116.84,258.84,116.84,257.93Z"/><path class="cls-19" d="M180.9,251.85c0,.44-.12.81-.66.83a.72.72,0,0,1-.85-.67c-.08-.54.21-.73.68-.77S180.88,251.3,180.9,251.85Z"/><path class="cls-25" d="M118.37,251.94a.72.72,0,0,1-.79.77c-.66,0-.8-.42-.76-1s.48-.55.89-.53S118.45,251.48,118.37,251.94Z"/><path class="cls-2" d="M220.26,505H26.05c-5.1,0-6-.94-6-6.14V482.35c0-4.14,1.2-5.34,5.32-5.34H414.26c4.95,0,6.22,1.26,6.22,6.14v15.73c0,4.78-1.31,6.1-6,6.1Z"/><path class="cls-4" d="M81.48,461.53c-2.13.62-2.69-.57-2.48-2.78a22.41,22.41,0,0,0,0-5c-.31-2.37.75-2.78,2.81-2.66,3.49.21,5.49,1.27,6.16,3.63C89.09,458.65,86.5,461.5,81.48,461.53Z"/><path class="cls-3" d="M288.25,456.4a5.06,5.06,0,0,1-5.16,5.19,5.19,5.19,0,0,1-5.39-5.29A5.49,5.49,0,0,1,283,451,5.1,5.1,0,0,1,288.25,456.4Z"/><path class="cls-3" d="M257.78,456.55a5,5,0,0,1-5.3,5,5.18,5.18,0,0,1-5.22-5.44,5.45,5.45,0,0,1,5.41-5.12A5.09,5.09,0,0,1,257.78,456.55Z"/><path class="cls-4" d="M135.26,457.33c0,1,.05,1.73,0,2.47a4.26,4.26,0,0,1-6.67,3.43c-.36-.21-.83-.35-.59-.88a.73.73,0,0,1,1-.33,4.27,4.27,0,0,0,2.9.45c.75-.13,1.61-.54,1.44-1.4-.19-1-1-.34-1.59-.26a3.69,3.69,0,0,1-4.35-2.76,3.85,3.85,0,0,1,2.63-4.25c1.68-.64,3.06.91,4.84.39C135.47,454,135,456.39,135.26,457.33Z"/><path class="cls-6" d="M156.6,460c-3.81,1.71-6.57.26-6.28-3a3.5,3.5,0,0,1,4.41-3.15c.79.18,1.41,1,2.47.24.69-.47.8.51.8,1.07,0,1.66.07,3.32,0,5a4.18,4.18,0,0,1-6.56,3.14c-.37-.25-.77-.49-.5-.94s.83-.25,1.31-.13C155.27,462.88,155.73,462.67,156.6,460Z"/><path class="cls-3" d="M123.84,459.69c-1.71,1.42-3.27,1.65-4.82.49a3.36,3.36,0,0,1-1.3-3.74,3.57,3.57,0,0,1,2.86-2.73c1.5-.45,2.81,1.33,4.35.26.23-.16.45.38.44.72a44.81,44.81,0,0,1-.23,6.46c-.42,2.5-4.84,3.63-6.77,1.92-.3-.27-.44-.45-.18-.78a.71.71,0,0,1,.86-.3,5.47,5.47,0,0,0,2.15.55C122.89,462.54,123.84,461.84,123.84,459.69Z"/><path class="cls-17" d="M100.5,454.83c1.94-1.4,3.67-1.68,5.23-.18a4,4,0,0,1,.79,4.81,3.49,3.49,0,0,1-3.82,2.13c-.93,0-1.71-1.4-2.9-.15-.44.46-.72-.57-.72-1.14v-8.21c0-.59,0-1.29.8-1.24s.57.86.6,1.37C100.54,453,100.5,453.7,100.5,454.83Z"/><path class="cls-6" d="M189.73,454.75c1.8-1.19,3.32-1.55,4.85-.33a4,4,0,0,1,1.27,4.26,3.45,3.45,0,0,1-4.17,2.88c-.85-.14-1.54-1.21-2.64-.13-.54.52-.78-.47-.78-1,0-2.73,0-5.46,0-8.19,0-.51-.24-1.29.64-1.33s.83.63.82,1.23S189.73,453.59,189.73,454.75Z"/><path class="cls-6" d="M169.64,456.32a8.69,8.69,0,0,1,0-1.25c.18-1.27-.68-3.18.52-3.68a7.23,7.23,0,0,1,5.57.32,2.81,2.81,0,0,1,1.63,2.85,3.06,3.06,0,0,1-1.9,2.94,4.5,4.5,0,0,1-2.15.49c-1.85-.22-2.63.39-2.32,2.3.08.52.17,1.29-.77,1.18-.69-.09-.57-.7-.58-1.17C169.63,459,169.64,457.65,169.64,456.32Z"/><path class="cls-12" d="M226.38,461.6c-2.36,0-3.71-1-4.13-3.06a3.78,3.78,0,0,1,2.66-4.68,3.15,3.15,0,0,1,4.09,1.87c.64,1.32.81,2.68-1.45,2.42a5.34,5.34,0,0,0-1.74,0c-.67.16-1.95-.66-1.89.69.05,1.06,1.15,1.52,2.24,1.55.16,0,.33-.1.49-.09.76.05,1.24-1.38,2.16-.42.14.15.32.35,0,.61A3.31,3.31,0,0,1,226.38,461.6Z"/><path class="cls-4" d="M93.93,461.59a3.73,3.73,0,0,1-4-3.54,3.9,3.9,0,0,1,3.48-4.36,3.31,3.31,0,0,1,3.68,2.93c.23,1,.17,1.61-1.08,1.53a13.7,13.7,0,0,0-2.48,0c-.65.08-1.8-.48-1.85.49s1,1.6,2.07,1.76c.16,0,.34-.07.49,0,.87.15,2-1.8,2.37-.2C96.86,461.16,95.12,461.59,93.93,461.59Z"/><path class="cls-14" d="M215,454.51c3.74-1.65,5.37-.63,5.28,3.1,0,1.28.73,3.67-.53,3.66-1.77,0-.55-2.23-.82-3.46s0-2.67-1.78-2.73-2,1.35-2.14,2.73c0,.08,0,.17,0,.24-.41,1.12.94,3.17-.81,3.24-1.12,0-.44-2.09-.52-3.23-.13-1.89-.06-3.8,0-5.71,0-.57-.33-1.53.73-1.47.76,0,.6.85.61,1.41S215,453.58,215,454.51Z"/><path class="cls-24" d="M115.47,457.79c0,3.37-1.11,4.32-4.44,3.78a2.27,2.27,0,0,1-2.13-2.08c-.15-1.56-.08-3.15-.1-4.72,0-.45.13-.85.66-.84s.7.37.71.83c0,1.16,0,2.33.08,3.49s.57,2,1.76,2a1.89,1.89,0,0,0,2-2.05c.06-1.16.06-2.32.1-3.48,0-.48.25-.81.74-.8s.62.44.62.87C115.48,455.79,115.47,456.79,115.47,457.79Z"/><path class="cls-24" d="M185.88,457.55a2,2,0,0,1,0,.25c0,3.34-1.17,4.32-4.47,3.77a2.35,2.35,0,0,1-2.16-2.34c-.08-1.4,0-2.82-.06-4.23,0-.49,0-1.09.68-1.07s.7.58.71,1.09c0,1.08,0,2.16.06,3.24s.59,2,1.77,2a1.89,1.89,0,0,0,2-2.06c.05-1.08.05-2.16.07-3.23,0-.54.12-1.06.77-1s.61.65.62,1.12C185.9,455.89,185.88,456.72,185.88,457.55Z"/><path class="cls-24" d="M260.07,457.55a4.17,4.17,0,0,1,0-.5c.16-1-.14-3,.35-2.9,1.62.42,2.91-1,4.45-.36a2.67,2.67,0,0,1,1.87,2.62c0,1.24.05,2.49,0,3.73,0,.5.3,1.31-.6,1.34s-.78-.85-.81-1.45c0-1.08,0-2.15-.09-3.23a1.63,1.63,0,0,0-1.7-1.74,1.69,1.69,0,0,0-1.9,1.56c-.15,1.31-.14,2.64-.2,4,0,.42-.08.85-.61.91-.73.08-.76-.46-.76-1C260.07,459.53,260.07,458.54,260.07,457.55Z"/><path class="cls-24" d="M141.73,457.75v-.25c0-3.68.23-3.95,3.87-3.87a2.49,2.49,0,0,1,2.7,2.09,43.18,43.18,0,0,1,.12,5c0,.44-.11.83-.66.82a.7.7,0,0,1-.75-.78c0-1.24,0-2.48-.07-3.72s-.52-1.94-1.78-1.94a1.81,1.81,0,0,0-1.92,1.85c-.1,1.07-.07,2.15-.13,3.22,0,.54.2,1.3-.65,1.36s-.7-.73-.72-1.26C141.71,459.4,141.73,458.57,141.73,457.75Z"/><path class="cls-12" d="M52.49,457.92c-.54,1,1,3.39-.92,3.35-1.27,0-2.39.87-3.69.33-1-.42-1.86-.87-2-2-.15-1.56-.17-3.14-.21-4.72,0-.54.17-1,.83-.94s.54.54.54.94c0,1,0,2,0,3,.06,1.27.5,2.41,2,2.38s2-1,1.93-2.39c0-.91,0-1.82,0-2.74,0-.59,0-1.26.82-1.22s.62.81.65,1.32C52.52,456.06,52.49,456.89,52.49,457.92Z"/><path class="cls-27" d="M39.05,457a16.57,16.57,0,0,1,0-2.23c.21-1.64-.24-2.53-2.09-2.23-.43.07-1.09.16-1.12-.56s.62-.83,1.21-.83h5.71c.59,0,1.24,0,1.17.86s-.73.61-1.14.53c-2.21-.42-2.39.83-2.28,2.54s0,3.47,0,5.21c0,.53.2,1.27-.75,1.22s-.72-.74-.73-1.29C39,459.15,39.05,458.07,39.05,457Z"/><path class="cls-16" d="M25.52,450.63c.64,0,1.22.08,1.36.63.24,1-.56.76-1.09.83a1.18,1.18,0,0,0-1.13.81c-.17.74.5.67.95.8s.83.27.68.81c-.05.19-.33.47-.48.46-2.47-.21-2.2,1.82-2.85,3.23-.51,1.11.22,3.47-1.82,3.07-.92-.18.1-2.13.39-3.21.54-2-.17-4.26,1.63-6A5.27,5.27,0,0,1,25.52,450.63Z"/><path class="cls-17" d="M233.61,461.58a3.35,3.35,0,0,1-1.19-.22c-.55-.3-1.72-.29-1.28-1.34s1.13-.06,1.64.1c.92.29,2,.63,2.38-.41.48-1.33-1-1.28-1.72-1.56-1.53-.61-2.82-1.26-2-3.2.59-1.33,3-1.69,4.41-.76.3.18.81.32.49.88a.66.66,0,0,1-1,.28,2.71,2.71,0,0,0-1.67-.32c-.43,0-.84.15-.92.64a.78.78,0,0,0,.62.92c.47.16.92.35,1.38.53,1.21.49,2.3,1.06,2,2.67C236.49,461,235.51,461.59,233.61,461.58Z"/><path class="cls-17" d="M208.68,453.63c.5.12,1.08.22,1.63.41s1.06.3.86.95-.68.51-1.2.29a4,4,0,0,0-1.2-.25,1,1,0,0,0-1.24.59c-.21.63.35.84.79,1s1.06.45,1.6.65c1.14.42,1.86,1.13,1.58,2.43a2.17,2.17,0,0,1-2.32,1.82,4.94,4.94,0,0,1-1.73-.13c-.61-.25-1.8-.28-1.56-1.22.32-1.3,1.2-.25,1.76-.06.95.34,2.09.48,2.39-.47.39-1.23-1.08-1.22-1.82-1.53-1.21-.51-2.35-.95-2.14-2.57S207.45,453.87,208.68,453.63Z"/><path class="cls-28" d="M300.1,454.51c-.07.14-.13.39-.2.39-3.6.2-1.59,3-2.12,4.58-.22.68.55,2-.73,1.93s-.47-1.32-.64-2c-.36-1.5.75-3.25-.87-4.59-.41-.33,1.81-3.76,2.52-3.95s1.66-.42,1.95.42c.42,1.2-.75.69-1.24.83a1.14,1.14,0,0,0-.82,1.12c-.07.71.55.64,1,.69S300,453.75,300.1,454.51Z"/><path class="cls-28" d="M294.62,454.51c-.09.16-.16.4-.24.41-3.54.08-1.61,2.79-2.08,4.34a5.42,5.42,0,0,0,0,1c0,.53.17,1.32-.75,1.22s-.59-.86-.61-1.38c0-1.32.52-3.08-.13-3.88-1.34-1.67.15-2.67.3-3.95.14-1.12,1.06-1.4,2-1.55.57-.1,1.28-.11,1.48.56.32,1-.55.76-1.05.79a1.09,1.09,0,0,0-1.05,1.16c0,.69.59.64,1.07.67S294.55,453.83,294.62,454.51Z"/><path class="cls-29" d="M198.23,456.12c0-1.4,0-2.8,0-4.2,0-.46-.12-1.07.61-1.1s.85.36.85.95q0,4.44,0,8.9a.73.73,0,0,1-.68.84c-.73.08-.78-.42-.78-.94Z"/><path class="cls-4" d="M54.94,457.73V455.5c0-1.15-.1-2.35,1.57-1,.63.52,1-.65,1.65-.65.4,0,.83-.26,1.09.2s.19.88-.3,1c-2.61.76-2.59,2.83-2.55,4.95,0,.59.28,1.5-.8,1.43s-.58-1-.64-1.54A20.53,20.53,0,0,1,54.94,457.73Z"/><path class="cls-19" d="M164.3,462.61c1.11.48,3.32-1,3.62.72.16.9-2.42.33-3.75.47a31.1,31.1,0,0,1-3.74,0c-.49,0-1.09,0-1-.7,0-.57.55-.51.95-.51C161.59,462.6,162.84,462.61,164.3,462.61Z"/><path class="cls-19" d="M272.31,462.62h3.49c.43,0,.89.06.87.6s-.47.61-.91.61h-7c-.37,0-.7-.15-.74-.51-.07-.53.32-.69.77-.69Z"/><path class="cls-19" d="M73.43,463.82c-1.24,0-2.47,0-3.71,0-.45,0-.81-.17-.75-.71s.4-.47.73-.47h7.17a.6.6,0,0,1,.67.57.62.62,0,0,1-.65.6c-1.15,0-2.31,0-3.46,0Z"/><path class="cls-19" d="M242.23,462.61c1.19.43,3.52-.88,3.81.72.17.93-2.54.3-3.94.48a24.54,24.54,0,0,1-3.21,0c-.48,0-1.12.07-1.16-.58s.61-.63,1.08-.63C239.88,462.6,241,462.61,242.23,462.61Z"/><path class="cls-17" d="M63.54,455.06c-1.7,1.4-1,3.33-1.13,5.07-.06.62.18,1.46-.88,1.36-.9-.08-.57-.86-.58-1.35-.05-1.56,0-3.13,0-4.7-.11-2.11.9-1.62,2-.95A.71.71,0,0,1,63.54,455.06Z"/><path class="cls-4" d="M63.54,455.06l-.59-.57c2.64-1.56,4.48-.68,4.69,2.28.08,1.15,0,2.31,0,3.47,0,.53.17,1.29-.75,1.23-.7-.05-.56-.69-.57-1.15,0-.91,0-1.82,0-2.73C66.27,455.8,65.49,454.78,63.54,455.06Z"/><path class="cls-25" d="M203.68,457.53c0,1.08,0,2.15,0,3.22a.7.7,0,0,1-.75.77c-.54,0-.69-.32-.7-.78,0-2,0-3.95,0-5.93,0-.4,0-.85.58-.89s.87.32.88.9c0,.9,0,1.81,0,2.71Z"/><path class="cls-19" d="M137.68,457.5c.47-1.12-.65-3.33.7-3.33s.63,2.19.59,3.35c-.05,1.31.94,3.49-.74,3.72C137.31,461.36,138.06,458.83,137.68,457.5Z"/><path class="cls-22" d="M138.57,452.54c-.83,0-1.1-.37-1-1s.46-.64.89-.63.82.14.86.68A.78.78,0,0,1,138.57,452.54Z"/><path class="cls-25" d="M203.77,451.53c0,.64-.25.91-.74,1-.67,0-.85-.34-.83-.9s.39-.63.83-.6S203.82,451.16,203.77,451.53Z"/><path class="cls-2" d="M220,377.12H414.2c5.07,0,6.28,1.22,6.28,6.33,0,5.41,0,10.82,0,16.23,0,3.88-1.54,5.4-5.46,5.4H25.86c-4.82,0-5.84-1-5.84-5.84,0-5.66,0-11.32,0-17,0-3.91,1.27-5.15,5.27-5.15Z"/><path class="cls-6" d="M113.39,358.92c0-2.45,0-4.25,0-6,0-.57-.38-1.49.66-1.56s.81.85.82,1.45c0,2.49,0,5,0,7.46,0,.49.36,1.23-.55,1.39-.71.12-1-.4-1.38-.85l-5.51-7c0,2.67,0,4.68,0,6.69,0,.52.19,1.29-.78,1.17s-.65-.83-.65-1.37q0-3.72,0-7.46c0-.55-.17-1.24.61-1.43s1.06.29,1.43.76Z"/><path class="cls-3" d="M79.9,359.8c-1.72,1.42-3.28,1.65-4.82.49a3.36,3.36,0,0,1-1.3-3.74,3.57,3.57,0,0,1,2.87-2.73c1.49-.44,2.8,1.34,4.34.27.23-.16.45.38.44.72a44.81,44.81,0,0,1-.23,6.46c-.42,2.5-4.86,3.63-6.78,1.91-.3-.27-.43-.46-.17-.78a.72.72,0,0,1,.86-.3,5.3,5.3,0,0,0,2.15.55C79,362.66,79.89,362,79.9,359.8Z"/><path class="cls-11" d="M204.7,354.49c.65-1.18-.49-3.37.87-3.31,1.63.07.6,2.13.71,3.29.17,2,0,4,.05,5.95,0,1.06-.32,1.73-1.35.82-.42-.36-.54-.32-.92-.1-1.86,1.06-3.6.8-4.76-1a4.09,4.09,0,0,1,.23-5.08c1.35-1.61,3.08-1.72,4.87-.58C204.45,354.54,204.56,354.5,204.7,354.49Z"/><path class="cls-4" d="M121,361.68a5,5,0,0,1-3.21-.94c-.41-.27-.86-.56-.47-1.15s.78-.52,1.24-.12a4.43,4.43,0,0,0,2.53.88,1.76,1.76,0,0,0,2.14-1.26c.23-1.08-.69-1.39-1.47-1.68s-1.58-.46-2.36-.73a2.54,2.54,0,0,1-2-2.74,2.89,2.89,0,0,1,2.31-2.61,4.17,4.17,0,0,1,2.68.12c.77.27,2.12.34,1.75,1.44-.43,1.29-1.28,0-2-.11-1.19-.17-2.72-.7-3.15.94-.37,1.41,1,1.6,2.07,1.91a13.29,13.29,0,0,1,2.1.71,2.46,2.46,0,0,1,1.52,3C124.2,361.22,122.82,361.74,121,361.68Z"/><path class="cls-11" d="M40.66,361.72a4.6,4.6,0,0,1-4.24-3.41,5,5,0,0,1,1.69-6,4.87,4.87,0,0,1,6-.38c.45.27,1.23.47.91,1.19-.4.92-1,.48-1.62.1a3.39,3.39,0,0,0-4.53.37,3.78,3.78,0,0,0-.84,4.56c.92,2,3,2.69,5.21,1.68.59-.27,1.28-1.31,1.81-.21s-.74,1.17-1.33,1.59S42.15,361.69,40.66,361.72Z"/><path class="cls-30" d="M146.44,354.55c3.89-1.56,5.39-.56,5.42,3.34,0,1,0,2,0,3,0,.47-.18.78-.72.76a.68.68,0,0,1-.75-.76c0-1.16,0-2.32,0-3.49s-.41-2.16-1.79-2.21-1.91.9-2.06,2.06c-.12,1,0,2-.07,3,0,.51.33,1.32-.58,1.37-1.06.05-.81-.85-.81-1.45,0-2.57,0-5.15,0-7.73,0-.63-.18-1.51.84-1.43.83.06.53.87.57,1.39S146.44,353.7,146.44,354.55Z"/><path class="cls-12" d="M163.8,361.71a3.65,3.65,0,0,1-4-3.4c-.22-2.35.9-4,3-4.43a3.22,3.22,0,0,1,3.9,2.28c.46,1.2.45,2.34-1.45,2.11a6.64,6.64,0,0,0-2,0c-.63.11-1.73-.56-1.81.53s1,1.45,1.87,1.69a3,3,0,0,0,.73,0c.81,0,1.29-1.21,2.22-.57a.45.45,0,0,1,0,.79A3.29,3.29,0,0,1,163.8,361.71Z"/><path class="cls-12" d="M87.69,361.76c-2.66-.11-4-1.18-4.27-3.29a3.71,3.71,0,0,1,2.86-4.55,3.18,3.18,0,0,1,4,2.09c.55,1.28.6,2.52-1.47,2.26a4.84,4.84,0,0,0-1.74,0c-.68.16-2-.66-2,.62s1.21,1.65,2.42,1.6a2.1,2.1,0,0,1,.24-.06c.78,0,1.26-1.29,2.18-.48.14.12.4.32.12.6A3.44,3.44,0,0,1,87.69,361.76Z"/><path class="cls-13" d="M62.52,358.5v2.23c0,.55-.25,1.18-.8.82-1.13-.74-2,.26-3,.19-1.46-.11-2.65-.44-2.81-2.13s.73-2.44,2.28-2.63a12,12,0,0,0,1.22-.13c.54-.11,1.47.74,1.55-.41.07-.86-.75-1.18-1.54-1.27-.16,0-.35.05-.49,0-.76-.36-2.14,1.17-2.23-.24s1.7-1,2.6-1.05C61.77,353.74,62.52,354.93,62.52,358.5Z"/><path class="cls-4" d="M192.9,357.77a4,4,0,0,1-8,0,4.19,4.19,0,0,1,4.19-4A3.87,3.87,0,0,1,192.9,357.77Z"/><path class="cls-14" d="M48.72,354.52c3.84-1.54,5.3-.54,5.33,3.35,0,.83,0,1.66,0,2.48,0,.52.23,1.31-.71,1.26s-.68-.78-.7-1.33c-.05-1.16,0-2.32-.11-3.48A1.56,1.56,0,0,0,51,355.18a1.68,1.68,0,0,0-2,1.42c-.2,1.3-.18,2.63-.25,3.95,0,.48,0,1.05-.69,1.05s-.66-.61-.66-1.08c0-2.73,0-5.46,0-8.2,0-.51-.25-1.32.63-1.33s.7.75.72,1.3S48.72,353.61,48.72,354.52Z"/><path class="cls-27" d="M139.91,356.87c0,1.44,0,2.6,0,3.76,0,.49,0,1-.73,1s-.76-.49-.76-1c0-1.9-.1-3.81,0-5.7.1-1.6-.19-2.56-2.07-2.25-.43.06-1.08.18-1.15-.54s.38-.85.94-.85h6.2c.41,0,.82.08.94.59s0,.81-.36.76C138.63,351.94,140.23,355.18,139.91,356.87Z"/><path class="cls-16" d="M21.6,361.59c-.58,0-1.07-.17-.85-.66,1.31-2.87.46-6.36,2.65-9a3.35,3.35,0,0,1,1.86-1.14c.69-.16,1.49-.13,1.64.65s-.71.65-1.21.75-1,.34-1,.9c-.06.75.65.56,1.06.72.72.3.93,1.14.23,1.15-3.19,0-2.44,2.75-3.23,4.4C22.34,360.15,22.69,361.29,21.6,361.59Z"/><path class="cls-12" d="M171,361.66a1.2,1.2,0,0,1-.74-.09c-.65-.34-2-.25-1.65-1.35s1.23-.08,1.82.08c.94.25,2,.5,2.3-.59s-1-1.17-1.68-1.41c-1.59-.55-2.94-1.34-2.08-3.17s2.57-1.48,4.14-.95c.45.15,1,.43.71,1.06s-.61.36-1,.2a5.86,5.86,0,0,0-1.44-.3c-.52,0-1,.1-1.1.72,0,.46.28.74.72.89s.93.34,1.38.53c1.1.48,2.21,1,1.92,2.51S172.86,361.75,171,361.66Z"/><path class="cls-12" d="M178.88,355.18c-1.7,1.4-1,3.34-1.13,5.09-.05.52.22,1.26-.66,1.33-1.16.1-.79-.83-.8-1.39,0-2.73,0-5.46,0-8.19,0-.47-.09-1.08.65-1.08s.75.42.84,1c.15.89-.54,2,.52,2.67A.72.72,0,0,1,178.88,355.18Z"/><path class="cls-18" d="M103.13,356.59v4c0,.5,0,1-.68,1.09s-.83-.4-.83-.94q0-4.2,0-8.4c0-.52.15-1,.8-1s.69.6.7,1.09C103.14,353.79,103.13,355.19,103.13,356.59Z"/><path class="cls-7" d="M154.22,357.62c0-.91,0-1.83,0-2.74,0-.59.41-1.16.87-.76.84.73,1.43.28,2.15,0,.41-.18,1-.49,1.21.25a.73.73,0,0,1-.44,1c-2.41.73-2.33,2.71-2.42,4.64,0,.58.34,1.57-.63,1.59-1.19,0-.66-1.08-.73-1.71a18.57,18.57,0,0,1,0-2.24Z"/><path class="cls-19" d="M95.89,362.73c1.09,0,2.17,0,3.25,0,.47,0,1.12-.08,1.11.63,0,.49-.53.58-1,.58h-7c-.44,0-.87-.1-.84-.66s.53-.55.93-.55Z"/><path class="cls-19" d="M130,363.93c-1.15,0-2.3,0-3.46,0a.59.59,0,0,1-.62-.61c0-.38.3-.56.65-.57h7.17c.34,0,.7.08.74.48s-.34.7-.77.7C132.43,363.94,131.19,363.93,130,363.93Z"/><path class="cls-17" d="M67.53,355.18c-1.7,1.39-1,3.33-1.13,5.06-.05.62.19,1.46-.88,1.36-.9-.08-.57-.85-.58-1.35,0-1.56,0-3.13,0-4.69-.11-2.12.89-1.63,2-1A.72.72,0,0,1,67.53,355.18Z"/><path class="cls-4" d="M67.53,355.18l-.59-.58c2.65-1.56,4.49-.68,4.69,2.28.08,1.15.05,2.31,0,3.47,0,.53.17,1.29-.74,1.23-.7-.05-.57-.68-.58-1.14,0-.91,0-1.82,0-2.73C70.26,355.92,69.49,354.89,67.53,355.18Z"/><path class="cls-4" d="M178.88,355.18l-.59-.58c2.65-1.56,4.49-.68,4.69,2.28.08,1.15.05,2.31,0,3.47,0,.53.17,1.29-.74,1.23-.7-.05-.57-.68-.58-1.14,0-.91,0-1.82,0-2.73C181.61,355.91,180.83,354.89,178.88,355.18Z"/><path class="cls-19" d="M196.45,356.38c0,1.41,0,2.83,0,4.24,0,.41,0,.89-.54.95-.72.09-.73-.48-.74-1,0-2.91,0-5.81,0-8.72,0-.41,0-.86.64-.84s.62.46.62.87C196.46,353.39,196.45,354.89,196.45,356.38Z"/><path class="cls-8" d="M190.2,78.46q82.38,0,164.75-.06c2.5,0,3.26.56,3.18,3.14-.2,6.57-.07,13.15-.07,19.72,0,3.17,0,3.17-3.28,3.17H26c-4.57,0-5-.44-5-5V83.24c0-4.24.53-4.78,4.68-4.78Z"/><path class="cls-31" d="M388.27,104.43c-9,0-18,0-26.93,0-1.68,0-2.34-.4-2.32-2.21.1-7.23.08-14.47,0-21.7,0-1.65.52-2.13,2.14-2.12,18.13,0,36.25,0,54.37,0,2.86,0,3.92,1.07,3.93,3.91,0,5.9,0,11.81,0,17.71,0,3.34-1,4.33-4.27,4.33Q401.74,104.45,388.27,104.43Z"/><path class="cls-32" d="M80,57.58A2.26,2.26,0,0,1,77.64,60a2.17,2.17,0,0,1-2.52-2.15,2.11,2.11,0,0,1,2.28-2.36A2.28,2.28,0,0,1,80,57.58Z"/><path class="cls-33" d="M132.22,58.19c.55.32,1.69-.18,1.64,1s-.94,1.69-2,1.75c-.88,0-1.82-.31-1.83-1.26C130,58.36,131.22,58.34,132.22,58.19Z"/><path class="cls-34" d="M86.83,57.57c-.62-.26-1.77.45-1.75-.63A1.71,1.71,0,0,1,87,55.45c1,0,2,.54,1.83,1.53C88.69,58.14,87.49,57.27,86.83,57.57Z"/><path class="cls-35" d="M59.35,58.2c.57.33,1.84-.27,1.71,1.08A1.85,1.85,0,0,1,59,60.92c-.85,0-1.72-.33-1.68-1.36C57.34,58.36,58.44,58.39,59.35,58.2Z"/><path class="cls-36" d="M182.66,57.46a8.25,8.25,0,0,1-1.71.06c-.72-.13-1.71.57-2.11-.51-.18-.49.33-.9.73-1.18a1.87,1.87,0,0,1,2.47.09A1.48,1.48,0,0,1,182.66,57.46Z"/><path class="cls-8" d="M190,204.31H25.78c-4.22,0-4.76-.53-4.76-4.7V182.88c0-3.89.63-4.53,4.43-4.54H354.7c3.36,0,3.36,0,3.36,3.34v19.47c0,3.16,0,3.16-3.28,3.16Z"/><path class="cls-31" d="M388.44,204.31c-9,0-18,0-26.93,0-1.74,0-2.53-.29-2.49-2.29.11-7.15.09-14.31,0-21.46,0-1.69.43-2.3,2.22-2.29,18.13.06,36.25,0,54.37,0,2.81,0,3.84,1.1,3.85,4q0,9,0,18c0,3-1.06,4-4.1,4C406.4,204.33,397.42,204.31,388.44,204.31Z"/><path class="cls-34" d="M103,156.8a2.8,2.8,0,0,1,0-.69c.34-1.05-.86-2.76.81-3.14,1.91-.43,3.88,0,4.88,2a3.59,3.59,0,0,1-.8,4.5,4.05,4.05,0,0,1-4.17.83C102,159.67,103.43,157.83,103,156.8Z"/><path class="cls-32" d="M80,157.36c-.14,1.67-.93,2.45-2.4,2.51a2.26,2.26,0,1,1-.12-4.51A2.36,2.36,0,0,1,80,157.36Z"/><path class="cls-34" d="M204.26,157.46c-.64-.25-1.77.45-1.83-.56s.81-1.53,1.85-1.56,2,.48,1.92,1.45C206.13,158.06,204.88,157.13,204.26,157.46Z"/><path class="cls-35" d="M59.43,158.09c.56.3,1.67-.16,1.65.94s-.89,1.7-2,1.78c-.87.05-1.79-.27-1.82-1.22C57.24,158.25,58.44,158.25,59.43,158.09Z"/><path class="cls-34" d="M86.84,157.46c-.62-.26-1.77.45-1.77-.62a1.7,1.7,0,0,1,1.93-1.5c1,0,2,.53,1.85,1.51C88.71,158,87.5,157.15,86.84,157.46Z"/><path class="cls-37" d="M131,158.07c.57.38,1.91-.28,1.74,1.11a1.91,1.91,0,0,1-2.17,1.63c-.83,0-1.77-.28-1.68-1.38S130.11,158.25,131,158.07Z"/><path class="cls-38" d="M152.71,158c-.18,1.51-.91,2.64-2.43,2.7a2.45,2.45,0,0,1-2.65-2.65,2.35,2.35,0,0,1,2.36-2.63C151.76,155.3,152.39,156.51,152.71,158Z"/><path class="cls-8" d="M190.19,278.23q82.38,0,164.75-.05c2.47,0,3.27.52,3.19,3.12-.2,6.74-.17,13.49,0,20.22.06,2.3-.71,3-2.83,2.69a12.77,12.77,0,0,0-1.75,0H26c-4.59,0-5-.43-5-4.94V283.53c0-5,.31-5.3,5.17-5.3Z"/><path class="cls-31" d="M388.54,304.2c-9,0-18,0-26.93,0-1.86,0-2.64-.35-2.6-2.45.14-7.06.11-14.13,0-21.2,0-1.85.51-2.41,2.38-2.4,18,.07,35.92,0,53.87.05,3.18,0,4.19,1,4.2,4.14q0,8.87,0,17.71c0,3.11-1,4.1-4.24,4.11Z"/><path class="cls-32" d="M78,255.27a2.06,2.06,0,0,1,1.93,2.33,2.15,2.15,0,0,1-2.49,2.16,2.13,2.13,0,0,1-2.3-2.35C75.18,256,76.09,255.17,78,255.27Z"/><path class="cls-34" d="M86.9,257.34c-.64-.24-1.77.44-1.82-.56s.82-1.53,1.87-1.55,2,.5,1.91,1.46C88.78,257.94,87.54,257,86.9,257.34Z"/><path class="cls-35" d="M59.35,258c.57.33,1.84-.26,1.71,1.08A1.85,1.85,0,0,1,59,260.69c-.85,0-1.72-.32-1.68-1.35C57.34,258.13,58.44,258.16,59.35,258Z"/><path class="cls-33" d="M143.33,257.32a15.07,15.07,0,0,1-2.35,0c-.61-.11-1.72.55-1.73-.57,0-1,.88-1.5,1.9-1.52S142.92,255.85,143.33,257.32Z"/><path class="cls-33" d="M202.7,257.23h-4.09a1.82,1.82,0,0,1,1.79-2C201.67,255.11,202.35,255.8,202.7,257.23Z"/><path class="cls-8" d="M190,504H25.78c-4.22,0-4.76-.53-4.76-4.71,0-5.66,0-11.32,0-17,0-3.54.73-4.28,4.19-4.28H354.7c3.36,0,3.36,0,3.36,3.34,0,6.24,0,12.48,0,18.73,0,4.43.56,3.9-3.79,3.9Z"/><path class="cls-31" d="M388.77,478H415c3.61,0,4.51.92,4.52,4.58q0,8.61,0,17.22c0,3.15-1,4.16-4.19,4.16-18,0-35.92,0-53.87,0-1.86,0-2.43-.51-2.4-2.38.1-7.07.12-14.14,0-21.2,0-2.08.7-2.48,2.58-2.46C370.65,478.05,379.71,478,388.77,478Z"/><path class="cls-34" d="M82.18,460.09c-1.18.23-1.86-.19-1.7-1.69a31.41,31.41,0,0,0,0-3.22c0-2.72.74-3.29,3.34-2.44a3.55,3.55,0,0,1,2.71,4.12C86.3,459,84.86,460,82.18,460.09Z"/><path class="cls-39" d="M283,452.5a3.88,3.88,0,0,1,.12,7.74,4,4,0,0,1-3.83-3.84A3.82,3.82,0,0,1,283,452.5Z"/><path class="cls-39" d="M252.59,460.25a4,4,0,0,1-3.79-3.9,3.81,3.81,0,0,1,3.76-3.85,3.88,3.88,0,0,1,0,7.75Z"/><path class="cls-32" d="M131.74,455a2.15,2.15,0,0,1,2,2.42,2.21,2.21,0,0,1-2.61,2.06,2.1,2.1,0,0,1-2.2-2.43C129.05,455.62,130.05,455,131.74,455Z"/><path class="cls-40" d="M154,459.55a2.26,2.26,0,1,1,.15-4.52,2.17,2.17,0,0,1,2.4,2.26C156.58,458.64,155.64,459.51,154,459.55Z"/><path class="cls-32" d="M121.9,455a2.07,2.07,0,0,1,1.95,2.33c-.06,1.51-1,2.17-2.48,2.16a2.12,2.12,0,0,1-2.31-2.34C119.11,455.81,120,455,121.9,455Z"/><path class="cls-35" d="M105.42,457.79c-.13,1.53-1,2.56-2.47,2.52a2.41,2.41,0,0,1-2.39-2.63,2.37,2.37,0,0,1,2.62-2.62C104.8,455.15,105.35,456.31,105.42,457.79Z"/><path class="cls-41" d="M189.74,457.42A2.28,2.28,0,0,1,192.1,455c1.67-.05,2.38,1.12,2.44,2.54.07,1.57-.8,2.82-2.48,2.74C190.62,460.25,189.73,459.21,189.74,457.42Z"/><path class="cls-42" d="M171,454.46c-.3-1.44.22-2.1,1.81-1.94s3,.17,3,2.13-1.69,1.84-3.1,2C170.88,456.85,170.88,455.75,171,454.46Z"/><path class="cls-34" d="M225.74,457.12c-.64-.25-1.76.45-1.84-.55s.8-1.53,1.83-1.57,2,.47,1.94,1.43C227.61,457.73,226.36,456.78,225.74,457.12Z"/><path class="cls-33" d="M95.58,456.91a12.66,12.66,0,0,1-4,.1c.21-1.23.75-2,2-2A1.79,1.79,0,0,1,95.58,456.91Z"/><path class="cls-8" d="M190.29,404.09H25.79c-4.23,0-4.77-.53-4.77-4.7,0-5.74,0-11.48,0-17.23,0-3.19.82-4,3.92-4q165.26,0,330.5,0c2,0,2.71.49,2.67,2.61-.13,6.82-.16,13.65,0,20.47.07,2.48-.74,3-3.08,3Q272.66,404,190.29,404.09Z"/><path class="cls-31" d="M388.35,378.12H415c3.5,0,4.44.94,4.45,4.41,0,5.82,0,11.64,0,17.46,0,3-1,4.09-4,4.09-18,0-36.08,0-54.12.05-2,0-2.35-.68-2.32-2.46.08-7.06.09-14.13,0-21.2,0-1.87.52-2.41,2.39-2.39C370.39,378.17,379.37,378.12,388.35,378.12Z"/><path class="cls-32" d="M80,357.36a2.34,2.34,0,0,1-2.59,2.28,2.26,2.26,0,1,1,.24-4.5A2.32,2.32,0,0,1,80,357.36Z"/><path class="cls-43" d="M204.86,357.55c0,1.7-.78,2.79-2.29,2.87s-2.42-1-2.45-2.56.57-2.66,2.27-2.7S204.72,356.16,204.86,357.55Z"/><path class="cls-34" d="M161.38,357.11a1.92,1.92,0,0,1,1.15-1.81,1.82,1.82,0,0,1,2.25.36c.25.28.58.77.49,1-.35,1-1.24.4-1.89.48A11.42,11.42,0,0,1,161.38,357.11Z"/><path class="cls-34" d="M86.91,357.23c-.63-.25-1.76.45-1.83-.56s.82-1.52,1.86-1.55,2,.48,1.92,1.44C88.79,357.83,87.54,356.9,86.91,357.23Z"/><path class="cls-35" d="M59.31,357.83c.61.36,1.88-.24,1.75,1.11A1.85,1.85,0,0,1,59,360.58c-.85,0-1.71-.33-1.68-1.36C57.34,358,58.46,358.08,59.31,357.83Z"/><path class="cls-44" d="M191.44,357.79c-.13,1.65-1,2.68-2.49,2.64a2.47,2.47,0,0,1-2.53-2.77,2.37,2.37,0,0,1,2.51-2.5C190.7,355.16,191.31,356.33,191.44,357.79Z"/><path class="cls-45" d="M64.35,95.74c-1.24-.91-.85-2-.93-3s-.33-2.12-1.57-2.19c-1.42-.07-1.3,1.13-1.46,2.13s.65,3-.64,3c-1.54,0-.7-2-.74-3.09-.13-3.17,1.27-4.15,4.33-3.1a2.77,2.77,0,0,0,2.08,0c2-.75,3.37.24,3.53,2.37a1.07,1.07,0,0,1,0,.25c-.23,1.24.56,3.51-.57,3.51-1.77,0-.57-2.09-.84-3.24-.2-.83-.14-1.75-1.24-1.86s-1.47.77-1.62,1.58C64.47,93.28,64.45,94.52,64.35,95.74Z"/><path class="cls-45" d="M43.21,96.61c1.49-.53,4,1.34,4.77-1.86a9.74,9.74,0,0,1-1.9.65,3,3,0,0,1-3.14-1.54,2.7,2.7,0,0,1,.13-3.26c.81-1,1.91-2,3.16-1.24,1,.64,2.88-.79,3.08,1,.26,2.34.7,5-1.18,6.87-1.19,1.22-2.89,1-4.43.32A.72.72,0,0,1,43.21,96.61Z"/><path class="cls-45" d="M27,96.24c1.45-3.2,2.59-5.82,3.81-8.4.57-1.19,1.34-1.22,1.92,0,1.07,2.24,2.06,4.51,3.08,6.77.18.38.36.83-.06,1.11s-.74,0-1-.35c-2.22-2.21-3.93-2.12-6.14.25C28.34,95.82,28,95.85,27,96.24Z"/><path class="cls-46" d="M76.59,94.57a3.25,3.25,0,0,1-4.39,1A3,3,0,0,1,70.57,92a3.27,3.27,0,0,1,3-2.84A2.85,2.85,0,0,1,76.52,91c.63,1.24.56,2.09-1.15,2a2.67,2.67,0,0,0-.49,0c-.87.13-1.84-.33-2.61.32-.31.25,0,.62.22.86.86,1,1.87.77,2.92.31C75.6,94.42,75.87,94.52,76.59,94.57Z"/><path class="cls-47" d="M57,92.57C57,96,57,96,53.63,96c-2.35,0-2.68-1.63-2.58-3.38.06-1-.75-2.88.69-3s.61,1.73.7,2.68c.11,1.14.18,2.35,1.54,2.43s1.5-1.15,1.6-2.29c.08-1-.51-2.85.6-2.77C57.78,89.82,56.59,91.72,57,92.57Z"/><path class="cls-48" d="M78.43,92.9c0-3.49.3-3.93,3.42-3.75,2.27.13,2.69,1.93,2.54,3.81-.08,1,.64,2.7-.65,2.74-1.53,0-.53-1.69-.78-2.61-.13-.47,0-1-.1-1.48a1.3,1.3,0,0,0-1.42-1.12A1.33,1.33,0,0,0,80,91.58c-.1.4,0,.84-.12,1.23-.26,1,.66,2.91-.78,2.87S78.83,93.72,78.43,92.9Z"/><path class="cls-48" d="M90.12,90c-1.23.5-2.35.57-2.24,2.08s0,2.84,2.6,3.15c-1.79.87-3,1.1-3.49-.24a12,12,0,0,1-.51-6.68c.11-.44.26-.8.76-.8a.57.57,0,0,1,.64.6C87.78,89.49,89.07,89.25,90.12,90Z"/><path class="cls-47" d="M37.51,92.5c0-3.2.08-3.28,3.09-3.07.22,0,.55.1.64.26.27.48-.12.73-.49.92A3.33,3.33,0,0,0,39,94.1c0,.63.38,1.76-.76,1.7s-.59-1.15-.67-1.82A12.13,12.13,0,0,1,37.51,92.5Z"/><path class="cls-4" d="M389.9,94.76c-.83.16-1.38.4-1.91-.37-1.2-1.73-2.66-1.66-3.88-.06-.47.6-.93.74-1.43.53-.68-.27-.17-.85,0-1.22.72-1.75,1.46-3.5,2.28-5.21.67-1.39,1.53-1.46,2.21,0C388.09,90.43,388.93,92.5,389.9,94.76Z"/><path class="cls-6" d="M378.38,95c-2.25.11-3.52-.72-4.14-2.36a3.52,3.52,0,0,1,1-4.09,3.73,3.73,0,0,1,4.37-.67c.43.21,1,.43.83,1a.86.86,0,0,1-1.39.49,2,2,0,0,0-2.85.53,2.15,2.15,0,0,0,0,2.77,2.05,2.05,0,0,0,2.89.45c.53-.29,1-.26,1.28.23.45.78-.34,1-.77,1.24A4.39,4.39,0,0,1,378.38,95Z"/><path class="cls-49" d="M399,91c.64-.94-1.1-3.2.86-3.26,1.47,0,.67,2.2.65,3.36,0,1.75.28,2.7,2.28,2.37.55-.09,1.5-.33,1.48.74s-.94.7-1.52.73C399,95.15,399,95.14,399,91Z"/><path class="cls-4" d="M391.82,90.8c.48-.91-.86-3.09.83-3.08s.77,2.17.73,3.31c-.06,1.87.41,2.76,2.41,2.42.51-.09,1.22-.2,1.24.72s-.66.72-1.2.78C391.82,95.33,391.82,95.33,391.82,90.8Z"/><path class="cls-45" d="M64,196c-.87-1.25-.48-2.34-.56-3.34s-.33-2.11-1.55-2.19c-1.42-.09-1.29,1.11-1.49,2.09s.83,3-.83,3c-1.18,0-.52-2-.55-3-.1-3.26,1.27-4.23,4.47-3.1a2.7,2.7,0,0,0,2.06-.12c1.85-.63,3.23.33,3.42,2.3a2.62,2.62,0,0,1,0,.74c-.25,1.12.61,3.19-.64,3.2-1.51,0-.55-2-.76-3.1-.18-.9,0-2-1.29-2s-1.41,1-1.66,1.85C64.29,193.34,64.85,194.56,64,196Z"/><path class="cls-45" d="M42.85,196.39c2.07-.15,4.31,1.3,5.15-1.64-1-.12-1.51.7-2.35.6a3.25,3.25,0,0,1-2.8-1.77,2.71,2.71,0,0,1,.33-3.24c.8-.89,2-1.92,3-1.1s3.08-1.06,3.21,1.14.69,5-1.35,6.81c-1.26,1.11-3,.88-4.46.1C43.35,197.2,43.26,196.94,42.85,196.39Z"/><path class="cls-45" d="M27,196c1.37-3,2.49-5.59,3.68-8.12.6-1.28,1.38-1.43,2,0,1.06,2.23,2.06,4.5,3.07,6.76.18.39.27.86-.18,1.07-.21.09-.63-.11-.85-.3-2.67-2.3-3.81-2.26-6.33.21C28.26,195.74,27.88,195.73,27,196Z"/><path class="cls-46" d="M76.6,194.46a3.27,3.27,0,0,1-4.41,1,3,3,0,0,1-1.62-3.53,3.25,3.25,0,0,1,3-2.83,2.82,2.82,0,0,1,2.92,1.84c.64,1.26.53,2.09-1.16,2a2.67,2.67,0,0,0-.49,0c-.87.13-1.84-.34-2.6.32-.31.26,0,.62.22.86.87,1,1.88.77,2.92.31C75.6,194.31,75.87,194.41,76.6,194.46Z"/><path class="cls-47" d="M56.9,192.58c1.09,3.24-1.08,3.18-3.08,3.28-2.48.13-2.88-1.55-2.77-3.43.05-1-.72-2.84.74-2.89,1.28,0,.57,1.76.65,2.72.11,1.15.22,2.34,1.59,2.37s1.44-1.21,1.55-2.34c.09-1-.54-2.84.65-2.73C57.72,189.71,56.64,191.62,56.9,192.58Z"/><path class="cls-48" d="M78.43,192.38c0-3.09.28-3.48,3.4-3.35,2.11.08,2.61,1.71,2.59,3.54a2.08,2.08,0,0,1,0,.5c-.2.89.52,2.52-.64,2.53-1.59,0-.63-1.68-.8-2.6-.19-1.1.24-2.56-1.5-2.6s-1.53,1.38-1.58,2.53a2.66,2.66,0,0,1,0,.49c-.2.79.53,2.24-.76,2.21s-.49-1.46-.67-2.26A4.09,4.09,0,0,1,78.43,192.38Z"/><path class="cls-48" d="M89.84,190c-1.31.26-2.13.84-2,2.39.15,1.34,0,2.61,2.08,2.78-1.31.78-2.59,1.1-3-.41a11.77,11.77,0,0,1-.46-6.45c.11-.41.17-.84.68-.89a.65.65,0,0,1,.76.75C87.79,189.54,89.36,189,89.84,190Z"/><path class="cls-47" d="M41.53,189.61c-2.27,1.29-2.79,3.2-2.6,5.45a.59.59,0,0,1-.57.66.67.67,0,0,1-.8-.7c0-1.65-.46-3.47.11-4.88S40.07,189.93,41.53,189.61Z"/><path class="cls-4" d="M389.88,194.63c-.84.2-1.36.35-2-.51-1.11-1.54-2.63-1.55-3.77,0-.44.61-.88.83-1.39.61-.82-.36-.16-1,0-1.4.65-1.6,1.35-3.18,2-4.77.26-.6.42-1.26,1.32-1.24s.91.59,1.14,1.11Z"/><path class="cls-6" d="M378.38,194.85c-2.25.11-3.52-.73-4.14-2.36a3.51,3.51,0,0,1,1-4.09,3.74,3.74,0,0,1,4.38-.67c.42.21,1,.43.82,1a.86.86,0,0,1-1.39.49,2,2,0,0,0-2.85.53,2.11,2.11,0,0,0-.1,2.56,2,2,0,0,0,3,.66c.54-.29,1-.26,1.28.23.45.78-.34,1-.78,1.24A4.63,4.63,0,0,1,378.38,194.85Z"/><path class="cls-49" d="M399,191.11c0-.91,0-1.82,0-2.74,0-.52.08-1,.81-1s.73.54.75,1a12.63,12.63,0,0,1,0,1.74c-.19,2-.12,3.7,2.68,3.15.48-.09,1,0,1,.71s-.48.77-1,.77a23,23,0,0,0-2.49,0c-1.37.15-2-.28-1.81-1.75A16.48,16.48,0,0,0,399,191.11Z"/><path class="cls-4" d="M391.82,191.22c0-.83,0-1.65,0-2.47,0-.55-.11-1.27.73-1.3,1,0,.86.76.89,1.4,0,.33,0,.66,0,1,0,1.86-.62,4.23,2.74,3.49a.64.64,0,0,1,.84.63c.05.65-.27.87-.86.87-1,0-2-.06-3,0s-1.48-.35-1.39-1.41C391.87,192.7,391.82,192,391.82,191.22Z"/><path class="cls-45" d="M63.93,295.93c-.79-1.54-.36-2.73-.55-3.86-.16-1-.57-1.84-1.71-1.77s-1.23.95-1.25,1.83a.68.68,0,0,1,0,.25c-.36,1.06.77,3.08-.84,3-1.24,0-.52-2.11-.57-3.26-.11-2.79,1.34-3.88,4.06-3a3.29,3.29,0,0,0,2.54.07,2.33,2.33,0,0,1,3.33,2.13,29.18,29.18,0,0,1,0,3.24c0,.49,0,1.09-.73,1s-.66-.64-.68-1.14c0-.75,0-1.5,0-2.25s0-1.78-1.14-1.91-1.48.87-1.75,1.74C64.28,293.16,64.85,294.46,63.93,295.93Z"/><path class="cls-45" d="M43.21,296.38c1.5-.52,4,1.35,4.77-1.85a10.67,10.67,0,0,1-1.91.64,2.93,2.93,0,0,1-3.13-1.55,2.69,2.69,0,0,1,.13-3.25c.82-1,1.92-2,3.17-1.23,1,.64,2.88-.81,3.07.95.26,2.34.7,5-1.18,6.87-1.2,1.22-2.9,1-4.44.31A.72.72,0,0,1,43.21,296.38Z"/><path class="cls-45" d="M27.07,295.79c1.34-3,2.49-5.6,3.71-8.18.56-1.18,1.33-1.23,1.92,0,1.07,2.24,2.06,4.51,3.08,6.77.17.38.35.8-.06,1.12s-.59.05-.87-.17c-3.1-2.41-3.8-2.38-6.5.21C28.2,295.67,27.89,295.63,27.07,295.79Z"/><path class="cls-46" d="M76.32,294.56c-1,1.58-2.45,1.39-3.81.92a3,3,0,0,1-2-3.59A3.22,3.22,0,0,1,73.49,289c1.53-.21,2.46.65,3.09,1.94s.42,1.93-1.11,1.86a5.45,5.45,0,0,0-1,0c-.76.13-1.66-.4-2.26.44-.08.12.08.47.21.65a1.86,1.86,0,0,0,2.42.6C75.3,294.29,75.75,294,76.32,294.56Z"/><path class="cls-47" d="M56.89,292.43c1.15,3.27-1,3.21-3,3.32-2.48.13-2.91-1.53-2.8-3.41.06-1-.73-2.86.72-2.91s.58,1.74.67,2.7c.11,1.14.2,2.34,1.57,2.39s1.47-1.19,1.57-2.32c.09-1-.53-2.85.63-2.74C57.74,289.59,56.62,291.5,56.89,292.43Z"/><path class="cls-48" d="M78.43,292.29c0-3.14.23-3.48,3.38-3.38,2.11.07,2.72,1.7,2.57,3.53-.08,1.05.7,2.94-.6,3-1.5.08-.66-1.78-.81-2.78s.09-2.33-1.48-2.38-1.58,1.14-1.6,2.26a2.08,2.08,0,0,1,0,.5c-.22.87.57,2.47-.74,2.46s-.48-1.6-.7-2.47A3,3,0,0,1,78.43,292.29Z"/><path class="cls-48" d="M89.82,289.91c-1.13.27-2.1.6-1.94,2.15s.12,2.68,2,3.1c-1.21.69-2.49,1-2.92-.54a11.9,11.9,0,0,1-.45-6.46c.12-.42.22-.83.71-.86a.66.66,0,0,1,.73.79C87.79,289.45,89.41,288.84,89.82,289.91Z"/><path class="cls-47" d="M41.67,289.59c-2.06,1.26-3.09,2.86-2.71,5.13a.69.69,0,0,1-.63.88c-.68,0-.78-.45-.8-1,0-.74,0-1.48,0-2.22C37.51,289,37.51,289,41.67,289.59Z"/><path class="cls-4" d="M382.15,294.7c1-2.34,1.82-4.48,2.81-6.54.67-1.39,1.55-1.38,2.21.07q1.23,2.7,2.35,5.45c.11.28.57.79-.09,1-.36.09-1,.08-1.16-.14-1.53-2.24-2.95-2.27-4.49,0C383.62,294.76,382.88,294.63,382.15,294.7Z"/><path class="cls-6" d="M377.85,294.76a3.45,3.45,0,0,1-3.54-2.23,3.55,3.55,0,0,1,.76-4.13,3.7,3.7,0,0,1,4.12-.94c.53.2,1.48.33,1.17,1.24s-1,.63-1.64.29a1.89,1.89,0,0,0-2.6.73,2.18,2.18,0,0,0,0,2.56,2,2,0,0,0,2.38.86c.74-.18,1.73-1.05,2,.26.14.77-1,1.16-1.83,1.32A4.53,4.53,0,0,1,377.85,294.76Z"/><path class="cls-49" d="M401.4,294.71c-2,.49-2.76-.41-2.42-2.61.15-1,0-2,0-3,.06-.63-.49-1.73.69-1.76,1.38,0,.68,1.19.85,1.88a1.39,1.39,0,0,1,0,.5c-.06,2-.49,4.21,2.81,3.5a.66.66,0,0,1,.89.61c.06.66-.31.87-.89.87Z"/><path class="cls-4" d="M394.22,294.72c-2.23.69-2.62-.69-2.42-2.77.11-1.15,0-2.31,0-3.46,0-.58,0-1.23.87-1.17.65.05.74.55.75,1.06a14.25,14.25,0,0,1,0,1.73c-.18,2-.14,3.67,2.65,3.11.52-.11,1,.07,1,.77s-.52.72-1,.73Z"/><path class="cls-3" d="M26.77,488c3.39-1.93,3.39-1.93,3.4,1.16,0,1.4.07,2.81,0,4.2-.05.7.55,2-.63,2-1-.05-.42-1.35-.49-2.08-.1-1,0-2,0-3C28.93,489.11,29.69,487.37,26.77,488Z"/><path class="cls-4" d="M389.89,494.31c-.8.15-1.36.42-1.89-.36-1.2-1.76-2.66-1.65-3.89-.09-.46.59-.94.79-1.41.55-.76-.39-.11-1,.07-1.42.69-1.68,1.39-3.36,2.16-5,.66-1.39,1.53-1.48,2.21,0C388.11,490,389,492.15,389.89,494.31Z"/><path class="cls-6" d="M378.13,487a8.59,8.59,0,0,1,1.38.42c.47.21,1.24.37.81,1.19a.83.83,0,0,1-1.25.36,2,2,0,0,0-3,.66,2.11,2.11,0,0,0,.07,2.56,2,2,0,0,0,2.87.53c.65-.35,1.2-.31,1.41.36s-.54,1-1,1.18a3.81,3.81,0,0,1-4.18-.6,3.57,3.57,0,0,1-1-4.08C374.78,487.85,376.13,487.12,378.13,487Z"/><path class="cls-49" d="M399,490.82c0-1,0-2,0-3,0-.46.21-.76.74-.76a.69.69,0,0,1,.78.74,25,25,0,0,1,0,3.24c-.16,1.5.3,2.14,1.89,2,.61-.06,1.76-.51,1.78.64,0,1.39-1.21.63-1.9.82-.23.06-.5,0-.74,0-2.28.48-2.95-.58-2.59-2.67a6.68,6.68,0,0,0,0-1Z"/><path class="cls-4" d="M391.82,490.74c.51-1-1-3.4.92-3.43,1.49,0,.6,2.35.65,3.61.05,1.48.25,2.32,2,2.09.56-.07,1.71-.51,1.61.79s-1.14.64-1.76.67C391.82,494.6,391.82,494.57,391.82,490.74Z"/><path class="cls-45" d="M64,395.75c-.86-1.24-.48-2.34-.56-3.34s-.32-2.12-1.54-2.21c-1.43-.09-1.33,1.11-1.49,2.11s.65,3-.62,3c-1.58,0-.72-2-.76-3.06-.13-3.19,1.27-4.2,4.31-3.12a3.07,3.07,0,0,0,2.31-.08,2.3,2.3,0,0,1,3.27,2.19c0,1.4.72,3.95-.5,4-1.8.07-.5-2.23-.86-3.45-.23-.74-.26-1.52-1.21-1.62s-1.26.61-1.58,1.32C64.2,392.73,64.91,394.23,64,395.75Z"/><path class="cls-45" d="M43.18,396.42c4.14-.62,4.14-.62,4.72-2a9.81,9.81,0,0,1-1.82.62,3,3,0,0,1-3.14-1.54,2.7,2.7,0,0,1,.13-3.26c.81-1,1.91-2,3.16-1.24,1,.64,2.88-.8,3.08,1,.26,2.33.7,5-1.18,6.87-1.19,1.22-2.89,1-4.43.32A.69.69,0,0,1,43.18,396.42Z"/><path class="cls-45" d="M27.1,395.62c1.29-2.87,2.41-5.42,3.58-7.95.55-1.18,1.32-1.61,2-.14,1.08,2.23,2.06,4.51,3.08,6.76.18.39.31.85-.12,1.1-.19.1-.63-.06-.85-.24-3-2.4-3.58-2.38-6.52.29C28.16,395.57,27.84,395.52,27.1,395.62Z"/><path class="cls-46" d="M76.61,394.24a3.3,3.3,0,0,1-4.42,1,3,3,0,0,1-1.62-3.54,3.26,3.26,0,0,1,3-2.83,2.83,2.83,0,0,1,2.92,1.85c.64,1.27.52,2.08-1.16,2a2.78,2.78,0,0,0-.5,0c-.87.14-1.83-.34-2.59.33-.31.27,0,.63.23.86.87,1,1.88.75,2.92.3C75.61,394.08,75.88,394.18,76.61,394.24Z"/><path class="cls-47" d="M57,392.22c0,3.44,0,3.43-3.34,3.42-2.34,0-2.58-1.6-2.63-3.37a5.46,5.46,0,0,1,0-1c.14-.74-.44-2,.71-2s.62,1.26.74,2c.09.57,0,1.17.07,1.73.16.9.7,1.59,1.67,1.47a1.43,1.43,0,0,0,1.32-1.54,1.38,1.38,0,0,1,0-.5c.35-1-.79-3,.87-3C57.57,389.37,56.66,391.36,57,392.22Z"/><path class="cls-48" d="M78.43,392.17c0-3.13.23-3.47,3.38-3.37,2.11.07,2.62,1.69,2.61,3.53a2,2,0,0,1,0,.49c-.2.89.51,2.53-.62,2.54-1.61,0-.65-1.66-.82-2.57-.2-1.09.25-2.56-1.48-2.62s-1.56,1.36-1.6,2.51a1,1,0,0,1,0,.25c-.24.86.56,2.47-.75,2.46s-.48-1.61-.7-2.48A3,3,0,0,1,78.43,392.17Z"/><path class="cls-48" d="M90,395.21c-1.26.56-2.18.63-2.93-.34s-1-6.3-.48-7.15,1.21-.85,1.28.11c.1,1.35,1.3,1,1.9,1.6C87.19,391.18,87.19,393.44,90,395.21Z"/><path class="cls-47" d="M41.67,389.48c-2.06,1.26-3.09,2.86-2.71,5.13a.69.69,0,0,1-.63.88c-.68.05-.78-.45-.8-1,0-.74,0-1.48,0-2.22C37.51,388.92,37.51,388.92,41.67,389.48Z"/><path class="cls-4" d="M382.25,394.34c.89-2.1,1.72-4.24,2.72-6.3.67-1.39,1.55-1.36,2.21.08.79,1.73,1.56,3.46,2.27,5.22.13.33.7.91,0,1.19-.33.12-1,.08-1.15-.14-1.54-2.26-3-2.23-4.48,0C383.54,394.78,382.86,394.68,382.25,394.34Z"/><path class="cls-6" d="M378.23,388.68a2,2,0,0,0-2.13.95,2.21,2.21,0,0,0,0,2.57,1.92,1.92,0,0,0,2.16.87,14.1,14.1,0,0,1,1.38-.48c.23,0,.57.27.76.5s-.09.58-.29.8c-1.06,1.15-3.7,1-5-.28a3.82,3.82,0,0,1,0-5.36c1.32-1.31,3.95-1.55,5-.44.2.21.59.44.26.81s-.51.57-.74.54A6,6,0,0,1,378.23,388.68Z"/><path class="cls-49" d="M401.4,394.6c-2.28.71-2.6-.73-2.42-2.8.12-1.23,0-2.49,0-3.73,0-.41.06-.82.63-.87s.9.27.92.85,0,1.17,0,1.74c-.1,2-.38,4,2.75,3.33.5-.12,1,.07,1,.78s-.59.68-1.08.7Z"/><path class="cls-4" d="M391.82,390.86c0-.74,0-1.48,0-2.22s-.18-1.49.86-1.42.72.92.75,1.53a11.9,11.9,0,0,1,0,2c-.17,1.61.05,2.76,2.14,2.39.53-.1,1.46-.37,1.44.74s-.92.7-1.47.73C391.82,394.81,391.82,394.79,391.82,390.86Z"/><path class="cls-50" d="M45.86,90.43A1.9,1.9,0,1,1,46,94.22,1.82,1.82,0,0,1,44,92.3C44,91.11,44.55,90.48,45.86,90.43Z"/><path class="cls-51" d="M30.33,92.25a6.69,6.69,0,0,1,1.5-3.13c.43,1.13,1.61,2.06,1.05,3.12C32.58,92.8,31.24,92.54,30.33,92.25Z"/><path class="cls-50" d="M72.12,92c.55-1.53,1.38-1.78,2.44-1.43.38.12.86.57.64.88C74.45,92.53,73.35,91.82,72.12,92Z"/><path class="cls-52" d="M385.9,89.61c.61,1,1.27,1.5.63,2.23a.91.91,0,0,1-.92,0C384.7,91.17,385.68,90.67,385.9,89.61Z"/><path class="cls-50" d="M48,192.25c-.33,1.19-1,2-2.25,1.84a1.81,1.81,0,0,1-1.73-2c.07-1.38.89-1.86,2.13-1.73A2,2,0,0,1,48,192.25Z"/><path class="cls-51" d="M31.75,188.73l1.52,3.35c-1.05.36-2.4.6-2.68.06C30,191.07,31.2,190.15,31.75,188.73Z"/><path class="cls-50" d="M72.09,191.8c.65-1.41,1.47-1.76,2.63-1.23.38.17.76.72.47,1C74.31,192.26,73.27,191.8,72.09,191.8Z"/><path class="cls-52" d="M386,189.48c.48,1,1.26,1.53.53,2.26a1,1,0,0,1-.93,0C384.74,191,385.64,190.54,386,189.48Z"/><path class="cls-50" d="M48,292.13c-.32,1.19-1,2-2.24,1.85A1.81,1.81,0,0,1,44,292c.07-1.38.88-1.87,2.12-1.74A2,2,0,0,1,48,292.13Z"/><path class="cls-51" d="M31.73,288.64l1.52,3.27a4,4,0,0,1-3.05.06Z"/><path class="cls-50" d="M72.12,291.8c.55-1.53,1.38-1.78,2.44-1.44.39.13.86.58.65.88C74.46,292.31,73.35,291.59,72.12,291.8Z"/><path class="cls-52" d="M386,289.85c.71,0,.57.67.78,1.06s0,.77-.5.78-1.11.18-1-.61C385.36,290.65,385.4,290.08,386,289.85Z"/><path class="cls-52" d="M386,489.62c.71,0,.57.67.78,1.06s0,.78-.5.79-1.11.18-1-.62C385.36,490.42,385.4,489.86,386,489.62Z"/><path class="cls-50" d="M46,393.94c-1.09-.23-2-.63-2-2a1.6,1.6,0,0,1,1.79-1.83c1.24,0,2.11.61,2.12,1.87C47.91,393.09,47.08,393.69,46,393.94Z"/><path class="cls-51" d="M33.38,392h-3a6.85,6.85,0,0,1,1.48-3.27Z"/><path class="cls-50" d="M72.12,391.52c.66-1.4,1.48-1.66,2.53-1.22.37.16.82.65.54.93C74.35,392.06,73.28,391.61,72.12,391.52Z"/><path class="cls-52" d="M386,391.61c-.38-.06-.95,0-.76-.61s.06-1.34.87-1.2c.28.05.54.75.65,1.19C387,391.59,386.42,391.55,386,391.61Z"/></g></g></g></svg>