<svg xmlns="http://www.w3.org/2000/svg" viewBox="0 0 323 173"><defs><style>.cls-1{fill:#fff;}.cls-2{fill:#e0e0df;}.cls-3{fill:#c7c9ca;}.cls-4{fill:#23262b;}.cls-5{fill:#22262a;}.cls-6{fill:#23272b;}.cls-7{fill:#24272b;}.cls-8{fill:#24272c;}.cls-9{fill:#2a2d31;}.cls-10{fill:#24282c;}.cls-11{fill:#25292d;}.cls-12{fill:#2b2f32;}.cls-13{fill:#2f3236;}.cls-14{fill:#36393c;}.cls-15{fill:#fdfdfd;}.cls-16{fill:#fcfbfb;}.cls-17{fill:#f2f1f1;}.cls-18{fill:#f8f8f8;}.cls-19{fill:#1b8754;}.cls-20{fill:#272a2e;}.cls-21{fill:#262a2e;}.cls-22{fill:#303337;}.cls-23{fill:#26292d;}.cls-24{fill:#323539;}.cls-25{fill:#2c2f33;}.cls-26{fill:#282c30;}.cls-27{fill:#2b2e32;}.cls-28{fill:#292d31;}.cls-29{fill:#33363a;}.cls-30{fill:#2e3135;}.cls-31{fill:#3a3d40;}.cls-32{fill:#393c40;}.cls-33{fill:#46494c;}.cls-34{fill:#f2f7f3;}.cls-35{fill:#f5f9f6;}.cls-36{fill:#f3f7f4;}.cls-37{fill:#f3f8f4;}.cls-38{fill:#f1f6f3;}.cls-39{fill:#f3f7f3;}.cls-40{fill:#f1f6f2;}.cls-41{fill:#f7faf8;}.cls-42{fill:#e5eee8;}.cls-43{fill:#fafcfb;}.cls-44{fill:#fdfefe;}.cls-45{fill:#f8fbf9;}.cls-46{fill:#fefefe;}.cls-47{fill:#dfeae2;}.cls-48{fill:#fcfcfc;}.cls-49{fill:#e0dfdf;}.cls-50{fill:#f9f8f8;}.cls-51{fill:#f6f6f5;}.cls-52{fill:#e8e7e7;}.cls-53{fill:#288b59;}.cls-54{fill:#358f60;}.cls-55{fill:#4d976d;}.cls-56{fill:#419366;}.cls-57{fill:#2b8c5b;}</style></defs><g id="Layer_2" data-name="Layer 2"><g id="Layer_1-2" data-name="Layer 1"><g id="_4PNU4N.tif" data-name="4PNU4N.tif"><path class="cls-1" d="M.05,173Q.05,87.5,0,2C0,.33.33,0,2,0Q161.5.08,321,0c1.7,0,2,.33,2,2q-.09,84.47,0,168.92c0,1.71-.34,2-2,2Q160.51,172.93.05,173Z"/><path class="cls-2" d="M161.27,71.8H301.48c4.35,0,5.5,1.13,5.5,5.39v79c0,4.16-1.17,5.34-5.29,5.34H20.77c-4.08,0-5.25-1.2-5.25-5.39v-79c0-4.16,1.17-5.34,5.29-5.34Z"/><ellipse class="cls-3" cx="161.25" cy="54.36" rx="205.65" ry="0.34"/><path class="cls-4" d="M229.35,32.58c1.21-.14,2.28-.34,3.41.64a4.38,4.38,0,0,0,4.91.35c1.65-.76,1.61-2.32,1.45-4.13-1.45,1.08-2.83,2.06-4.6,2a5.42,5.42,0,0,1-4.43-2.37c-2.19-3.1-1.75-8.41.9-10.78,2.26-2,5-1.82,8.12.74-.09-1.51.49-2.15,2-2,1.76.21,1,1.49,1,2.26.09,3.81.07,7.63,0,11.44a5.37,5.37,0,0,1-4.85,5.62C233.53,37,230.51,35.63,229.35,32.58Z"/><path class="cls-5" d="M24.4,31.77c-2.78-.24-5.57-.64-7-3.66-.32-.67-.77-1.63-.1-1.95s2.08-.7,2.64.41c1.32,2.64,3.63,2.54,6,2.34a2.86,2.86,0,0,0,2.9-2.58c.17-1.54-.87-2.44-2.27-2.84s-3.06-.71-4.57-1.14c-3.17-.93-4.65-2.71-4.56-5.39s1.76-4.46,4.79-5.25c3.53-.91,7.4.44,8.71,3.14.32.65,1.17,1.69.18,2.14-.75.34-2,.73-2.75-.69-1.15-2.13-3.13-2.45-5.37-1.94-1.34.31-2.36.86-2.48,2.35s.87,2.41,2.28,2.81c1,.29,2.07.57,3.12.83,4.54,1.11,6.32,2.87,6,5.95C31.6,29.66,28.82,31.71,24.4,31.77Z"/><path class="cls-6" d="M160.78,21.46c0-2.49.16-5-.05-7.46-.17-2,.8-2.5,2.39-2.45,2.06.06,4.13.2,6.18.42a6,6,0,0,1,5.39,6.1,6.23,6.23,0,0,1-5.29,6.48c-1.8.31-4.19-.68-5.23.62-.87,1.08-.38,3.33-.32,5,0,1.29-.69,1.22-1.57,1.24s-1.55-.08-1.52-1.3C160.84,27.26,160.78,24.36,160.78,21.46Z"/><path class="cls-6" d="M185.18,29.09c-1.89,2.07-3.51,2.68-5.46,2.46a4,4,0,0,1-3.94-3.75c-.29-2.05,1-3.75,3.27-4.3,1.28-.31,2.62-.33,3.93-.53.72-.11,1.87.44,2-.83a2.25,2.25,0,0,0-1.5-2.58c-1.38-.39-2.81-.47-3.89.81-.26.31-.47.85-.77.9a3.37,3.37,0,0,1-2.15-.09c-.57-.39,0-1.21.28-1.76,1.06-2,4.12-3,7.06-2.39a4.54,4.54,0,0,1,3.88,4.73c.09,2.65,0,5.3,0,8,0,.72.39,1.71-1,1.75C185.64,31.5,184.71,31.4,185.18,29.09Z"/><path class="cls-5" d="M87.18,25c-1,0-2,.07-3,0-2.26-.2-2.07.93-1.33,2.36a3.74,3.74,0,0,0,5.55,1.25c.4-.28.64-.8,1-1a2,2,0,0,1,2.33,0c.61.6-.12,1.34-.58,1.9-1.8,2.19-4.22,2.48-6.78,2-3.5-.59-5.54-4.15-5-8.51a6.38,6.38,0,0,1,6.91-6c3.44.11,5.81,2.66,6.07,6.29.1,1.46-.33,1.91-1.75,1.78C89.52,24.9,88.35,25,87.18,25Z"/><path class="cls-7" d="M47,24.33c0,1.9,0,3.81,0,5.71,0,.5.34,1.32-.57,1.35s-2.12.45-2.22-.32c-.33-2.41-1.12-.57-1.62-.25-3.31,2.11-7.25.56-7.73-3.32-.37-3-.16-6.12-.26-9.18,0-1.24.7-1.22,1.61-1.28,1.16-.09,1.39.44,1.37,1.45,0,2.4,0,4.81,0,7.21.05,2,.84,3.44,3.08,3.4s3.31-1.32,3.35-3.49S44,21,44,18.66c0-1.12.25-1.63,1.5-1.64S47,17.48,47,18.61C46.93,20.52,47,22.42,47,24.33Z"/><path class="cls-6" d="M216.57,19.32c2.27-2.59,4.49-2.92,6.82-1.94s2.71,3.17,2.73,5.42,0,4.81,0,7.22c0,1-.19,1.52-1.35,1.45-1-.06-1.75,0-1.68-1.39.1-2.4,0-4.81,0-7.22,0-1.86-.61-3.27-2.76-3.41a3.3,3.3,0,0,0-3.65,3.22c-.15,2.4-.11,4.82,0,7.22,0,1.13-.21,1.62-1.48,1.59s-1.56-.37-1.54-1.56c.07-3.73,0-7.47,0-11.21,0-.83-.15-1.65,1.17-1.68S217,17.23,216.57,19.32Z"/><path class="cls-6" d="M142,29.12c-1.54,1.59-2.64,2.35-4.14,2.46-3.1.24-5.25-1.27-5.48-4.36s0-6-.11-8.94c0-1.28.71-1.19,1.59-1.24,1.08-.06,1.46.32,1.43,1.41-.06,2.4,0,4.8,0,7.2,0,1.87.59,3.26,2.72,3.44a3.17,3.17,0,0,0,3.67-3.17c.17-2.39.09-4.8.07-7.2,0-1,0-1.71,1.39-1.71s1.63.58,1.61,1.78c0,3.56,0,7.13,0,10.69,0,.74.62,2-1,2C142.54,31.44,141.16,31.79,142,29.12Z"/><path class="cls-6" d="M114.94,31.67c-2.38-.06-4.27-.35-5.54-2.05-.46-.61-1.23-1.57-.5-2.12a1.82,1.82,0,0,1,2.64.37,3.37,3.37,0,0,0,3.9,1.46c1-.19,1.76-.71,1.8-1.78s-.68-1.43-1.55-1.65c-1.28-.34-2.59-.6-3.83-1-1.75-.62-3.08-1.67-3-3.77a4,4,0,0,1,3-3.82c2.56-1,5.69-.31,7.09,1.51.53.69,1.44,1.69.6,2.35a1.77,1.77,0,0,1-2.72-.68c-.89-1.58-2.36-1.63-3.91-1A1.57,1.57,0,0,0,111.84,21a1.44,1.44,0,0,0,1.07,1.5c.93.32,1.88.61,2.84.86,3.47.91,4.75,2.11,4.52,4.29C120,30,117.68,31.64,114.94,31.67Z"/><path class="cls-6" d="M100.38,16.92c2-.06,3.8.43,5,2.21.43.66,1.13,1.58.14,2.11a1.63,1.63,0,0,1-2.36-.57,2.78,2.78,0,0,0-3.6-1.38A1.87,1.87,0,0,0,98,21a1.58,1.58,0,0,0,1.34,1.58c1.27.37,2.57.64,3.83,1.05,1.72.56,3.23,1.37,3.25,3.54s-1.38,3.49-3.29,4.16c-2.59.92-6.09.18-7.41-1.53-.5-.66-1.49-1.59-.52-2.31a1.82,1.82,0,0,1,2.63.48c1.1,1.74,2.69,1.74,4.38,1.17a1.61,1.61,0,0,0,1.19-1.7A1.48,1.48,0,0,0,102.18,26c-1-.29-1.92-.5-2.88-.76-3.23-.88-4.63-2.35-4.31-4.55S97.37,16.94,100.38,16.92Z"/><path class="cls-6" d="M251.08,31.66c-2.08-.07-3.89-.35-5.09-2-.48-.66-1.52-1.56-.48-2.26a1.81,1.81,0,0,1,2.6.52c1,1.66,2.53,1.7,4.14,1.28a1.7,1.7,0,0,0,1.42-1.78,1.54,1.54,0,0,0-1.37-1.52c-1.35-.36-2.74-.65-4.06-1.11-1.67-.58-2.9-1.69-2.88-3.61a4,4,0,0,1,2.9-3.9c2.46-.91,5.77-.35,7.13,1.37.59.73,1.46,1.8.53,2.51a1.74,1.74,0,0,1-2.65-.82A2.6,2.6,0,0,0,250,19.24c-.88.23-1.57.68-1.67,1.61s.56,1.5,1.41,1.76,1.9.57,2.86.8c2.2.55,4.21,1.26,4,4.12-.14,2.29-1.86,3.75-4.81,4Z"/><path class="cls-6" d="M62.54,21.83c-1.35.3-2.54.46-3.28-1.18a2.58,2.58,0,0,0-2.53-1.27c-2.11-.06-3.2,1.19-3.7,3-.74,2.71.13,5.64,1.95,6.43s3.62.49,4.64-1.49a1.75,1.75,0,0,1,2.54-.7c1,.47.22,1.41-.15,2.09-1.72,3.21-6.74,4-9.76,1.48-2.35-1.94-3.15-6.11-1.8-9.39,1.16-2.8,3.64-4.16,7-3.86C60.33,17.21,62,18.84,62.54,21.83Z"/><path class="cls-6" d="M71.2,31.63c-2.72-.1-4.84-1.19-5.83-3.83-1.12-3-1.1-6,1-8.69,1.81-2.3,4.38-2.53,7-2A5.05,5.05,0,0,1,76.94,20c.3.62,1,1.49.13,1.9-.69.33-2,.6-2.45-.41a3.32,3.32,0,0,0-4.32-1.89c-1.73.48-2.33,2-2.53,3.63-.25,2.05-.12,4,1.67,5.41a3.4,3.4,0,0,0,4.82-.83c.38-.51.47-1.29,1.34-1.24.57,0,1.3-.09,1.66.22s.09,1-.16,1.58A6,6,0,0,1,71.2,31.63Z"/><path class="cls-8" d="M123.8,25.31c0-1.25,0-2.49,0-3.73,0-.95.52-2.3-1.38-2.15-.72.05-.59-.65-.59-1.11s-.1-1.24.52-1.19c1.84.15,1.38-1.13,1.49-2.11.26-2.52,2.15-3.88,4.74-3.52.66.09,1.12.22,1.13,1s0,1.13-.86,1.23c-1,.11-2,.31-2.08,1.66-.06,1-.16,1.88,1.29,1.69,1-.13,1.58.11,1.58,1.3s-.7,1.19-1.47,1.08c-1.39-.18-1.41.61-1.4,1.63,0,2.91-.05,5.81,0,8.71,0,1.3-.33,1.68-1.65,1.7s-1.38-.73-1.36-1.7C123.83,28.29,123.8,26.8,123.8,25.31Z"/><path class="cls-9" d="M148.15,21.47c0-2.65,0-5.31,0-8,0-1,0-1.76,1.38-1.72,1.2,0,1.59.43,1.58,1.6,0,5.56-.06,11.11,0,16.67,0,1.37-.68,1.36-1.7,1.42-1.26.06-1.27-.65-1.26-1.55C148.17,27.11,148.15,24.29,148.15,21.47Z"/><path class="cls-10" d="M200.61,19.16c1-1.45,1.8-2.15,3-2.22.83-.05,1.51,0,1.45,1.1,0,.74.14,1.5-1.06,1.48-2.64,0-3.36,1.65-3.35,3.93s-.06,4.31,0,6.46c.05,1.16-.28,1.57-1.51,1.57s-1.53-.38-1.51-1.55c.07-3.72,0-7.45,0-11.17,0-.74-.37-1.7,1.06-1.73C200,17,200.92,17.1,200.61,19.16Z"/><path class="cls-11" d="M194.21,24.37c0,1.9-.06,3.81,0,5.71.05,1.1-.33,1.41-1.4,1.4s-1.66-.15-1.63-1.47c.09-3.8.07-7.61,0-11.42,0-1.19.38-1.54,1.57-1.57s1.48.57,1.45,1.64C194.17,20.56,194.21,22.47,194.21,24.37Z"/><path class="cls-12" d="M207.34,24.46c0-1.91,0-3.82,0-5.73,0-1,.11-1.71,1.45-1.72s1.53.48,1.51,1.61c0,3.81,0,7.63,0,11.44,0,1.09-.32,1.42-1.41,1.42s-1.63-.33-1.57-1.55C207.41,28.11,207.34,26.28,207.34,24.46Z"/><path class="cls-13" d="M210.59,13.1a1.75,1.75,0,0,1-1.71,1.78,1.6,1.6,0,0,1-1.69-1.48,1.58,1.58,0,0,1,1.53-1.85C209.81,11.41,210.3,12.19,210.59,13.1Z"/><path class="cls-14" d="M192.68,11.5a1.64,1.64,0,0,1,1.73,1.74,1.52,1.52,0,0,1-1.5,1.63,1.56,1.56,0,0,1-1.78-1.59A1.6,1.6,0,0,1,192.68,11.5Z"/><path class="cls-1" d="M161.25,160.5H21.76c-4.59,0-5.24-.67-5.24-5.36V77.91c0-4.35.74-5.11,5-5.11H301c4.19,0,5,.78,5,4.85v78c0,4.08-.8,4.87-5,4.87Z"/><path class="cls-15" d="M239.2,24.27c0,3-1.49,4.79-3.86,4.71-2.21-.07-3.63-1.91-3.67-4.71s1.47-4.82,3.8-4.83S239.22,21.24,239.2,24.27Z"/><path class="cls-16" d="M163.75,18.32c.46-1.61-1.23-4.26,2.51-4s5.42,1.35,5.33,4S169.83,22,166,22.18,164.37,19.67,163.75,18.32Z"/><path class="cls-17" d="M183.17,24.94c.7.28,1.84-.57,1.87,1a3.72,3.72,0,0,1-3.58,3.45c-1.29,0-2.78-.38-2.66-1.94C179,24.62,181.51,25.39,183.17,24.94Z"/><path class="cls-18" d="M85.82,23a4.17,4.17,0,0,1-1,0c-.78-.22-2.09.6-2.29-.57a2.78,2.78,0,0,1,1.61-2.62A3.65,3.65,0,0,1,87,19.45a2.68,2.68,0,0,1,2.27,2.86c-.19,1.36-1.64.37-2.49.64A3.63,3.63,0,0,1,85.82,23Z"/><path class="cls-19" d="M222.88,88.74h61.34c4.63,0,5.79,1.14,5.79,5.67q0,10.57,0,21.16c0,3.7-1.38,5.06-5.15,5.06H160.93c-3.77,0-5.16-1.35-5.17-5q0-10.95,0-21.91c0-3.54,1.42-4.93,5-4.93Z"/><path class="cls-11" d="M122.84,101.08c0,4.53-2,7.41-5.24,7.38s-5.29-3.08-5.22-7.49,2.25-7.21,5.32-7.16S122.82,96.69,122.84,101.08Z"/><path class="cls-20" d="M52.77,105.43c-.64,2.21-2.32,2.81-4.37,2.84A4.29,4.29,0,0,1,44,105.36c-1.63-4.17.88-8.08,4.95-7.76A4.11,4.11,0,0,1,52.43,100c1.31,2.56.72,3.53-2.11,3.52-.92,0-1.84,0-2.75,0-.59,0-1.45-.37-1.67.58a1.85,1.85,0,0,0,.89,1.93,2.67,2.67,0,0,0,3.46,0A2.26,2.26,0,0,1,52.77,105.43Z"/><path class="cls-10" d="M85.55,102.84c0,3.39-1.7,5.38-4.74,5.44-3.2.06-5.06-1.92-5-5.39s1.82-5.31,4.87-5.33S85.52,99.5,85.55,102.84Z"/><path class="cls-7" d="M54.91,102.8c0-1.32,0-2.65,0-4a1.08,1.08,0,0,1,1.74-1c.58,2,1.18.47,1.8.12a3.5,3.5,0,0,1,5.14,2.12c.64,2.35.18,4.77.3,7.16,0,.8-.41.94-1.09,1s-1-.28-1-1c0-1.74,0-3.48,0-5.21-.06-1.43-.55-2.72-2.29-2.63a2.47,2.47,0,0,0-2.46,2.6c-.07,1.24.11,2.5-.08,3.72-.14.85.93,2.39-.92,2.49s-.88-1.54-1-2.37A15.48,15.48,0,0,1,54.91,102.8Z"/><path class="cls-21" d="M37.72,108.27a4.58,4.58,0,0,1-3.44-1.18c-.41-.38-1-.92-.65-1.46a1.21,1.21,0,0,1,1.77-.13,3.52,3.52,0,0,0,2.86,1.17c.8-.12,1.52-.45,1.6-1.28s-.53-1.14-1.24-1.34c-1-.27-2.07-.56-3.08-.91a2.71,2.71,0,0,1-.19-5,5,5,0,0,1,5.56.56c.46.38,1,.91.67,1.44a1.08,1.08,0,0,1-1.73.06,3,3,0,0,0-2.43-1c-.72.07-1.32.31-1.47,1.08s.33,1.22,1,1.43c.55.17,1.11.33,1.67.47,1.83.49,3.75,1,3.27,3.5C41.51,107.88,39.64,108.25,37.72,108.27Z"/><path class="cls-21" d="M69.39,108.25a4.92,4.92,0,0,1-1.59-.32c-.91-.48-2.4-1.08-1.81-2.22s1.67-.22,2.41.48a2.4,2.4,0,0,0,1.87.49c.79,0,1.53-.25,1.69-1.14s-.48-1.31-1.27-1.53c-1-.27-1.91-.5-2.84-.83a2.73,2.73,0,0,1,0-5.22,5,5,0,0,1,5.34.78c.43.38,1,.9.6,1.45a1.14,1.14,0,0,1-1.74,0,2.86,2.86,0,0,0-2.18-1c-.83,0-1.55.26-1.76,1.06-.26,1,.48,1.28,1.24,1.49s1.45.35,2.16.57c1.5.47,2.9,1.24,2.71,3s-1.62,2.76-3.47,2.9C70.4,108.27,70.07,108.25,69.39,108.25Z"/><path class="cls-22" d="M128.39,96.36,125,98.66c-.23-2.24,2.88-5,4.88-4.5.82.19.78.7.78,1.28,0,3.81,0,7.62,0,11.43,0,.92-.23,1.35-1.25,1.34-1.19,0-1.06-.76-1.06-1.51Z"/><path class="cls-20" d="M83,135.89c2,.4,3.07,2.75,5,1.26a3.43,3.43,0,0,0,1.36-3.46c-1.55.76-3.11,1.53-4.73.42A3.61,3.61,0,0,1,82.93,130a3.88,3.88,0,0,1,7.24-.76,7.93,7.93,0,0,1-.37,7.83C88.18,139.7,84.59,139.19,83,135.89Z"/><path class="cls-23" d="M107.16,96.74c-1.65.12-2.32,1.61-3.64,1.79,0-2.1,3.15-4.78,5.08-4.37,1.08.23.7,1,.71,1.53,0,3.64,0,7.27,0,10.91,0,.83.15,1.66-1.18,1.6s-1-.88-1-1.56C107.16,103.36,107.16,100.09,107.16,96.74Z"/><path class="cls-24" d="M87.48,102.88V100.4c0-2.44,0-2.41,2.45-2,.73.14,1.07-.92,1.89-.82.6.08,1.4-.41,1.55.66.12.8-.13,1.15-1.05,1.19-2.16.09-2.68,1.56-2.63,3.43,0,1.41,0,2.82,0,4.23,0,.93-.47,1.07-1.25,1.07s-1-.4-1-1.09C87.5,105.7,87.48,104.29,87.48,102.88Z"/><path class="cls-25" d="M62.3,137.31h4.11c.5,0,1.1,0,1.06.71s-.69.5-1.14.56h-.25c-1.86-.15-4.77.81-5.35-.4-.8-1.7,2-2.75,3.05-4.28.51-.75,1.18-1.39,1.69-2.14.76-1.11.74-2.29-.42-3a2.09,2.09,0,0,0-3,.62c-.38.56-.54,1.72-1.44.91-.6-.53.06-1.36.58-1.92a3.56,3.56,0,0,1,4.92-.52c1.72,1.33,1.78,2.94.54,4.55S64,135.35,62.3,137.31Z"/><path class="cls-26" d="M39.16,132c.79-1.76,2.23-2,3.86-1.79s2.34,1.41,2.44,3a5.14,5.14,0,0,1,0,1.24c-.28,1.38.69,2.91-.52,4.17-1.29-1.28-2.52.26-3.81.08a2.4,2.4,0,0,1-2.36-2.13A2.07,2.07,0,0,1,40.6,134l1.94-.38c.65-.12,1.66.28,1.46-1-.18-1.17-1-1.34-2-1.36S40.44,132.62,39.16,132Z"/><path class="cls-27" d="M58.48,136.31c-.64,2.05-2.19,2.51-4,2.27a3.35,3.35,0,0,1-3-3.17c-.27-2-.09-3.88,2-4.92a3.56,3.56,0,0,1,4.35.65c.39.36,1,.84.43,1.4-.38.36-.9.08-1.25-.36a2,2,0,0,0-3.39-.12,3.43,3.43,0,0,0,0,4.56c1,1.25,2.29,1.19,3.41,0C57.36,136.15,57.76,135.88,58.48,136.31Z"/><path class="cls-28" d="M98.47,109.16h4.73c.58,0,1.15-.06,1.17.84s-.34,1.14-1.18,1.14c-3.15,0-6.3,0-9.46,0-.72,0-1-.28-1.07-1s.41-1,1.08-1C95.31,109.17,96.89,109.16,98.47,109.16Z"/><path class="cls-14" d="M37.68,130.9c-2.66.39-1.56,2.42-1.87,3.94-.24,1.24,1,3.38-.78,3.51-1.16.08-.27-2.22-.59-3.4s1.05-3.22-1.26-3.93a.27.27,0,0,1-.13-.19c-.16-.79,3.08-4.15,3.91-4.08.36,0,.67.16.73.53s-.26.61-.57.65c-1,.1-1.24.71-1.23,1.53C35.92,130.62,37.28,129.7,37.68,130.9Z"/><path class="cls-29" d="M76,133.08c.07-.85.66-1,1.36-1a1.89,1.89,0,0,0,1.93-1.6,1.45,1.45,0,0,0-1-1.79,2.81,2.81,0,0,0-2.81.35c-.53.41-.84,2-1.72.81-.46-.62.53-1.62,1.34-2.11,1.65-1,4.2-.59,5.15.88,1.45,2.25-.46,3.19-1.78,4.35a.5.5,0,0,1-.51.36C77.34,133.23,76.62,133.57,76,133.08Z"/><path class="cls-30" d="M78.51,133A2.19,2.19,0,0,1,81,134.88a2.82,2.82,0,0,1-1.4,3.17,4.63,4.63,0,0,1-5.67-.79c-.32-.43-.9-1-.34-1.5s1,0,1.35.54a2.56,2.56,0,0,0,3.26,1c1.76-.62,1.83-2.14.22-3.8-.17-.09-.22-.19-.17-.29s.1-.15.16-.15Z"/><path class="cls-31" d="M47.76,141.74c-.66-1.66-.07-2.88.13-4.13.11-.71.67-.66,1.12-.53.6.16.31.61.19,1C48.8,139.17,48.82,140.44,47.76,141.74Z"/><path class="cls-32" d="M69.48,141.61a8.84,8.84,0,0,1,.15-3.8.8.8,0,0,1,1-.75c.89.15.42.76.29,1.11C70.57,139.25,70.78,140.62,69.48,141.61Z"/><path class="cls-33" d="M78.4,133.1c0,.15,0,.29,0,.44-.8-.14-1.7.2-2.41-.46Z"/><path class="cls-34" d="M279.3,97.78c.72-1-.57-2.93,1.15-2.91s.71,1.79.91,2.77a11.73,11.73,0,0,1,0,2.22c0,4,0,4-3.88,3.89a2.26,2.26,0,0,1-2.23-1.65,3.83,3.83,0,0,1,.61-4.17C276.92,96.86,278.1,97.06,279.3,97.78Z"/><path class="cls-35" d="M167.89,95.11a5.27,5.27,0,0,1,1.38.24c.84.37,1.91,1,1.38,2s-1.2,0-1.82-.41-1.76-.64-2.19.24c-.57,1.19.68,1.21,1.37,1.49.53.22,1.14.27,1.65.51,1.93.92,2.13,2.95.33,4.07a4.08,4.08,0,0,1-4.65-.12c-.52-.35-.93-.93-.61-1.47s1-.38,1.48,0a3.12,3.12,0,0,0,1,.61c.72.17,1.62.28,1.92-.59s-.63-1.16-1.31-1.39c-.31-.11-.65-.11-1-.2-1.37-.43-2.47-1.13-2.21-2.79S166.32,95.21,167.89,95.11Z"/><path class="cls-36" d="M244.82,99.44a6.09,6.09,0,0,1,0-1.48c.21-.92-.76-2.47.84-2.66,1.81-.22,3.92-.58,5.19,1.37,1.11,1.71.07,3.82-2.11,4.28-1.22.25-2.53.16-2.16,2,.09.49-.28.71-.77.7s-1-.14-1-.79c0-1.16,0-2.31,0-3.46Z"/><path class="cls-37" d="M237.38,101.62c.4-1.37.73-2.47,1-3.58a1,1,0,0,1,1.28-.8c1.07.19.46.93.33,1.32-.57,1.81-1.24,3.58-1.88,5.36a2.85,2.85,0,0,1-2.57,2c-.34,0-.7.08-.85-.26s-.23-.84.34-1c1.52-.45,1-1.41.62-2.35-.46-1.24-.88-2.49-1.29-3.74-.15-.48-.71-1.12.3-1.32a1,1,0,0,1,1.37.7C236.43,99.12,236.48,100.39,237.38,101.62Z"/><path class="cls-38" d="M252.65,98.85c.46-1.79,1.89-1.73,3.28-1.62s1.93,1.09,2.07,2.35a6,6,0,0,1,0,.74c.11,3.07-1.51,4.29-4.43,3.34a1.86,1.86,0,0,1-1.33-1.62,1.64,1.64,0,0,1,1.09-1.76,12.11,12.11,0,0,1,1.91-.47c.39-.09.9-.06.77-.67s-.54-.54-1-.54C254.28,98.59,253.62,99.54,252.65,98.85Z"/><path class="cls-35" d="M225.67,100.46c0,.66,0,1.32,0,2a1.86,1.86,0,0,1-.14,1c-.53.78-5,.14-5.4-.77-.65-1.5-.36-3.1-.35-4.66,0-.67.53-.74,1.06-.73s.73.31.74.79c0,1,0,2,.05,3,0,.63.2,1.14.94,1.23a1.1,1.1,0,0,0,1.33-1.11c.11-.9.08-1.82.1-2.73,0-.6,0-1.18.89-1.16s.76.7.78,1.24S225.66,99.8,225.67,100.46Z"/><path class="cls-39" d="M273.63,102c-.76,2-2.25,2-3.71,1.68-1.67-.32-2.18-1.79-2.18-3.2A3,3,0,0,1,270,97.25a2.75,2.75,0,0,1,3.4,1.35c.55,1.11,1.07,2.43-1.2,2.32-.82,0-2.22-.57-2.41.41s.93,1.32,1.94.92a4.63,4.63,0,0,1,.89-.39A4.11,4.11,0,0,1,273.63,102Z"/><path class="cls-34" d="M197.06,97.16a2.9,2.9,0,0,1,2.95,3.19c-.27.9-1.25.42-1.93.52-.32,0-.66,0-1,0s-1.13-.23-1.2.47.54,1,1.13,1.1a1.57,1.57,0,0,0,.48,0c.74-.06,1.88-1.4,2.08,0,.15,1.09-1.42,1.34-2.52,1.34a3,3,0,0,1-3-3.42C194.16,98.47,195,97.25,197.06,97.16Z"/><path class="cls-40" d="M203.69,103.77a6.28,6.28,0,0,1-1.36-.37c-.49-.24-1.14-.65-.78-1.3.27-.49.89-.26,1.35-.06.3.13.57.36.88.46.52.17,1.05.07,1.21-.49s-.37-.65-.76-.77c-.23-.08-.49-.07-.72-.15-.94-.33-2-.59-2-1.84a1.78,1.78,0,0,1,1.33-1.88,3.34,3.34,0,0,1,3.29.43c.3.26.68.6.4,1s-.73.31-1.12.15a10.35,10.35,0,0,0-1.12-.53.72.72,0,0,0-1,.51c-.09.38.2.59.54.68s.66.11,1,.21c1,.36,2.22.62,2,2.08S205.32,103.74,203.69,103.77Z"/><path class="cls-38" d="M211,97.15a6.38,6.38,0,0,1,1.27.36c.5.24,1.17.59.82,1.28-.27.53-.87.34-1.31.08-.66-.38-1.53-.94-1.81.09-.24.85.9.66,1.45.88.92.35,2,.55,2.11,1.79a1.88,1.88,0,0,1-1.56,2,3.48,3.48,0,0,1-3.5-.61.9.9,0,0,1-.16-.85,1,1,0,0,1,.86-.24,6.26,6.26,0,0,1,1.11.53c.5.23,1.05.23,1.27-.3s-.33-.8-.81-.93c-.24-.06-.49-.08-.73-.16-1.05-.36-2.11-.77-1.83-2.2S209.58,97.21,211,97.15Z"/><path class="cls-40" d="M183.06,103.76a2.7,2.7,0,0,1-2.89-1.88,3.6,3.6,0,0,1,.71-3.92,3.1,3.1,0,0,1,3.48-.54c.76.29,1.69.93,1.2,1.84-.4.75-1.1.16-1.64-.29a1.18,1.18,0,0,0-1.78,0,2.34,2.34,0,0,0-.21,2.58,1.18,1.18,0,0,0,1.68.59c.65-.26,1.56-1.44,1.93-.18.3,1-.91,1.59-2,1.71Z"/><path class="cls-35" d="M190.24,103.74c-1.55,0-2.63-.58-3-2s-.44-3,1-4a3.09,3.09,0,0,1,3.73,0c.49.35,1,.88.63,1.45s-1,.33-1.45-.12a1.26,1.26,0,0,0-2-.09,2.21,2.21,0,0,0-.23,2.57,1.21,1.21,0,0,0,1.66.63c.66-.21,1.54-1.46,1.91-.16.31,1.07-.94,1.55-2,1.67A3.09,3.09,0,0,1,190.24,103.74Z"/><path class="cls-41" d="M218.39,98.13c-2.26,1-.79,3.36-1.29,5.16,0,.19-.52.32-.81.37a.58.58,0,0,1-.71-.5c-.25-1.8.47-3.77-1-5.32,1-.71.85-2.27,2-2.86.6-.3,1.43-.53,1.86,0,.56.67-.33.85-.73,1.21C216.08,97.67,219.11,96.86,218.39,98.13Z"/><path class="cls-42" d="M175.23,102.32c2.28-.27,1.25-2,1.51-3.25.14-.69-.48-1.83.92-1.83s.89,1.11.94,1.83c.07.89,0,1.8,0,2.7.2,2.25-.79,2.35-2.42,1.4C175.69,103.11,175.19,103,175.23,102.32Z"/><path class="cls-43" d="M263.05,100.41a6.42,6.42,0,0,1,0-1.24c.14-.64-.46-1.87.55-1.82s2.23-.28,3.23.06a.67.67,0,0,1-.33,1.24c-2,.21-1.62,1.69-1.8,3-.1.74.69,2.13-.93,2-1.32-.08-.55-1.29-.71-2A5.12,5.12,0,0,1,263.05,100.41Z"/><path class="cls-44" d="M232.62,99.42c0,1.07,0,2.14,0,3.21,0,.5,0,1-.7,1s-1-.36-1-1c0-2.3,0-4.61,0-6.91,0-.54.21-.94.86-1s.81.42.81,1C232.62,97,232.61,98.19,232.62,99.42Z"/><path class="cls-44" d="M229.12,99.09v3.45c0,.6,0,1.18-.86,1.14-.64,0-.83-.4-.83-1,0-2.3,0-4.61,0-6.91,0-.51.11-1,.77-1,.86-.07.91.48.91,1.1Z"/><path class="cls-45" d="M175.23,102.32l1,.85c-2.3,1-3.32.49-3.5-1.75-.08-1,0-2,0-3,0-.56-.1-1.21.81-1.21s.78.61.85,1.19C174.49,99.76,173.82,101.28,175.23,102.32Z"/><path class="cls-46" d="M259.35,100.53c.7-1.14-.68-3.15,1.07-3.13s.76,2,.76,3,.83,3.08-.7,3.08C258.4,103.52,260.39,101.33,259.35,100.53Z"/><path class="cls-47" d="M261.31,95.41a.87.87,0,0,1-1,.79.77.77,0,0,1-.74-.81.81.81,0,0,1,.86-.93C261,94.46,261.25,94.87,261.31,95.41Z"/><path class="cls-48" d="M114.63,101.26a9.37,9.37,0,0,1,.8-4.14c1.12-1.93,3.33-2,4.34-.06a9,9,0,0,1,.06,8.12,2.3,2.3,0,0,1-2.13,1.47,2.55,2.55,0,0,1-2.33-1.57A10,10,0,0,1,114.63,101.26Z"/><path class="cls-49" d="M48.45,102.16c-.78-.53-2.43.81-2.47-1,0-1.19,1.1-1.82,2.25-1.88a2.18,2.18,0,0,1,2.5,1.92C50.81,102.8,49.23,101.7,48.45,102.16Z"/><path class="cls-50" d="M83.44,102.79c-.1,2-.55,3.78-2.77,3.79s-2.76-1.77-2.76-3.64.51-3.64,2.73-3.65S83.32,101.07,83.44,102.79Z"/><path class="cls-51" d="M84.3,131a2.45,2.45,0,1,1,4.9-.06,2.34,2.34,0,0,1-2.45,2.56A2.26,2.26,0,0,1,84.3,131Z"/><path class="cls-52" d="M42.38,134.76c1.32-.23,1.77.06,1.61,1a2.06,2.06,0,0,1-2.3,1.78c-.84,0-1.81-.35-1.64-1.42C40.31,134.51,41.85,135,42.38,134.76Z"/><path class="cls-53" d="M279.56,100.4c-.06,1-.28,1.79-1.37,1.83s-1.39-.84-1.41-1.67.23-1.91,1.48-1.85C279.34,98.77,279.49,99.64,279.56,100.4Z"/><path class="cls-54" d="M246.64,98.33c-.08-1-.06-1.75,1.06-1.63,1,.1,1.85.4,1.77,1.55s-1,1.36-2,1.41C246.23,99.73,246.8,98.68,246.64,98.33Z"/><path class="cls-55" d="M256.14,101.49c0,.6-.45.85-.93,1s-1.06-.07-1.13-.61c-.11-.83.66-.76,1.17-.91A.66.66,0,0,1,256.14,101.49Z"/><path class="cls-56" d="M269.37,99.57c1.06-1.32,1.81-1.36,2.83-.09A4,4,0,0,1,269.37,99.57Z"/><path class="cls-57" d="M198.4,99.37c-1,.57-1.7.32-2.79.28C196.6,98.41,197.31,98.24,198.4,99.37Z"/></g></g></g></svg>