<svg xmlns="http://www.w3.org/2000/svg" viewBox="0 0 444 525"><defs><style>.cls-1{fill:#fffefe;}.cls-2{fill:#c8c7c6;}.cls-3{fill:#373737;}.cls-4{fill:#3a3a3a;}.cls-5{fill:#c9c9c8;}.cls-6{fill:#383838;}.cls-7{fill:#414141;}.cls-8{fill:#fff;}.cls-9{fill:#fbfbfb;}.cls-10{fill:#3a3939;}.cls-11{fill:#393939;}.cls-12{fill:#3c3c3b;}.cls-13{fill:#3b3b3b;}.cls-14{fill:#3d3d3c;}.cls-15{fill:#424242;}.cls-16{fill:#3eade3;}.cls-17{fill:#3c3c3c;}.cls-18{fill:#545352;}.cls-19{fill:#333;}.cls-20{fill:#353535;}.cls-21{fill:#4b4b4b;}.cls-22{fill:#676766;}.cls-23{fill:#424241;}.cls-24{fill:#454545;}.cls-25{fill:#3d3d3d;}.cls-26{fill:#3f3e3e;}.cls-27{fill:#3e3d3d;}.cls-28{fill:#404040;}.cls-29{fill:#434342;}.cls-30{fill:#444;}.cls-31{fill:#f7f8f8;}.cls-32{fill:#f5f5f4;}.cls-33{fill:#f0efef;}.cls-34{fill:#f5f4f4;}.cls-35{fill:#fafafa;}.cls-36{fill:#fbfafa;}.cls-37{fill:#f2f1f0;}.cls-38{fill:#f6f5f4;}.cls-39{fill:#f8f8f7;}.cls-40{fill:#f7f6f6;}.cls-41{fill:#fcfcfb;}.cls-42{fill:#f7f7f6;}.cls-43{fill:#f6f6f5;}.cls-44{fill:#f3f2f2;}.cls-45{fill:#acacac;}.cls-46{fill:#adadac;}.cls-47{fill:#aeaeae;}.cls-48{fill:#adadad;}.cls-49{fill:#363636;}.cls-50{fill:#aeaead;}.cls-51{fill:#f9f9f9;}.cls-52{fill:#f8f7f7;}.cls-53{fill:#b8b7b7;}</style></defs><g id="Layer_2" data-name="Layer 2"><g id="Layer_1-2" data-name="Layer 1"><g id="cTaGKM.tif"><path class="cls-1" d="M444,262.5q0,130.11.05,260.21c0,1.87-.42,2.29-2.29,2.29Q222,524.93,2.29,525C.42,525,0,524.58,0,522.71Q.08,262.51,0,2.29C0,.42.42,0,2.29,0Q222,.08,441.71,0c1.87,0,2.29.42,2.29,2.29Q443.92,132.4,444,262.5Z"/><path class="cls-2" d="M222.31,116.41H16.84c-4.79,0-5.81-1-5.81-5.86V41.88c0-4.16,1.2-5.37,5.31-5.37H428c4.28,0,5.44,1.17,5.44,5.49v68.92c0,4.32-1.16,5.49-5.43,5.49Q325.17,116.43,222.31,116.41Z"/><path class="cls-2" d="M222.34,236.28h205c5.2,0,6.15.92,6.15,6v68.42c0,4.3-1.16,5.46-5.47,5.46H16.56c-4.35,0-5.53-1.15-5.53-5.4V241.62c0-4.13,1.21-5.34,5.34-5.34Z"/><path class="cls-2" d="M222.08,216.3H16.86c-4.81,0-5.83-1-5.83-5.85V141.78c0-4.17,1.2-5.39,5.29-5.39h412c4,0,5.19,1.26,5.2,5.23V211c0,4.07-1.23,5.26-5.42,5.26Z"/><path class="cls-2" d="M222.12,416.08H16.9c-4.84,0-5.87-1-5.87-5.81V341.6c0-4.28,1.17-5.43,5.5-5.43H428c4.32,0,5.5,1.16,5.5,5.43v69.17c0,4.11-1.21,5.31-5.37,5.31Z"/><path class="cls-2" d="M222.12,516H16.9c-4.84,0-5.87-1-5.87-5.8V441.48c0-4.27,1.17-5.43,5.5-5.43H428c4.32,0,5.5,1.16,5.5,5.44v69.17c0,4.11-1.21,5.3-5.37,5.3Z"/><path class="cls-3" d="M71.81,22.07a4.4,4.4,0,0,1-4.67-4.38A4.71,4.71,0,0,1,71.92,13a4.52,4.52,0,1,1-.11,9Z"/><path class="cls-3" d="M85.18,17.75c0-1.24,0-2.48,0-3.72,0-.58.32-.88.94-.89s.87.37.87.92q0,3.49,0,7c0,.4,0,.85-.54.94A1.44,1.44,0,0,1,85,21.41c-1.1-1.45-2.21-2.88-3.5-4.55-.58,1.44-.25,2.67-.33,3.85,0,.68.07,1.37-1,1.32-.89-.05-.81-.65-.81-1.23,0-2.08,0-4.16,0-6.24,0-.53-.21-1.24.63-1.4a1.49,1.49,0,0,1,1.53.6l3.16,4.1Z"/><path class="cls-3" d="M33.67,16.47c0,2,0,3.19,0,4.4,0,.62,0,1.15-.89,1.16s-.91-.5-.91-1.13c0-2.17,0-4.33,0-6.5,0-.46-.12-1.05.54-1.21A1.4,1.4,0,0,1,34,13.7c1.07,1.37,2.12,2.75,3.33,4.31.68-1.08.27-2.16.4-3.14.09-.67-.3-1.66.87-1.71,1.46-.06.93,1.11.95,1.81.07,1.82.05,3.66,0,5.49,0,.52.3,1.23-.44,1.49a1.42,1.42,0,0,1-1.71-.67C36.35,19.86,35.24,18.47,33.67,16.47Z"/><path class="cls-4" d="M21.15,16.25a3,3,0,0,1,0-.74c.22-.83-.66-2.3,1-2.32s.78,1.47.92,2.28c.18,1,0,2.16.17,3.21a1.84,1.84,0,0,0,3.67-.13c.11-1.32,0-2.65.09-4,0-.59-.29-1.42.82-1.45s1.12.72,1.11,1.51c0,1.16.07,2.33,0,3.48-.26,2.87-1.48,4-4,3.95C22.48,22,21.39,20.82,21.17,18c-.05-.58,0-1.16,0-1.75Z"/><path class="cls-3" d="M92.73,22a3.77,3.77,0,0,1-1.2-.25c-.64-.35-1.92-.31-1.63-1.41.37-1.41,1.35-.66,2.17-.31s1.83.69,2.18-.28c.44-1.22-.87-1.05-1.56-1.33C91.49,18,90,17.78,89.91,16a2.49,2.49,0,0,1,1.27-2.5,4.21,4.21,0,0,1,4.06.08c.41.18,1,.43.65,1.08s-.6,1-1.36.62a3.37,3.37,0,0,0-1.16-.38c-.56-.07-1.27-.18-1.37.62-.07.58.49.78,1,.93s.79.27,1.18.39c1.49.46,2.62,1.24,2.24,3S94.62,22.12,92.73,22Z"/><path class="cls-5" d="M108.88,14.54A2.9,2.9,0,0,0,106,17.47c0,1.83,1.15,2.86,3,3a4.3,4.3,0,0,0,1.44-.26c.45-.12.89-.11,1.07.32.28.67-.35.81-.75,1a4.32,4.32,0,0,1-5.41-1.71A4.12,4.12,0,0,1,106.44,14c2.54-1.7,4.83-1.19,6.46,1.63.55.95,2.51,1.82.54,3.34-.68.52-1,.36-1.43-.12s-1.37-.79-1.1-1.68C111.43,15.46,110.82,14.54,108.88,14.54Z"/><path class="cls-3" d="M46.92,22.08a4.1,4.1,0,0,1-4.19-2.87,4.27,4.27,0,0,1,1.22-5A4.42,4.42,0,0,1,49,13.48c.49.25,1.48.34,1.11,1.27-.3.77-.83,1.05-1.77.55a2.4,2.4,0,0,0-3.46.82,2.58,2.58,0,0,0,.06,3,2.38,2.38,0,0,0,3.47.7c.72-.41,1.24-.44,1.68.24.61,1-.45,1.05-.85,1.42A3.2,3.2,0,0,1,46.92,22.08Z"/><path class="cls-6" d="M12.05,17.74c0-4.84.8-5.48,5.67-4.63.7.12,1.07.33,1,1.05s-.6.85-1.21.85H15.06c-.48,0-1,0-1,.71s.13,1.14.92,1.13,1.32,0,2,0,1.19-.06,1.24.81-.52.88-1.14.88a10.26,10.26,0,0,1-1.24,0c-1.39-.2-1.92.34-1.8,1.77.07.68.48,1.77-1,1.71s-.87-1.12-.94-1.81S12.05,18.57,12.05,17.74Z"/><path class="cls-4" d="M56.17,13.13a16.83,16.83,0,0,1,1.74,0c.73.08,1.83-.42,1.94.88s-1.05,1-1.75,1c-1,0-1,.61-1,1.32,0,1.49,0,3,0,4.47,0,.57.08,1.18-.8,1.23s-1.06-.51-1-1.25c0-1,0-2,0-3,0-1.39.52-3.19-2-2.81-.68.1-.75-.46-.74-1s.37-.86.95-.86Z"/><path class="cls-7" d="M64.36,17.92v3.21c0,.79-.5.9-1.14.91s-.82-.37-.82-.93V14.19c0-.63.13-1.11,1-1.07s1,.42,1,1.09Z"/><path class="cls-8" d="M222.5,37.5H427.69c4.24,0,4.78.53,4.78,4.69v68.66c0,3.91-.63,4.57-4.41,4.57H16.43c-3.7,0-4.4-.69-4.4-4.32V41.69c0-3.46.75-4.18,4.28-4.18Z"/><path class="cls-8" d="M222,315.19H16.8c-4.23,0-4.77-.53-4.77-4.7V241.83c0-3.9.63-4.55,4.41-4.55H428.07c3.7,0,4.4.69,4.4,4.32v69.16c0,3.8-.65,4.43-4.54,4.43Z"/><path class="cls-8" d="M222.52,137.39H427.71c4.22,0,4.76.53,4.76,4.71V211c0,3.54-.73,4.29-4.18,4.29H16.16c-3.33,0-4.13-.79-4.13-4.08V141.56c0-3.43.77-4.17,4.3-4.17Z"/><path class="cls-8" d="M222.28,415.08H16.84c-4.34,0-4.81-.48-4.81-4.91V341.51c0-3.65.71-4.34,4.38-4.34H428c3.8,0,4.43.64,4.43,4.53v68.91c0,3.85-.63,4.47-4.5,4.47Z"/><path class="cls-8" d="M222.51,437.05H427.7c4.23,0,4.77.53,4.77,4.71v68.66c0,3.89-.63,4.54-4.42,4.54H16.42c-3.69,0-4.39-.69-4.39-4.32V441.48c0-3.8.65-4.43,4.55-4.43Z"/><path class="cls-9" d="M74.45,17.39c-.15,1.85-1,2.92-2.68,2.89a2.49,2.49,0,0,1-2.54-2.8,2.39,2.39,0,0,1,2.5-2.54A2.61,2.61,0,0,1,74.45,17.39Z"/><path class="cls-2" d="M222,77.46H416.19c5.08,0,6.29,1.22,6.29,6.31,0,5.41,0,10.82,0,16.23,0,3.9-1.53,5.42-5.44,5.42H27.87c-4.83,0-5.85-1-5.85-5.82,0-5.66,0-11.32,0-17,0-3.92,1.27-5.17,5.25-5.17Z"/><path class="cls-10" d="M165.71,58.1a4.17,4.17,0,0,1,0-.5c.13-1-.12-3,.29-3,1.69.34,3.33-1.38,4.86-.1.82.69,1.26.45,2.08,0,2.15-1.16,4-.14,4.31,2.27a37.68,37.68,0,0,1,.05,4c0,.57.09,1.23-.83,1.16s-.63-.81-.65-1.31c0-1.08,0-2.16,0-3.24s-.57-1.94-1.81-1.9a1.67,1.67,0,0,0-1.68,1.8c0,1.24,0,2.48-.06,3.73,0,.58-.23.94-.87.9s-.57-.48-.58-.88c0-1.25,0-2.5-.06-3.73-.08-1-.56-1.79-1.67-1.83a1.67,1.67,0,0,0-1.81,1.67c-.13,1.23-.13,2.47-.19,3.71,0,.49,0,1.07-.7,1s-.62-.63-.63-1.09C165.7,59.92,165.71,59,165.71,58.1Z"/><path class="cls-3" d="M82.1,60.06c-1.9,1.44-3.5,1.79-5.1.51a3.37,3.37,0,0,1-1.13-4c.68-2,2.2-2.58,4.1-2.32.88.12,1.57.86,2.65.21.72-.44.82.47.82,1.06,0,1.75,0,3.5,0,5.24a3.18,3.18,0,0,1-2,3.16,5.85,5.85,0,0,1-4.82-.34c-.29-.15-.63-.27-.38-.7.4-.71.93-.38,1.5-.21C79.68,63.27,81.46,63.33,82.1,60.06Z"/><path class="cls-11" d="M43.58,62a4.91,4.91,0,0,1-5.21-3.54,5,5,0,0,1,1.86-5.94,4.85,4.85,0,0,1,6-.21c.44.28,1.22.47.72,1.25s-.94.34-1.47,0c-1.89-1.14-3.66-1-5,.82a3.66,3.66,0,0,0,.06,4.81c1.42,1.81,3.2,1.8,5.06.7.5-.29,1-.79,1.46-.07s-.35,1.09-.8,1.41A3.93,3.93,0,0,1,43.58,62Z"/><path class="cls-4" d="M137.37,59.23c-.34.76.45,2.74-.51,2.55-1.86-.36-3.83,1.28-5.49-.37a2.28,2.28,0,0,1-.66-2.47c.44-1.4,1.66-1.35,2.72-1.77.78-.32,2.31,1.19,2.24-.57,0-1.24-1.57-1.11-2.67-1.08-.53,0-1.33,1-1.58-.18-.21-1,.78-.85,1.37-1C136.12,53.64,137.37,54.93,137.37,59.23Z"/><path class="cls-12" d="M64.52,58.91c0,.67,0,1.33,0,2a1.56,1.56,0,0,1-.2.94c-.5.53-5.42,0-5.94-.62A2.35,2.35,0,0,1,58,58.66c.46-1.17,1.63-1.19,2.67-1.48.76-.21,2.21.86,2.16-.47,0-1.49-1.64-1.23-2.79-1.14-.51,0-1.2.71-1.45-.16-.31-1,.67-.9,1.25-1C63.29,53.6,64.52,54.8,64.52,58.91Z"/><path class="cls-13" d="M89.65,62.09c-2.6-.09-3.91-1.15-4.23-3.26a3.72,3.72,0,0,1,2.83-4.56,3.18,3.18,0,0,1,4,2.06c.53,1.24.68,2.54-1.44,2.28a4.84,4.84,0,0,0-1.74,0c-.69.16-2-.67-2,.6s1.19,1.66,2.4,1.62c.08,0,.16-.06.24-.05.78,0,1.26-1.28,2.19-.51a.63.63,0,0,1,.12.59A3.2,3.2,0,0,1,89.65,62.09Z"/><path class="cls-11" d="M183.67,62.1c-2.83-.11-4.16-1.08-4.47-3.23-.33-2.41.65-4,2.76-4.58a3.21,3.21,0,0,1,4.12,2.19c.49,1.24.57,2.31-1.34,2.13a10.48,10.48,0,0,0-2.24,0c-.57.07-1.48-.47-1.64.51s.63,1.3,1.34,1.57a3.66,3.66,0,0,0,1.2.12c.8,0,1.3-1.14,2.22-.6.3.18.3.52,0,.83A3.21,3.21,0,0,1,183.67,62.1Z"/><path class="cls-14" d="M50.72,54.81c3.92-1.49,5.38-.49,5.29,3.59,0,1.18.76,3.36-.63,3.36-1.56,0-.53-2.15-.73-3.33s.07-2.88-1.86-2.9-2,1.45-2,2.82c-.05.82,0,1.65,0,2.48,0,.47.09,1.06-.63,1.11s-.71-.53-.71-1q0-4.35,0-8.7c0-.39,0-.89.58-.91s.75.51.76,1C50.73,53.13,50.72,53.93,50.72,54.81Z"/><path class="cls-15" d="M155.25,57.44c0-.66-.05-1.34,0-2,.17-1.62,0-2.83-2.15-2.46-.47.09-1.29.28-1.25-.67s.76-.72,1.31-.72c1.91,0,3.82,0,5.73,0,.55,0,1,.14,1,.78s-.64.7-1.08.62c-2.16-.41-2.21.88-2.14,2.46.08,1.82,0,3.65,0,5.48,0,.53-.08,1-.76,1s-.71-.55-.71-1C155.25,59.77,155.25,58.6,155.25,57.44Z"/><path class="cls-16" d="M27.64,51.09c.51,0,1.09.08,1.23.62.25,1-.55.77-1.08.83s-1,.3-1.13.81c-.17.94.75.63,1.18.88.73.43.7,1.18,0,1.15-2.47-.08-2.2,1.86-2.85,3.27-.52,1.11.22,3.47-1.82,3.07-.92-.17.09-2.12.39-3.2.54-2-.18-4.27,1.63-6A4.75,4.75,0,0,1,27.64,51.09Z"/><path class="cls-11" d="M123.25,62c-1.3-.14-1.73-.93-1.92-2.17-.24-1.58.86-3.38-.82-4.82-.19-.16,1-1.76,1.1-2.89,0,0,.59-.15.63-.08.61,1.18,1,2.52,2.67,2.78.23,0-.43.69-.91.65-1.36-.12-1.28.84-1.14,1.63.21,1.18-.83,2.74.91,3.48.45.2,1.33-.2,1.13.79S123.83,61.88,123.25,62Z"/><path class="cls-17" d="M188.31,58.16V56.42c0-1.47,0-1.41,1.69-1.31.48,0,1-.53,1.5-.7s.94-.62,1.22.13a.81.81,0,0,1-.54,1.18c-2.39.7-2.37,2.63-2.4,4.59,0,.6.5,1.68-.78,1.63-1,0-.62-1-.67-1.54C188.26,59.66,188.31,58.91,188.31,58.16Z"/><path class="cls-18" d="M105.13,56.78V61c0,.53-.1,1-.77,1s-.74-.54-.75-1c0-2.72,0-5.44,0-8.16,0-.49,0-1.08.67-1.14.85-.09.83.63.84,1.19C105.14,54.14,105.13,55.46,105.13,56.78Z"/><path class="cls-19" d="M98.15,63.07c1.19.43,3.48-.91,3.84.74.19.83-2.57.29-4,.45a25.4,25.4,0,0,1-3.49,0c-.49,0-1.08,0-1-.7.05-.57.56-.5,1-.51Z"/><path class="cls-20" d="M147,64.27c-1.24,0-2.48,0-3.71,0-.34,0-.7-.09-.75-.48-.07-.55.33-.69.77-.69h7.43a.55.55,0,0,1,.61.59.6.6,0,0,1-.64.6C149.42,64.28,148.19,64.27,147,64.27Z"/><path class="cls-17" d="M69.53,55.52c-1.7,1.39-1,3.33-1.13,5.06-.05.62.19,1.46-.88,1.37-.9-.09-.57-.86-.58-1.35,0-1.57,0-3.14,0-4.7-.11-2.12.89-1.63,2-1A.72.72,0,0,1,69.53,55.52Z"/><path class="cls-17" d="M110.47,55.52c-1.69,1.39-1,3.33-1.12,5.06-.06.62.18,1.46-.88,1.37-.91-.09-.57-.86-.59-1.35,0-1.57.05-3.14,0-4.7-.11-2.12.89-1.63,2-1A.71.71,0,0,1,110.47,55.52Z"/><path class="cls-4" d="M110.47,55.52l-.59-.58c2.65-1.56,4.49-.68,4.69,2.28.08,1.15.05,2.31,0,3.47,0,.53.17,1.29-.75,1.23-.7-.05-.56-.68-.57-1.14,0-.91,0-1.82,0-2.73C113.2,56.26,112.43,55.23,110.47,55.52Z"/><path class="cls-4" d="M69.53,55.52l-.59-.58c2.65-1.56,4.48-.68,4.69,2.28.08,1.15,0,2.31,0,3.47,0,.53.17,1.29-.74,1.23-.7-.05-.57-.68-.58-1.14,0-.91,0-1.82,0-2.73C72.26,56.26,71.48,55.23,69.53,55.52Z"/><path class="cls-21" d="M118.47,58.2c0,1,0,2,0,3,0,.44-.11.82-.66.81a.7.7,0,0,1-.77-.75c0-2,0-4.1,0-6.16a.7.7,0,0,1,.82-.69c.55,0,.59.47.59.88C118.48,56.23,118.47,57.22,118.47,58.2Z"/><path class="cls-21" d="M128.45,58.21c0,1,0,2,0,3,0,.44-.13.81-.67.8a.69.69,0,0,1-.76-.76c0-2.05,0-4.1,0-6.15a.69.69,0,0,1,.82-.69c.55,0,.59.48.59.89C128.46,56.24,128.45,57.23,128.45,58.21Z"/><path class="cls-19" d="M139.75,56.49c0-1.41,0-2.83,0-4.24,0-.4,0-.87.59-.89s.66.41.67.83c0,3,0,6,0,9,0,.46-.2.83-.73.76s-.54-.54-.54-.94C139.74,59.48,139.75,58,139.75,56.49Z"/><path class="cls-19" d="M163.09,58c-.53,1.29.85,3.48-.89,3.73-.9.13-.42-2.41-.42-3.71s-.73-3.38.56-3.36S162.59,56.83,163.09,58Z"/><path class="cls-22" d="M163.24,52.21c-.06.64-.48.83-1,.77a.76.76,0,0,1-.72-.85c0-.68.51-.78,1-.74A.71.71,0,0,1,163.24,52.21Z"/><path class="cls-19" d="M127.74,52.91a.73.73,0,0,1-.79-.75c0-.55.33-.68.77-.71s.79.19.75.71S128.26,52.94,127.74,52.91Z"/><path class="cls-19" d="M118.49,51.9c0,.61-.12,1-.67,1a.72.72,0,0,1-.85-.66c-.08-.54.21-.73.68-.78S118.43,51.56,118.49,51.9Z"/><path class="cls-2" d="M222,305.2H27.78c-4.68,0-5.76-1.06-5.76-5.66,0-5.66,0-11.32,0-17,0-4.12,1.21-5.33,5.34-5.33H416.28c4.94,0,6.2,1.26,6.2,6.16v16c0,4.42-1.4,5.83-5.78,5.83Z"/><path class="cls-13" d="M185.47,257.9a4,4,0,0,1,0-.49c.13-1-.15-3,.29-3,1.73.3,3.46-1.43,5,0,.75.66,1.09.4,1.81,0,2.42-1.3,4.24-.28,4.52,2.48a31.06,31.06,0,0,1,0,3.48c0,.54.17,1.3-.68,1.33-1.14,0-.68-.91-.73-1.46-.07-.9,0-1.82,0-2.73-.07-1.15-.4-2.21-1.81-2.22s-1.74,1.1-1.85,2.2,0,2.15-.07,3.23c0,.52,0,1-.75,1-.55,0-.56-.51-.57-.92,0-1.24,0-2.49-.12-3.72-.09-.95-.52-1.78-1.69-1.78A1.77,1.77,0,0,0,187,257c-.17,1.14-.09,2.32-.15,3.47,0,.52.23,1.31-.7,1.27s-.68-.78-.69-1.33C185.45,259.56,185.47,258.73,185.47,257.9Z"/><path class="cls-3" d="M81.93,260c-1.72,1.28-3.32,1.64-4.92.37a3.37,3.37,0,0,1-1.14-4c.66-2,2.18-2.59,4.09-2.34.87.12,1.57.86,2.64.21.71-.43.84.45.84,1,0,1.66,0,3.33,0,5,0,1.48-.48,2.86-2,3.41a5.76,5.76,0,0,1-4.81-.32c-.28-.15-.69-.27-.4-.68.17-.23.56-.5.77-.45a9.23,9.23,0,0,0,2.4.56C81.1,262.76,81.86,261.9,81.93,260Z"/><path class="cls-11" d="M106.82,261.81a3.81,3.81,0,0,1-1.35-.15c-.9-.41-2.63-.61-2.24-1.73.57-1.64,1.52.25,2.36.27s1.42.43,2.2.21,1.26-.53,1.36-1.27-.37-1.21-1.07-1.44c-.86-.29-1.72-.59-2.59-.85a2.55,2.55,0,0,1-2.13-2.89c.12-1.64,1.23-2.29,2.6-2.58a4.65,4.65,0,0,1,2,.1c.89.2,2.38.39,2.12,1.4-.39,1.57-1.38,0-2.13,0-1.11-.06-2.54-.61-3,.95s1,1.63,2,2a14.61,14.61,0,0,1,2.54,1,2.35,2.35,0,0,1,1,3C110,261.53,108.52,261.8,106.82,261.81Z"/><path class="cls-11" d="M44,261.86c-3.11-.07-4.75-1.18-5.57-3.49A5,5,0,0,1,40,252.54a4.91,4.91,0,0,1,6-.6c.47.25,1.48.44,1.05,1.35s-1.05.36-1.63,0a3.43,3.43,0,0,0-4.86.81,3.74,3.74,0,0,0,.09,5c1.29,1.57,2.94,1.61,4.69.77.6-.28,1.28-1.25,1.8-.13.4.86-.65,1.09-1.19,1.46A3.56,3.56,0,0,1,44,261.86Z"/><path class="cls-13" d="M89.67,261.86c-2.62-.08-3.93-1.14-4.25-3.25A3.72,3.72,0,0,1,88.25,254a3.19,3.19,0,0,1,4,2.06c.53,1.24.68,2.54-1.44,2.28a5.08,5.08,0,0,0-1.74,0c-.69.17-2-.67-2,.6s1.19,1.66,2.4,1.62c.08,0,.16-.05.24-.05.78,0,1.26-1.27,2.19-.5.12.1.21.5.12.58A3,3,0,0,1,89.67,261.86Z"/><path class="cls-13" d="M202.85,261.82a3.7,3.7,0,0,1-3.95-3.62,3.92,3.92,0,0,1,3.33-4.26c2-.23,3.25.84,3.86,2.74.44,1.37,0,1.83-1.39,1.71a8,8,0,0,0-2.24,0c-.6.1-1.72-.61-1.71.67,0,.93.9,1.32,1.73,1.53a3.63,3.63,0,0,0,1-.08c.72,0,1.16-1.09,2-.55a.47.47,0,0,1,.09.81,3.1,3.1,0,0,1-2.44,1Z"/><path class="cls-13" d="M143.29,261.8a3.65,3.65,0,0,1-3.8-3.49,3.89,3.89,0,0,1,3.22-4.34c2-.3,3.29.71,3.92,2.62.39,1.18.31,2-1.24,1.8a8.83,8.83,0,0,0-2.24,0c-.64.09-1.79-.53-1.82.57s1,1.59,2.11,1.67c.24,0,.48-.16.72-.16.71,0,1.62-1.51,2-.17.26.94-1.09,1.39-2.11,1.49C143.79,261.82,143.53,261.8,143.29,261.8Z"/><path class="cls-12" d="M64.52,258.68c0,.67,0,1.33,0,2a1.56,1.56,0,0,1-.2.94c-.5.52-5.42,0-5.93-.61a2.33,2.33,0,0,1-.34-2.56c.46-1.17,1.63-1.2,2.67-1.48.75-.21,2.2.85,2.16-.47,0-1.49-1.64-1.26-2.79-1.14-.58.06-1.4.73-1.51-.39-.08-.76.77-.69,1.31-.81C63.29,253.37,64.52,254.57,64.52,258.68Z"/><path class="cls-14" d="M50.72,254.68c3.75-1.57,5.38-.58,5.27,3.1,0,1.3.89,3.66-.71,3.71-1.39.05-.4-2.35-.64-3.63s-.1-2.46-1.71-2.56-2,1.09-2.17,2.43a16.38,16.38,0,0,1-.06,1.73c-.15.77.58,2.21-.72,2.15-1.11-.05-.57-1.47-.59-2.26-.08-2.32,0-4.64,0-7,0-.52-.23-1.34.67-1.3s.66.81.68,1.36S50.72,253.77,50.72,254.68Z"/><path class="cls-13" d="M137.81,259c-.51.73.84,2.6-.9,2.56-1.22,0-.37-1.78-.57-2.74-.11-.56,0-1.16-.06-1.73-.17-1.09-.7-1.89-1.94-1.83a1.87,1.87,0,0,0-1.9,1.9c-.1,1.15,0,2.32-.06,3.48,0,.46.1,1-.65,1.07s-.84-.35-.84-.92c0-1.9,0-3.81,0-5.71,0-.42.15-1.1.52-.92,1.74.89,3.58-1.29,5.25.26C138,255.69,137.75,257.31,137.81,259Z"/><path class="cls-16" d="M23,260c.08-1.37,1.53-3,.68-5.18-.37-.94,2.77-3.88,3.88-4,.61,0,1.27.05,1.4.72s-.5.68-1,.71-1.21.25-1.27.94.66.56,1.07.71.63.3.61.67a.6.6,0,0,1-.65.61c-2.23-.29-2.18,1.51-2.6,2.85-.3.94-.47,1.92-.74,2.87a.91.91,0,0,1-1.12.73C22.42,261.53,22.79,261,23,260Z"/><path class="cls-17" d="M158.44,261.8a2.42,2.42,0,0,1-1-.13c-.64-.34-2-.25-1.53-1.45.39-1,1.13,0,1.66.16.94.28,2,.55,2.39-.49s-.92-1.15-1.57-1.44c-1.39-.61-3-1-2.25-3.08.54-1.44,2.66-1.9,4.33-1,.34.17.89.3.71.81s-.63.67-1.2.39a3.45,3.45,0,0,0-1.19-.28c-.5,0-1.07,0-1.29.52-.33.83.44.93.92,1.17a9.54,9.54,0,0,0,1.16.44c1.33.45,2.2,1.22,1.8,2.76S159.92,261.83,158.44,261.8Z"/><path class="cls-17" d="M151.44,253.86a19.12,19.12,0,0,1,1.87.58c.27.11.61.34.47.75a.66.66,0,0,1-1,.43,6.05,6.05,0,0,0-1.17-.35c-.58-.07-1.26-.12-1.5.55s.49.89,1,1.16a5.2,5.2,0,0,0,.69.27c1.11.4,2.3.78,2.37,2.2a2,2,0,0,1-1.19,2,4.43,4.43,0,0,1-4.05-.26c-.39-.2-.69-.53-.42-1a.65.65,0,0,1,1-.2,5.49,5.49,0,0,0,1.14.48,1.44,1.44,0,0,0,2-.57c.38-1-.71-1.08-1.34-1.37-.29-.14-.61-.24-.92-.36-1.2-.46-2-1.16-1.66-2.61S150.25,254.06,151.44,253.86Z"/><path class="cls-17" d="M176,251.38h2.73c.51,0,1,0,1.09.7s-.53.77-1,.69c-2.38-.44-2.5.95-2.37,2.73a34.93,34.93,0,0,1,0,4.46c0,.61.52,1.78-.71,1.7s-.59-1.17-.62-1.81c-.07-1.73-.09-3.47,0-5.21.06-1.3-.21-2-1.74-1.89-.52.06-1.53.46-1.55-.57,0-1.19,1.05-.73,1.7-.79C174.34,251.33,175.17,251.38,176,251.38Z"/><path class="cls-23" d="M115.84,261.75c-2,.17-2.47-.71-2.74-2-.32-1.6.76-3.4-.86-4.9-.29-.26.63-2,1.2-2.91.21-.36,1-.23,1,.49-.07,1.32.5,1.8,1.76,1.7a.56.56,0,0,1,.64.58c0,.6-.48.64-.87.59-1.55-.2-1.61.8-1.46,1.85s-.7,2.83,1.25,3.27c.54.13,1.27-.2,1,.78A.75.75,0,0,1,115.84,261.75Z"/><path class="cls-11" d="M128.38,256.41c0,1.49,0,3,0,4.47,0,.41,0,.82-.6.86s-.87-.28-.87-.87v-8.93c0-.61.26-.93.88-.89s.59.49.59.9C128.38,253.43,128.38,254.92,128.38,256.41Z"/><path class="cls-11" d="M124.39,256.47c0,1.41,0,2.82,0,4.22,0,.47.08,1-.67,1.05s-.81-.37-.81-.93v-8.69c0-.51,0-1,.7-1.07.94-.06.77.67.78,1.21C124.4,253.66,124.39,255.07,124.39,256.47Z"/><path class="cls-7" d="M208.14,258a14.42,14.42,0,0,1,0-1.74c.13-1-.66-3,1.75-1.49.59.37,1.81-1.55,2.4-.2s-1.35,1-1.91,1.8c-.85,1.18-.77,2.49-.87,3.81,0,.59.33,1.54-.67,1.58s-.65-.94-.7-1.52C208.09,259.45,208.14,258.7,208.14,258Z"/><path class="cls-19" d="M166.66,262.84c1.16,0,2.33,0,3.49,0,.39,0,.9-.06,1,.49s-.35.7-.78.7h-7.24c-.35,0-.67-.11-.72-.51-.08-.57.33-.68.77-.68Z"/><path class="cls-19" d="M97.5,264.06c-1.17-.45-3.46.91-3.78-.74-.17-.9,2.52-.28,3.9-.45a23.36,23.36,0,0,1,3.45,0c.46,0,1.12-.13,1.16.54s-.59.66-1.07.66C100,264.07,98.86,264.06,97.5,264.06Z"/><path class="cls-17" d="M69.53,255.29c-1.7,1.4-1,3.33-1.13,5.07-.05.61.19,1.46-.88,1.36-.9-.08-.57-.86-.58-1.35,0-1.57,0-3.14,0-4.7-.11-2.11.89-1.62,2-.95A.71.71,0,0,1,69.53,255.29Z"/><path class="cls-4" d="M69.53,255.29l-.59-.57c2.65-1.56,4.48-.69,4.69,2.27.08,1.16,0,2.32,0,3.48,0,.53.17,1.29-.74,1.22-.7,0-.57-.68-.58-1.14,0-.91,0-1.82,0-2.73C72.26,256,71.48,255,69.53,255.29Z"/><path class="cls-21" d="M182.89,257.79c0,1,0,2,0,2.95,0,.5,0,1-.72,1s-.73-.53-.73-1.05c0-1.81,0-3.62,0-5.42,0-.61.09-1.22.9-1.12s.54.71.55,1.16C182.91,256.14,182.89,257,182.89,257.79Z"/><path class="cls-24" d="M120.32,258.13c-.46,1,.8,3.42-.7,3.38-1.65,0-.46-2.38-.76-3.68a7.5,7.5,0,0,1,0-2.22c.05-.56-.35-1.52.74-1.46s.69.95.72,1.56S120.32,257.19,120.32,258.13Z"/><path class="cls-19" d="M182.91,251.83c-.08.67-.33.91-.84.84a.71.71,0,0,1-.69-.82c0-.57.44-.62.85-.61S183,251.49,182.91,251.83Z"/><path class="cls-24" d="M120.37,251.78c0,.45-.06.84-.6.91s-.94-.14-1-.75a.62.62,0,0,1,.72-.73C119.94,251.21,120.34,251.26,120.37,251.78Z"/><path class="cls-2" d="M222,205.31H27.76c-4.66,0-5.74-1.06-5.74-5.68,0-5.66,0-11.32,0-17,0-4.11,1.21-5.3,5.36-5.3H416.3c4.92,0,6.18,1.26,6.18,6.18,0,5.32,0,10.65,0,16,0,4.41-1.4,5.81-5.8,5.81Z"/><path class="cls-4" d="M103.5,156.75a4.17,4.17,0,0,1,0-1c.37-1.4-1-3.39.89-4.18,2.52-1,6.63.6,7.7,2.68a5.29,5.29,0,0,1-1,6.18c-2,1.78-4.47,1.5-6.87,1.4-.86,0-.68-.79-.69-1.34C103.49,159.24,103.5,158,103.5,156.75Z"/><path class="cls-10" d="M189.18,157.92a4,4,0,0,1,0-.49c.15-1-.16-3,.34-2.92,1.64.36,3.22-1.37,4.63-.14,1,.89,1.63.38,2.54-.06a2.59,2.59,0,0,1,3.94,2,33.67,33.67,0,0,1,.13,4.72c0,.42-.07.8-.63.85s-.86-.29-.86-.88c0-1.24,0-2.49,0-3.73,0-1-.52-1.79-1.62-1.84s-1.78.7-1.87,1.86a10.34,10.34,0,0,1-.07,1.48c-.25,1,.64,3-.67,2.93-1.59-.05-.41-2-.75-3a4.14,4.14,0,0,1,0-1c-.07-1.16-.39-2.21-1.78-2.24s-1.75,1.08-1.86,2.2,0,2-.07,3c0,.53.19,1.29-.76,1.21-.71-.06-.56-.69-.57-1.15C189.16,159.75,189.18,158.83,189.18,157.92Z"/><path class="cls-3" d="M81.91,160.08c-1.76,1.36-3.41,1.65-5,.27A3.61,3.61,0,0,1,79.65,154c1,0,1.9,1.1,3.13.27.5-.33.66.5.66,1,0,1.91,0,3.83-.1,5.74A3,3,0,0,1,81,163.91a6.16,6.16,0,0,1-4.57-.53c-.2-.11-.47-.23-.28-.56s.52-.67,1-.48a5.64,5.64,0,0,0,2.15.54C81,162.9,81.87,162.13,81.91,160.08Z"/><path class="cls-11" d="M43.6,161.93a4.9,4.9,0,0,1-5.22-3.51,5,5,0,0,1,1.83-6,4.85,4.85,0,0,1,6-.23c.43.27,1.22.45.76,1.23s-.92.39-1.47.06c-1.88-1.16-3.66-1.05-5,.77a3.72,3.72,0,0,0,.18,5c1.4,1.62,3.15,1.61,4.9.54.62-.38,1.21-.79,1.6.1.31.69-.45.93-.88,1.21A4,4,0,0,1,43.6,161.93Z"/><path class="cls-12" d="M64.52,159.17c-.2.76.21,2.61-.35,2.48-1.89-.45-3.85,1.24-5.6-.34a2.32,2.32,0,0,1-.62-2.49c.36-1.38,1.6-1.44,2.73-1.75.76-.2,2.2.83,2.19-.44,0-1.52-1.61-1.27-2.76-1.18-.57.05-1.38.78-1.54-.35-.1-.78.74-.71,1.28-.83C63.32,153.46,64.52,154.68,64.52,159.17Z"/><path class="cls-13" d="M89.26,161.94a3.61,3.61,0,0,1-3.87-3.39c-.22-2.36.89-4,3-4.44a3.21,3.21,0,0,1,3.9,2.26c.46,1.19.5,2.36-1.42,2.13a7,7,0,0,0-2,0c-.64.11-1.73-.54-1.83.53s.94,1.45,1.85,1.7c.23.06.5-.07.74,0,.85.16,1.93-1.84,2.34-.15C92.23,161.47,90.46,162,89.26,161.94Z"/><path class="cls-13" d="M206.51,154a3.53,3.53,0,0,1,2.91,1.85c1,1.88.59,2.64-1.56,2.67a6.82,6.82,0,0,0-1.5,0c-.68.15-1.93-.58-1.91.66,0,1.07,1.13,1.54,2.21,1.58.24,0,.48-.15.72-.16.7,0,1.55-1.53,2-.13.25.82-1,1.24-1.9,1.42a3.76,3.76,0,0,1-4.72-3.21A3.94,3.94,0,0,1,206.51,154Z"/><path class="cls-4" d="M134.89,157.24c-.7-2.16-2.11-2-3.53-1.66-.51.13-1,.4-1.06-.38-.07-.51.27-.67.69-.85,2.71-1.15,5.07.28,5.28,3.22.28,4-.34,4.58-4.27,4.37a2.36,2.36,0,0,1-2.56-2.21,2.17,2.17,0,0,1,2.21-2.47C132.62,157.17,133.61,157.24,134.89,157.24Z"/><path class="cls-13" d="M152.16,154a4,4,0,0,1,4,3.92,3.92,3.92,0,0,1-4,4.06,3.73,3.73,0,0,1-4-3.82A4,4,0,0,1,152.16,154Z"/><path class="cls-25" d="M158,157.87a1,1,0,0,1,0-.25c.45-1.08-1.05-3.1.93-3.28,5.3-.47,5.87,0,5.91,3.57,0,.92,0,1.83,0,2.74,0,.53.21,1.27-.76,1.21s-.71-.75-.72-1.29c0-1,0-2,0-3,0-1.23-.45-2.15-1.82-2.18s-1.89.92-2,2.07c-.11.9,0,1.83-.07,2.74-.05.56.43,1.54-.59,1.58-1.21,0-.73-1.05-.79-1.69A20.9,20.9,0,0,1,158,157.87Z"/><path class="cls-14" d="M50.71,154.86c3.66-1.62,5.28-.64,5.34,2.86,0,1,0,2,0,3,0,.45.15,1.08-.58,1.13s-.83-.61-.84-1.19c0-1,0-2,0-3s-.29-2.21-1.74-2.26-2,1-2.08,2.26c-.09,1.07-.05,2.15-.07,3.23,0,.42,0,.87-.55.94-.7.08-.79-.42-.79-1q0-4.33,0-8.69c0-.5,0-1.08.74-1,.48.05.6.5.6.94C50.72,153,50.71,153.77,50.71,154.86Z"/><path class="cls-26" d="M121.55,158.22c-.09,1.15.16,3.09-.32,3.29a10.06,10.06,0,0,1-4.3.36,2.14,2.14,0,0,1-2.06-2.13c-.11-1.48-.07-3-.08-4.47,0-.51,0-1.07.75-1,.49.05.62.47.63.92,0,1.16,0,2.32.08,3.48a1.77,1.77,0,0,0,1.84,1.93,1.82,1.82,0,0,0,1.89-1.9c.06-1.16.07-2.32.11-3.48,0-.54.18-1,.84-.94s.53.54.54.94c0,1,0,2,0,3Z"/><path class="cls-13" d="M178.79,157.37a20.69,20.69,0,0,1,0-2.23c.17-1.56-.08-2.59-2-2.27-.46.07-1.29.32-1.34-.58s.68-.79,1.25-.79h5.71c.61,0,1.25.07,1.21.86s-.74.6-1.14.52c-2.05-.38-2.3.69-2.18,2.36s.05,3.47,0,5.21c0,.56.35,1.47-.79,1.41s-.66-.95-.7-1.51C178.75,159.35,178.79,158.36,178.79,157.37Z"/><path class="cls-16" d="M24,156.46c0-2.65,1.35-4.93,3.07-5.37.68-.17,1.49-.26,1.75.44.43,1.16-.67.77-1.19.92s-1,.38-1,1,.51.52.88.62.83.23.8.76a.61.61,0,0,1-.68.58c-2.09-.3-2.13,1.35-2.51,2.64-.31,1-.51,2.08-.81,3.11a.89.89,0,0,1-1.13.69c-.79-.2-.41-.74-.29-1.17C23.27,159.19,23.65,157.76,24,156.46Z"/><path class="cls-11" d="M141.07,161.91a2,2,0,0,1-2.21-1.73c-.37-1.73.81-3.72-.88-5.32-.1-.1.93-1.79,1.16-2.87a2.42,2.42,0,0,1,.84.08,2.51,2.51,0,0,0,2.31,2.48c.32,0,.1.85-.38.8-1.94-.22-1.72,1.12-1.57,2.22s-.89,2.9,1.45,3c.56,0,.71.37.59.82C142.15,162.14,141.42,161.75,141.07,161.91Z"/><path class="cls-17" d="M123.9,158c0-.75,0-1.49,0-2.24,0-1.27.07-1.3,1.54-.83.8.26,1-.73,1.68-.69.41,0,.94-.6,1.2.2.13.4.14.9-.36,1-2.79.81-2.59,3.05-2.57,5.23,0,.45.16,1-.59,1.12s-.9-.48-.9-1.1C123.91,159.84,123.9,158.93,123.9,158Z"/><path class="cls-17" d="M212.71,154.24c.8,1.45,1.68.11,2.59-.07.39-.07.81-.29.92.35.08.43.06.87-.43,1-2.51.72-2.55,2.7-2.54,4.76,0,.55.44,1.5-.64,1.54-1.27,0-.78-1-.81-1.64-.06-1.57,0-3.15,0-4.72C211.79,154.9,211.69,154.25,212.71,154.24Z"/><path class="cls-20" d="M170,164.18c-1.18-.45-3.46.91-3.8-.75-.18-.86,2.54-.28,3.94-.45a23.5,23.5,0,0,1,3.46,0c.45,0,1.1-.16,1.14.56s-.6.64-1.07.65C172.53,164.19,171.37,164.18,170,164.18Z"/><path class="cls-19" d="M98,163h3.5c.33,0,.69.06.74.48s-.35.7-.78.7c-2.42,0-4.83,0-7.24,0-.35,0-.68-.11-.73-.51-.08-.56.32-.68.77-.69Z"/><path class="cls-17" d="M69.53,155.4c-1.7,1.4-1,3.33-1.13,5.07-.05.62.19,1.46-.88,1.36-.9-.08-.57-.85-.58-1.35,0-1.56,0-3.13,0-4.7-.11-2.11.89-1.62,2-.95A.72.72,0,0,1,69.53,155.4Z"/><path class="cls-4" d="M69.53,155.4l-.59-.57c2.65-1.56,4.48-.68,4.69,2.28.08,1.15,0,2.31,0,3.47,0,.53.17,1.29-.74,1.23-.7-.05-.57-.69-.58-1.15,0-.9,0-1.82,0-2.72C72.26,156.14,71.48,155.12,69.53,155.4Z"/><path class="cls-24" d="M185.25,158c0-1,0-2,0-3,0-.45.15-.82.68-.81a.72.72,0,0,1,.76.77q0,3.09,0,6.18c0,.5-.37.68-.84.66s-.59-.46-.59-.87C185.24,160,185.25,159,185.25,158Z"/><path class="cls-19" d="M146.1,158.28c-.48,1.12.66,3.31-.72,3.32s-.62-2.19-.57-3.35-.94-3.5.72-3.71C146.49,154.42,145.71,157,146.1,158.28Z"/><path class="cls-22" d="M146.25,151.8c0,.67-.2,1-.67,1.06s-1-.09-1.07-.73a.69.69,0,0,1,.68-.85C145.7,151.23,146.2,151.3,146.25,151.8Z"/><path class="cls-24" d="M186.79,151.74c0,.6-.07,1-.61,1.06s-.94-.13-1-.75.23-.72.72-.73S186.7,151.43,186.79,151.74Z"/><path class="cls-2" d="M222.26,405.09H27.8c-4.77,0-5.78-1-5.78-5.89,0-5.58,0-11.15,0-16.73,0-4.14,1.2-5.35,5.32-5.35H416.26c4.95,0,6.22,1.25,6.22,6.14V399c0,4.86-1.27,6.1-6.26,6.1Z"/><path class="cls-6" d="M109.44,353.74c0,2.77,0,4.74,0,6.71,0,.45.19,1.07-.55,1.15s-.88-.53-.88-1.14c0-2.57,0-5.14,0-7.71,0-.55-.15-1.24.64-1.41s1.06.32,1.43.79c1.62,2.08,3.26,4.16,5.32,6.79,0-2.47,0-4.4,0-6.31,0-.52-.22-1.28.69-1.3s.8.67.8,1.24c0,2.49,0,5,0,7.46,0,.52.32,1.23-.35,1.54s-1.18-.26-1.6-.8C113.27,358.61,111.58,356.47,109.44,353.74Z"/><path class="cls-3" d="M82,359.83c-1.81,1.38-3.47,1.69-5.09.27a3.4,3.4,0,0,1-1-3.83c.53-1.82,1.9-2.41,3.58-2.49,1.11,0,2,1.2,3.37.3.49-.33.63.53.64,1,0,1.66,0,3.33,0,5,0,1.37-.36,2.7-1.76,3.33a5.61,5.61,0,0,1-5-.18c-.26-.13-.72-.17-.48-.66a.73.73,0,0,1,1-.46,5.28,5.28,0,0,0,2.15.53C81,362.67,81.85,361.86,82,359.83Z"/><path class="cls-11" d="M206.59,354.57c.92-1.19-.65-3.35,1.18-3.39,1.06,0,.46,2.1.52,3.24.11,2,0,4,0,6,0,1-.31,1.84-1.32.89-.59-.57-.74-.19-1.12,0a3.31,3.31,0,0,1-4.43-.85,4.14,4.14,0,0,1-.1-5.09,3.33,3.33,0,0,1,4.59-1.09Z"/><path class="cls-4" d="M123.06,361.69a4.88,4.88,0,0,1-3-.77c-.44-.25-1.18-.48-.78-1.27s.91-.47,1.42-.09a4.43,4.43,0,0,0,2.81.79,1.65,1.65,0,0,0,1.71-1.19c.23-.91-.41-1.35-1.16-1.61s-1.56-.53-2.35-.76c-1.52-.45-2.55-1.32-2.31-3s1.57-2.42,3.18-2.58a3.81,3.81,0,0,1,1.46.18c.87.27,2.4.34,2.08,1.46-.42,1.5-1.4-.05-2.15-.1-1.13-.09-2.55-.55-3,.92s1,1.65,2,2c.39.13.78.29,1.18.39,1.6.4,2.83,1.22,2.57,3.05C126.48,361.05,125,361.74,123.06,361.69Z"/><path class="cls-11" d="M42.71,361.72a4.6,4.6,0,0,1-4.29-3.42,5,5,0,0,1,1.69-6,4.87,4.87,0,0,1,6-.38c.45.27,1.23.47.91,1.2-.4.91-1,.46-1.62.09a3.41,3.41,0,0,0-4.54.38,3.78,3.78,0,0,0-.84,4.56c.93,2,3,2.68,5.22,1.67.59-.27,1.28-1.31,1.81-.2s-.74,1.17-1.34,1.58S44.15,361.69,42.71,361.72Z"/><path class="cls-27" d="M148.43,354.56c3.9-1.57,5.4-.56,5.42,3.34,0,1,0,2,0,3,0,.47-.19.77-.72.75a.67.67,0,0,1-.75-.76c0-1.16,0-2.33,0-3.49s-.42-2.16-1.79-2.21-1.92.91-2.06,2.06,0,2.16-.06,3.24c0,.46.15,1.07-.6,1.13s-.81-.43-.81-1v-8.73c0-.58.22-1,.85-1s.54.53.55.92C148.45,352.71,148.43,353.54,148.43,354.56Z"/><path class="cls-13" d="M165.8,361.71a3.65,3.65,0,0,1-4-3.39c-.22-2.36.9-4,3-4.44a3.22,3.22,0,0,1,3.9,2.28c.46,1.2.45,2.35-1.45,2.11a6.64,6.64,0,0,0-2,0c-.63.11-1.73-.56-1.81.54s1,1.44,1.86,1.68a3.7,3.7,0,0,0,.74,0c.81,0,1.29-1.22,2.22-.58a.45.45,0,0,1,0,.79A3.26,3.26,0,0,1,165.8,361.71Z"/><path class="cls-13" d="M89.13,361.71a3.59,3.59,0,0,1-3.74-3.51c-.17-2.35,1-4,3.15-4.35a3.24,3.24,0,0,1,3.82,2.41c.38,1.06.48,2.24-1.34,2a6.34,6.34,0,0,0-1.74,0c-.75.12-1.68-.48-2.23.42-.11.17.13.64.33.87a2.39,2.39,0,0,0,2.41.9c.75-.11,1.25-1.34,2.17-.48.14.12.39.32.09.6a3.42,3.42,0,0,1-2.67,1.12Z"/><path class="cls-12" d="M64.52,358.48c0,.66,0,1.32,0,2,0,.93-.23,1.56-1.26.94s-1.48.39-2.31.34c-1.52-.08-2.87-.26-3.07-2.11s.9-2.52,2.5-2.69a8.09,8.09,0,0,0,1-.09c.53-.12,1.45.73,1.56-.39.09-.87-.74-1.19-1.52-1.28-.25,0-.53.06-.74,0-.69-.29-1.86,1.14-2-.24s1.39-1,2.13-1C63,353.81,64.85,354.11,64.52,358.48Z"/><path class="cls-4" d="M194.89,357.64a3.78,3.78,0,0,1-3.95,4.06,3.85,3.85,0,0,1-4.05-3.78,4.22,4.22,0,0,1,4.07-4.18A3.85,3.85,0,0,1,194.89,357.64Z"/><path class="cls-14" d="M50.72,354.43c4-1.41,5.37-.45,5.29,3.84,0,1.1.66,3.15-.58,3.16-1.59,0-.49-2-.79-3a8.06,8.06,0,0,1-.1-1.48,1.65,1.65,0,0,0-1.71-1.74,1.71,1.71,0,0,0-1.9,1.57c-.16,1.22-.14,2.47-.21,3.71,0,.46.11,1.09-.59,1.14-.92.07-.76-.68-.76-1.21,0-2.73,0-5.47,0-8.2,0-.46-.13-1.12.53-1.19.87-.1.8.64.81,1.2C50.74,352.92,50.72,353.65,50.72,354.43Z"/><path class="cls-28" d="M140.42,357.07a20.51,20.51,0,0,1,0-2.48c.17-1.48-.3-2.17-1.89-1.94-.47.07-1.29.31-1.32-.6s.67-.79,1.25-.79h5.71c.61,0,1.24.08,1.12.91s-.77.56-1.17.49c-2-.34-2.4.56-2.26,2.34s0,3.63,0,5.45c0,.55.15,1.25-.8,1.17-.68-.06-.68-.58-.69-1.08Z"/><path class="cls-16" d="M27.65,350.75c.54,0,1.13.1,1.24.66.2,1-.62.72-1.14.8s-1,.31-1.09.84c-.14.75.57.6,1,.79a1.31,1.31,0,0,1,.68.6.53.53,0,0,1-.54.66c-2.5-.22-2.18,1.85-2.81,3.26-.49,1.09,0,3.47-1.6,3.06s0-2.18.21-3.28c.37-2-.16-4.25,1.61-5.95A4.56,4.56,0,0,1,27.65,350.75Z"/><path class="cls-13" d="M173.44,353.75a14.53,14.53,0,0,1,1.59.42c.45.16,1,.39.77,1s-.76.27-1.23.15c-.84-.22-2-.72-2.29.49-.22,1,1.05,1,1.77,1.34,1.07.47,2.25.86,2.23,2.32a2.08,2.08,0,0,1-1.56,2,4.44,4.44,0,0,1-4-.68.68.68,0,0,1-.19-.61.6.6,0,0,1,.72-.5,6.46,6.46,0,0,1,.89.41c1,.42,2.18.78,2.55-.41s-1.11-1.21-1.85-1.51c-1.23-.51-2.32-1-2.07-2.61S172.19,354,173.44,353.75Z"/><path class="cls-13" d="M180.88,355.18c-1.7,1.4-1,3.34-1.13,5.09-.05.52.22,1.26-.66,1.34-1.16.09-.79-.84-.8-1.39,0-2.73,0-5.47,0-8.2,0-.47-.09-1.08.65-1.08s.74.42.84,1c.15.89-.54,2,.52,2.68A.7.7,0,0,1,180.88,355.18Z"/><path class="cls-18" d="M105.13,356.41v4.2c0,.52-.06,1-.74,1s-.78-.49-.78-1c0-2.8,0-5.6,0-8.4,0-.51.19-1,.86-.93s.61.52.62.91c0,1.4,0,2.8,0,4.2Z"/><path class="cls-7" d="M156.21,357.76c0-.67,0-1.33,0-2,0-1-.3-2.44,1.62-1.21a1.25,1.25,0,0,1,.47,1.95c-.77,1.08-.61,2.36-.71,3.59,0,.58.32,1.55-.74,1.49s-.57-1-.63-1.58C156.15,359.26,156.21,358.51,156.21,357.76Z"/><path class="cls-19" d="M98.2,362.73c1.18.42,3.5-.88,3.8.72.17.91-2.53.3-3.93.47a24.81,24.81,0,0,1-3.45,0c-.46,0-1.1.11-1.14-.57s.6-.63,1.06-.64C95.69,362.71,96.84,362.73,98.2,362.73Z"/><path class="cls-19" d="M132.13,362.73h3.21c.48,0,1.11-.07,1.11.63,0,.46-.5.58-.93.58h-6.68c-.41,0-.91,0-1-.54-.06-.74.55-.66,1-.67Z"/><path class="cls-17" d="M69.53,355.18c-1.7,1.39-1,3.33-1.13,5.06-.05.62.19,1.46-.88,1.37-.9-.08-.57-.86-.58-1.35,0-1.57,0-3.14,0-4.7-.11-2.12.89-1.63,2-.95A.7.7,0,0,1,69.53,355.18Z"/><path class="cls-4" d="M180.88,355.18l-.59-.57c2.65-1.56,4.49-.69,4.69,2.27.08,1.15,0,2.32,0,3.47,0,.54.17,1.29-.74,1.23-.7-.05-.57-.68-.58-1.14,0-.91,0-1.82,0-2.73C183.61,355.92,182.83,354.89,180.88,355.18Z"/><path class="cls-4" d="M69.53,355.18l-.59-.57c2.65-1.56,4.48-.69,4.69,2.27.08,1.15,0,2.32,0,3.47,0,.54.17,1.29-.74,1.23-.7-.05-.57-.68-.58-1.14,0-.91,0-1.82,0-2.73C72.26,355.92,71.48,354.89,69.53,355.18Z"/><path class="cls-19" d="M198.45,356.34c0,1.41,0,2.82,0,4.24,0,.49,0,1.06-.74,1-.54-.05-.53-.53-.54-.94,0-2.91,0-5.81,0-8.72,0-.4,0-.89.59-.89s.67.6.68,1.07C198.47,353.51,198.45,354.93,198.45,356.34Z"/><path class="cls-2" d="M222.27,477H416c5.39,0,6.5,1.13,6.5,6.61,0,5.24,0,10.49,0,15.73,0,4.2-1.46,5.62-5.73,5.62H27.83C23,505,22,504,22,499.11c0-5.57,0-11.15,0-16.73,0-4.16,1.19-5.37,5.29-5.37h195Z"/><path class="cls-4" d="M81,456.18a3,3,0,0,1,0-.74c.36-1.41-1-3.39.87-4.2,2.43-1.05,6.63.6,7.71,2.66a5.29,5.29,0,0,1-1,6.18c-2,1.78-4.47,1.51-6.87,1.41-.85,0-.71-.76-.71-1.31C81,458.85,81,457.52,81,456.18Z"/><path class="cls-3" d="M290.25,456.41a5,5,0,0,1-5.17,5.18,5.17,5.17,0,0,1-5.37-5.3A5.48,5.48,0,0,1,285,451,5.09,5.09,0,0,1,290.25,456.41Z"/><path class="cls-3" d="M259.79,456.38a5.05,5.05,0,0,1-5.14,5.21,5.18,5.18,0,0,1-5.4-5.27,5.48,5.48,0,0,1,5.24-5.29A5.1,5.1,0,0,1,259.79,456.38Z"/><path class="cls-4" d="M137.23,457.62a23.17,23.17,0,0,1,0,2.5,4.32,4.32,0,0,1-6.7,3.09c-.37-.24-.79-.43-.52-.91a.8.8,0,0,1,1.1-.26,3.8,3.8,0,0,0,3.57.14c.46-.23.88-.62.74-1.17-.17-.72-.77-.48-1.2-.33a3.42,3.42,0,0,1-4.4-1.77,3.25,3.25,0,0,1,.47-4,3.41,3.41,0,0,1,4.49-.83c.22.11.51.38.64.31,2.8-1.44,1.57,1,1.84,1.94a4.66,4.66,0,0,1,0,1.24Z"/><path class="cls-6" d="M158.42,460.2c-3.86,1.39-6.46-.06-6.09-3.37a3.57,3.57,0,0,1,4-3.15c1,.13,1.72,1.11,2.94.34.63-.39.7.65.7,1.19,0,1.66,0,3.32,0,5a3.11,3.11,0,0,1-1.86,3.22,5.69,5.69,0,0,1-4.8-.26c-.3-.15-.63-.34-.45-.74.36-.82.91-.34,1.45-.2C157.18,462.92,157.85,462.59,158.42,460.2Z"/><path class="cls-3" d="M126,459.67c-1.81,1.39-3.41,1.73-5,.44a3.37,3.37,0,0,1-1.11-4c.68-2,2.2-2.58,4.11-2.31.87.13,1.56.87,2.64.21.72-.44.81.49.81,1.07,0,1.75.05,3.5,0,5.24a3.16,3.16,0,0,1-2,3.15,5.93,5.93,0,0,1-4.82-.34c-.3-.16-.61-.3-.37-.71.42-.71.94-.34,1.51-.19C124.5,462.94,125.18,462.59,126,459.67Z"/><path class="cls-17" d="M102.49,454.76c1.82-1.19,3.55-1.66,5.16-.2a4,4,0,0,1,1,4.57c-.72,2-2.25,2.72-4.33,2.4-.77-.12-1.39-1.39-2.41-.09-.36.47-.84-.37-.83-1q0-4.23,0-8.46c0-.53.07-1.08.69-1.12.92,0,.69.74.72,1.26C102.52,452.91,102.49,453.72,102.49,454.76Z"/><path class="cls-6" d="M191.72,454.66c1.77-1,3.37-1.54,4.95-.16a4,4,0,0,1,1.2,4.06,3.45,3.45,0,0,1-4.55,2.9c-.76-.25-1.26-.8-2.14,0-.52.46-.93-.21-.92-.91,0-2.9,0-5.79,0-8.68,0-.51,0-1,.76-1a.75.75,0,0,1,.69.85Z"/><path class="cls-6" d="M171.64,456.33a8.55,8.55,0,0,1,0-1.24c.17-1.27-.68-3.18.51-3.69a7.23,7.23,0,0,1,5.57.31,2.79,2.79,0,0,1,1.64,2.84,3,3,0,0,1-1.89,2.95,4.45,4.45,0,0,1-2.15.49c-1.81-.2-2.66.35-2.34,2.29.09.5.21,1.29-.75,1.19-.7-.07-.58-.68-.59-1.15C171.63,459,171.64,457.66,171.64,456.33Z"/><path class="cls-13" d="M227.93,461.6a3.59,3.59,0,0,1-3.73-3.53c-.16-2.34,1-4,3.17-4.34a3.26,3.26,0,0,1,3.82,2.44c.37,1.08.45,2.23-1.37,2a9.41,9.41,0,0,0-2.25,0c-.58.07-1.55-.46-1.69.43s.73,1.39,1.53,1.71a2.34,2.34,0,0,0,2.12-.4c.44-.25.87-.62,1.26,0,.57.85-.41.87-.74,1.2A2.92,2.92,0,0,1,227.93,461.6Z"/><path class="cls-4" d="M96.14,461.59c-2.47,0-4.07-1.43-4.21-3.59a3.89,3.89,0,0,1,3.53-4.32c2-.07,3.2,1,3.65,3,.25,1.11,0,1.55-1.15,1.48a12.18,12.18,0,0,0-2.49,0c-.62.09-1.74-.55-1.79.53s.95,1.47,1.88,1.7a3.78,3.78,0,0,0,.74-.05c.79,0,1.28-1.2,2.21-.57.28.2.41.48.06.79A3,3,0,0,1,96.14,461.59Z"/><path class="cls-14" d="M217,454.38c3.84-1.49,5.31-.5,5.34,3.34,0,1,0,2,0,3,0,.45-.13.83-.68.81s-.71-.34-.72-.81c0-1.16,0-2.32,0-3.48s-.4-2.17-1.82-2.16-1.87.94-2,2.11-.06,2.32-.09,3.48c0,.43-.1.82-.65.84s-.69-.35-.69-.79q0-4.49,0-8.95c0-.39,0-.89.59-.89s.74.52.75,1C217,452.69,217,453.49,217,454.38Z"/><path class="cls-26" d="M188,457.87c-.08,1.15.17,3.09-.31,3.3a9.32,9.32,0,0,1-4.29.35c-1.6-.13-2.23-1.37-2.13-2.84s-.49-4.53.45-4.46c2,.14.58,2.5.9,3.87.27,1.16.58,2.19,1.91,2.18a1.92,1.92,0,0,0,1.94-2.13c0-1.08,0-2.16.07-3.24,0-.54.17-1,.83-.95s.54.53.55.93c0,1,0,2,0,3Z"/><path class="cls-26" d="M117.54,457.84l-.22,3.45c-1.47-.38-2.87.5-4.33.27a2.33,2.33,0,0,1-2.14-2.35c-.07-1.33-.06-2.66,0-4,0-.53-.18-1.33.7-1.28s.67.8.68,1.37,0,1.33,0,2c0,1.36,0,2.94,1.86,2.95s2-1.6,2-3.07c0-.67,0-1.33,0-2s0-1.28.8-1.24.57.68.58,1.14c0,.92,0,1.83,0,2.74Z"/><path class="cls-26" d="M268.74,458.61c-.4.77.76,2.73-.57,2.72-1.66,0-.49-2-.82-3a4,4,0,0,1,0-1c-.07-1.14-.29-2.21-1.73-2.25s-2,1-2.08,2.26c-.08,1.08,0,2.16-.05,3.23,0,.54-.14,1-.83.92s-.54-.53-.54-.93c0-1,0-2,0-3,0-3.4.81-4.27,4.05-3.92C269,454,268.82,456.27,268.74,458.61Z"/><path class="cls-26" d="M143.73,457.75v-.25c0-3.68.23-3.95,3.87-3.87a2.49,2.49,0,0,1,2.7,2.1,43.08,43.08,0,0,1,.11,5c0,.43-.1.82-.65.82a.71.71,0,0,1-.75-.79c0-1.24,0-2.48-.07-3.72s-.52-1.94-1.78-1.94a1.82,1.82,0,0,0-1.92,1.86c-.1,1.07-.07,2.14-.13,3.22,0,.53.2,1.3-.66,1.35s-.69-.73-.71-1.26C143.71,459.4,143.73,458.57,143.73,457.75Z"/><path class="cls-13" d="M54.49,458c-.64,1,1.15,3.31-1,3.31-1.24,0-2.4.85-3.69.31-.9-.38-1.64-.79-1.9-1.77a20.68,20.68,0,0,1-.23-5c0-.45.15-.86.64-.91.73-.07.72.5.73,1,0,1.17,0,2.34.08,3.49a1.91,1.91,0,0,0,3.82-.1c0-1.08,0-2.16,0-3.24,0-.61,0-1.23.86-1.17s.6.65.61,1.11C54.5,455.94,54.49,456.86,54.49,458Z"/><path class="cls-28" d="M41.05,456.78a16.34,16.34,0,0,1,0-2c.21-1.6-.17-2.56-2.05-2.26-.43.07-1.08.19-1.15-.53s.39-.85.94-.85H45c.54,0,1,.2,1,.84s-.71.63-1.12.55c-2.17-.4-2.43.78-2.32,2.52s0,3.64,0,5.46c0,.49,0,1-.72,1s-.77-.49-.77-1Z"/><path class="cls-16" d="M23,461.45c-.09,0-.45-.26-.18-.76,1.38-2.61.27-5.88,2.27-8.34a4,4,0,0,1,1.86-1.54c.75-.23,1.67-.4,1.93.46.36,1.13-.81.61-1.28.87s-.8.45-.89.76c-.21.73.48.67.93.81s.84.25.69.8c-.05.19-.32.47-.48.46-2.63-.19-2.38,1.95-2.84,3.49-.21.71-.36,1.44-.58,2.15C24.24,461.11,24,461.53,23,461.45Z"/><path class="cls-17" d="M235.62,461.58a4.29,4.29,0,0,1-1.29-.27c-.52-.23-1.53-.25-1.25-1.16.34-1.13,1-.23,1.58-.1a7.32,7.32,0,0,0,1.42.34,1.13,1.13,0,0,0,1.17-.75c.16-.58-.23-.9-.75-1.09s-1.23-.45-1.84-.7a2,2,0,0,1-1.41-2.31,2.24,2.24,0,0,1,2.11-1.79,3.23,3.23,0,0,1,3,.83c.46.48-.11.9-.61.88s-1.25-.35-1.89-.42-1,.08-1.08.74c0,.47.29.72.72.86s.92.35,1.39.53c1.25.48,2.25,1.16,1.84,2.73C238.35,461.25,237.27,461.59,235.62,461.58Z"/><path class="cls-17" d="M210.14,461.56a6.61,6.61,0,0,1-1.22-.34c-.49-.2-1.31-.28-1-1.1s.87-.36,1.39-.15a5.45,5.45,0,0,0,1.67.41,1.16,1.16,0,0,0,1.17-.76c.16-.58-.33-.87-.81-1.07s-1.08-.39-1.62-.6a2.11,2.11,0,0,1-1.64-2.21,2,2,0,0,1,1.68-1.9,4,4,0,0,1,3.3.6.68.68,0,0,1,.13.63.57.57,0,0,1-.79.36,3.66,3.66,0,0,0-1.92-.4.94.94,0,0,0-.94.66c-.11.45.26.74.67.9s.93.35,1.38.54c1.2.5,2.33,1.06,1.92,2.69S212,461.64,210.14,461.56Z"/><path class="cls-29" d="M293.64,461.5c-.9-.06-.63-.77-.73-1.29-.38-1.83.73-3.79-.89-5.58-.7-.78,2.22-4.05,3.42-3.95.5,0,1.07.1,1.17.7.13.78-.51.69-1,.68a1.06,1.06,0,0,0-1.14,1.05c-.12.94.64.73,1.17.78s.89,0,1,.54-.41.68-.82.63c-1.53-.19-1.53.77-1.5,1.85s0,2.32,0,3.48C294.27,460.85,294.38,461.43,293.64,461.5Z"/><path class="cls-29" d="M300.84,450.68c.5.05,1.19,0,1.26.78s-.62.59-1.06.6a1.06,1.06,0,0,0-1.08,1.12c0,.91.75.64,1.26.72s.86,0,.87.61-.32.58-.65.54c-1.86-.25-1.68,1-1.66,2.19,0,1,0,2,0,3,0,.52.22,1.28-.71,1.26-.71,0-.57-.63-.66-1.1-.37-1.91.77-4-.89-5.83C296.89,453.85,299.67,450.69,300.84,450.68Z"/><path class="cls-30" d="M201.7,456.17v4.45c0,.58-.25.93-.88.89s-.58-.48-.58-.88c0-3,0-5.93,0-8.9,0-.39,0-.88.56-.91s.9.29.9.9Z"/><path class="cls-4" d="M56.94,457.79c0-.74,0-1.48,0-2.22,0-1.06-.18-2.43,1.53-1.06.1.08.29.19.37.14.79-.38,1.8-1.65,2.37-.36s-1.34,1-1.94,1.72c-1,1.22-.78,2.62-.87,4,0,.58.31,1.48-.74,1.49S57,460.57,57,460A20.74,20.74,0,0,1,56.94,457.79Z"/><path class="cls-19" d="M166.11,462.61c1.18.43,3.5-.88,3.8.72.17.92-2.53.31-3.93.48a24.81,24.81,0,0,1-3.45,0c-.46,0-1.1.1-1.14-.58s.6-.62,1.06-.63C163.6,462.6,164.75,462.61,166.11,462.61Z"/><path class="cls-19" d="M274.31,462.62h3.49c.43,0,.89.07.87.61s-.47.6-.91.6h-7c-.37,0-.69-.16-.74-.52-.07-.52.32-.69.78-.69Z"/><path class="cls-19" d="M75.29,463.82c-1.23,0-2.47,0-3.71,0a.6.6,0,0,1-.64-.6c0-.38.28-.57.64-.58h7.17c.34,0,.7.07.75.47s-.32.7-.75.71C77.6,463.84,76.45,463.82,75.29,463.82Z"/><path class="cls-19" d="M243.8,463.82c-1.15,0-2.3,0-3.46,0a.59.59,0,0,1-.62-.61.58.58,0,0,1,.65-.57h7.17c.34,0,.7.08.74.48s-.34.7-.77.7C246.28,463.83,245,463.82,243.8,463.82Z"/><path class="cls-17" d="M65.53,455.07c-1.69,1.39-1,3.32-1.12,5.06-.06.62.18,1.46-.88,1.36s-.57-.85-.59-1.35c0-1.56.05-3.13,0-4.69-.11-2.12.89-1.63,2-1A.71.71,0,0,1,65.53,455.07Z"/><path class="cls-4" d="M65.53,455.07l-.59-.58c2.65-1.56,4.49-.68,4.69,2.28.08,1.15.05,2.31,0,3.47,0,.53.17,1.29-.75,1.23-.7-.05-.56-.68-.57-1.14,0-.91,0-1.82,0-2.73C68.26,455.8,67.49,454.78,65.53,455.07Z"/><path class="cls-24" d="M205.7,457.82c-.46,1.05.92,3.4-.86,3.47-1.34.06-.35-2.32-.59-3.59a13.62,13.62,0,0,1,0-2.71c0-.48-.06-1.06.65-1.08s.82.43.82,1Z"/><path class="cls-19" d="M141.17,457.41c-.58,1.39.8,3.59-.93,3.83-.93.13-.43-2.4-.44-3.69s-.71-3.4.56-3.37C141.82,454.21,140.53,456.39,141.17,457.41Z"/><path class="cls-22" d="M141.3,451.54c-.11.9-.56,1-1.1,1a.74.74,0,0,1-.68-.87c0-.68.55-.77,1.06-.7S141.36,451.25,141.3,451.54Z"/><path class="cls-24" d="M205,452.48a.63.63,0,0,1-.78-.65c-.05-.44,0-.82.58-.84s1,0,1,.72A.7.7,0,0,1,205,452.48Z"/><path class="cls-8" d="M192.18,78.46q82.38,0,164.75-.06c2.46,0,3.28.5,3.2,3.12-.2,6.82-.15,13.65,0,20.47,0,2.06-.66,2.71-2.56,2.45a8.68,8.68,0,0,0-1.25,0H28.05c-4.6,0-5-.42-5-4.94,0-5.57,0-11.15,0-16.73,0-3.62.69-4.3,4.41-4.3Z"/><path class="cls-31" d="M390.53,104.43c-9.07,0-18.13,0-27.19,0-1.67,0-2.34-.39-2.31-2.21q.14-10.84,0-21.7c0-1.64.52-2.13,2.14-2.12,18.12,0,36.25,0,54.37,0,2.86,0,3.92,1.06,3.93,3.91,0,5.9,0,11.81,0,17.71,0,3.34-1,4.33-4.27,4.33Q403.88,104.45,390.53,104.43Z"/><path class="cls-32" d="M79.74,55.47a2.13,2.13,0,0,1,2.17,2.32c0,1.5-1,2.18-2.45,2.19a2.12,2.12,0,0,1-2.34-2.3C77.14,56.3,78.05,55.43,79.74,55.47Z"/><path class="cls-33" d="M134.19,58.19c.55.32,1.67-.19,1.67,1s-.9,1.7-2,1.79c-.89.07-1.84-.29-1.87-1.22C132,58.4,133.18,58.34,134.19,58.19Z"/><path class="cls-34" d="M63.16,59a2.08,2.08,0,0,1-2.09,2c-.87,0-1.75-.28-1.79-1.26,0-1.2,1-1.37,1.92-1.41C61.94,58.22,62.81,58.2,63.16,59Z"/><path class="cls-35" d="M87,57.27a1.88,1.88,0,0,1,1.91-1.81c1-.06,1.93.44,2,1.42,0,1.15-1.1.57-1.71.63A3.08,3.08,0,0,1,87,57.27Z"/><path class="cls-36" d="M182.65,57.58c-.6-.3-1.74.5-1.78-.62,0-1,.85-1.49,1.89-1.5s2,.62,1.89,1.5C184.56,58.15,183.32,57.26,182.65,57.58Z"/><path class="cls-8" d="M192.31,304.2H28.56c-5.4,0-5.54-.15-5.54-5.67s0-10.82,0-16.23c0-3.28.8-4.07,4.15-4.07q165.12,0,330.25,0c2,0,2.74.44,2.7,2.59q-.21,10.37,0,20.72c.05,2.26-.65,2.75-2.81,2.75q-75.13-.09-150.27-.05Z"/><path class="cls-31" d="M390.35,304.2c-9,0-18-.05-26.94,0-1.87,0-2.41-.53-2.39-2.39q.15-10.61,0-21.2c0-1.79.37-2.47,2.32-2.46,18,.07,36.08,0,54.12.05,2.9,0,4,1,4,3.84q.06,9.1,0,18.21c0,2.84-1.08,3.9-3.94,3.9C408.47,304.22,399.41,304.2,390.35,304.2Z"/><path class="cls-32" d="M79.61,259.78c-1.66,0-2.52-.95-2.49-2.32a2.11,2.11,0,0,1,2.44-2.2c1.45.07,2.37.79,2.35,2.29A2.15,2.15,0,0,1,79.61,259.78Z"/><path class="cls-35" d="M87,257.21a1.92,1.92,0,0,1,1.91-2c1-.07,1.93.42,2,1.41,0,1.16-1.09.56-1.7.64A12.36,12.36,0,0,1,87,257.21Z"/><path class="cls-33" d="M204.67,257.23a13.16,13.16,0,0,1-4.08-.08,1.84,1.84,0,0,1,1.86-1.92C203.71,255.14,204.39,255.82,204.67,257.23Z"/><path class="cls-33" d="M145.23,257.17a11.59,11.59,0,0,1-4.07,0,1.87,1.87,0,0,1,1.9-2C144.32,255.16,145,255.85,145.23,257.17Z"/><path class="cls-34" d="M61.38,258c.6.31,1.71-.15,1.7,1s-.88,1.71-2,1.78c-.88.07-1.8-.26-1.84-1.21C59.23,258.15,60.45,258.17,61.38,258Z"/><path class="cls-8" d="M192.31,204.32H27.81c-4.26,0-4.79-.53-4.79-4.68q0-8.62,0-17.23c0-3.29.8-4.06,4.16-4.06q165.12,0,330.24,0c2,0,2.74.45,2.7,2.59q-.21,10.36,0,20.72c.05,2.28-.67,2.74-2.82,2.74q-77.88-.09-155.76,0Z"/><path class="cls-31" d="M390.52,178.35H417c3.61,0,4.52.92,4.52,4.58,0,5.74,0,11.48,0,17.21,0,3.16-1,4.17-4.19,4.17-18,0-35.91,0-53.87,0-1.85,0-2.42-.49-2.4-2.38.11-7.06.12-14.13,0-21.2,0-2.07.69-2.48,2.58-2.46C372.57,178.39,381.54,178.35,390.52,178.35Z"/><path class="cls-35" d="M105,156.68c0-.17-.06-.35,0-.49.47-1.07-1.22-3,1.21-3.29s4.32.92,4.76,2.93a3.51,3.51,0,0,1-2.27,4.37C105.82,161.34,105,160.48,105,156.68Z"/><path class="cls-32" d="M80.21,155.42a2.06,2.06,0,0,1,1.69,2.45,2.17,2.17,0,0,1-2.63,2,2.09,2.09,0,0,1-2.13-2.48C77.29,156,78.26,155.22,80.21,155.42Z"/><path class="cls-34" d="M61.31,158.06c.65.3,1.76-.12,1.76.92,0,1.26-1,1.85-2.15,1.82-.85,0-1.71-.34-1.62-1.4C59.39,158.18,60.52,158.32,61.31,158.06Z"/><path class="cls-35" d="M88.91,157.46c-.64-.25-1.76.45-1.83-.56s.81-1.53,1.86-1.56,2,.48,1.92,1.45C90.78,158.06,89.54,157.13,88.91,157.46Z"/><path class="cls-35" d="M206.17,157.46c-.62-.26-1.77.45-1.75-.63a1.71,1.71,0,0,1,1.94-1.49c1,0,2,.54,1.83,1.52C208,158,206.83,157.15,206.17,157.46Z"/><path class="cls-37" d="M133,158.07c.57.38,1.91-.27,1.74,1.11a1.91,1.91,0,0,1-2.17,1.63c-.83,0-1.77-.28-1.68-1.38S132.11,158.25,133,158.07Z"/><path class="cls-38" d="M152.17,155.34a2.56,2.56,0,0,1,2.48,2.85,2.4,2.4,0,0,1-2.57,2.48,2.48,2.48,0,0,1-2.44-2.85A2.42,2.42,0,0,1,152.17,155.34Z"/><path class="cls-8" d="M192,404.09H27.77c-4.22,0-4.75-.53-4.75-4.72q0-8.49,0-17c0-3.53.72-4.27,4.2-4.27H356.71c3.35,0,3.35,0,3.36,3.35,0,6.57-.09,13.15,0,19.72.05,2.21-.45,3-2.85,3-7.15-.17-14.31-.06-21.46-.06Z"/><path class="cls-31" d="M390.54,378.12h26.19c3.93,0,4.75.84,4.75,4.86,0,5.65,0,11.3,0,17,0,3.14-1,4.14-4.21,4.14-17.95,0-35.91,0-53.87.05-1.88,0-2.4-.55-2.38-2.4.1-7.07.13-14.14,0-21.2,0-2.1.75-2.46,2.6-2.45C372.59,378.16,381.57,378.12,390.54,378.12Z"/><path class="cls-32" d="M82,357.49a2.28,2.28,0,0,1-2.52,2.16,2.26,2.26,0,1,1,.15-4.51A2.27,2.27,0,0,1,82,357.49Z"/><path class="cls-39" d="M206.86,357.54c0,1.7-.77,2.79-2.27,2.88s-2.43-1-2.46-2.54.55-2.66,2.24-2.72A2.29,2.29,0,0,1,206.86,357.54Z"/><path class="cls-35" d="M165.43,357.27c-.75-.29-1.87.41-2-.58s.8-1.53,1.84-1.57,2,.46,1.93,1.43C167.2,357.89,165.89,356.73,165.43,357.27Z"/><path class="cls-35" d="M87,357.11a2,2,0,0,1,1.17-1.82,1.84,1.84,0,0,1,2.25.38c.24.28.57.78.47,1-.35,1-1.24.39-1.88.48A12.67,12.67,0,0,1,87,357.11Z"/><path class="cls-34" d="M63.1,359a2,2,0,0,1-2.17,1.62c-.85,0-1.75-.35-1.63-1.39.15-1.3,1.32-1.32,2.28-1.25C62.18,358,63.18,357.79,63.1,359Z"/><path class="cls-40" d="M193.42,357.72a2.41,2.41,0,0,1-2.29,2.71,2.45,2.45,0,0,1-2.71-2.59,2.39,2.39,0,0,1,2.57-2.68C192.58,355.18,193.3,356.21,193.42,357.72Z"/><path class="cls-8" d="M192.2,478Q274.57,478,357,478c2.49,0,3.26.56,3.18,3.14-.2,6.65-.19,13.32,0,20,.07,2.51-.76,3.12-3.1,3-3.07-.2-6.16,0-9.23,0H28c-4.58,0-5-.44-5-5V482.79c0-4.24.52-4.78,4.68-4.78Z"/><path class="cls-31" d="M390.52,478H417c3.62,0,4.53.92,4.53,4.58,0,5.73,0,11.47,0,17.21,0,3.16-1,4.17-4.18,4.17-18,0-35.91,0-53.87,0-1.84,0-2.44-.49-2.41-2.38.11-7.15.1-14.3,0-21.45,0-1.8.62-2.23,2.3-2.22C372.39,478,381.45,478,390.52,478Z"/><path class="cls-35" d="M82.5,456.36a1.33,1.33,0,0,1,0-.49c.47-1.08-1.2-3,1.19-3.3s4.48,1,4.82,3.15a3.45,3.45,0,0,1-2.53,4.2C83.07,460.86,82.5,460.23,82.5,456.36Z"/><path class="cls-41" d="M288.7,456.38a3.69,3.69,0,0,1-3.68,3.87,4,4,0,0,1-3.76-3.92,3.81,3.81,0,0,1,3.79-3.83A3.7,3.7,0,0,1,288.7,456.38Z"/><path class="cls-41" d="M254.61,452.51a3.88,3.88,0,0,1-.08,7.74,4,4,0,0,1-3.73-3.95A3.79,3.79,0,0,1,254.61,452.51Z"/><path class="cls-32" d="M135.83,457.34a2.43,2.43,0,0,1-2.59,2.19,2.25,2.25,0,1,1,.16-4.49A2.39,2.39,0,0,1,135.83,457.34Z"/><path class="cls-42" d="M158.65,457.27c-.29,1.34-1,2.27-2.47,2.27a2.09,2.09,0,0,1-2.35-2.25,2.07,2.07,0,0,1,2.33-2.26C157.67,455,158.35,455.94,158.65,457.27Z"/><path class="cls-32" d="M124.46,455.15a2,2,0,0,1,1.38,2.4,2.17,2.17,0,0,1-2.65,2,2.1,2.1,0,0,1-2.11-2.51C121.25,455.61,122.22,454.85,124.46,455.15Z"/><path class="cls-34" d="M107.4,457.36c0,1.79-.78,2.88-2.26,3a2.42,2.42,0,0,1-2.58-2.69,2.37,2.37,0,0,1,2.43-2.58A2.28,2.28,0,0,1,107.4,457.36Z"/><path class="cls-43" d="M191.74,457.45a2.29,2.29,0,0,1,2.35-2.41c1.67-.05,2.39,1.12,2.45,2.53.07,1.58-.8,2.83-2.47,2.76C192.63,460.26,191.74,459.23,191.74,457.45Z"/><path class="cls-44" d="M173.05,454.69c-.25-1.5,0-2.36,1.73-2.17,1.44.15,3,.12,3,2.08s-1.62,1.9-3,2C173.05,456.82,172.75,456,173.05,454.69Z"/><path class="cls-35" d="M225.76,457.09a2.08,2.08,0,0,1,1.39-2,1.92,1.92,0,0,1,2.22.6c.27.33.55.77.28,1.09-.47.58-1.21.24-1.83.29S226.53,457.09,225.76,457.09Z"/><path class="cls-33" d="M93.47,457c.38-1.42,1.07-2.09,2.33-2a1.75,1.75,0,0,1,1.76,2Z"/><path class="cls-45" d="M66,96.11c-.88-1.26-.5-2.35-.58-3.35s-.31-2.13-1.54-2.21c-1.43-.11-1.33,1.09-1.49,2.09s.64,3-.62,3c-1.58,0-.72-2-.76-3.06-.13-3.18,1.26-4.17,4.31-3.13a2.74,2.74,0,0,0,2.07,0c2.11-.79,3.54.26,3.53,2.59,0,1.24.57,3.53-.51,3.53-1.83,0-.57-2.08-.86-3.22-.21-.81-.11-1.77-1.22-1.87s-1.46.91-1.71,1.78C66.29,93.42,66.82,94.7,66,96.11Z"/><path class="cls-45" d="M50,94.76a10.35,10.35,0,0,1-1.9.64,3,3,0,0,1-3.14-1.55,2.72,2.72,0,0,1,.14-3.26c.82-1,1.92-2,3.17-1.22,1,.64,2.88-.82,3.07.95.26,2.34.7,5-1.18,6.87-1.21,1.22-2.91,1-4.44.31a.75.75,0,0,1-.49-.89C46.7,96.08,49.22,98,50,94.76Z"/><path class="cls-45" d="M29.25,95.61c1.16-2.56,2.3-5.17,3.52-7.75.54-1.14,1.31-1.3,1.91,0,1.08,2.23,2.07,4.5,3.09,6.76.17.38.37.82,0,1.13s-.75,0-1.05-.32c-2.28-2.21-3.76-2.15-6.13.22C30.26,95.91,29.87,96,29.25,95.61Z"/><path class="cls-46" d="M78.33,94.8c-1.11,1.6-2.62,1.39-4.06.79a3,3,0,0,1-1.71-3.49,3.24,3.24,0,0,1,2.94-2.9,2.87,2.87,0,0,1,3.08,2c.58,1.21.37,1.92-1.13,1.85a4.58,4.58,0,0,0-1,0c-.76.13-1.67-.41-2.26.45-.07.12.09.47.23.65a1.87,1.87,0,0,0,2.42.59C77.32,94.51,77.76,94.24,78.33,94.8Z"/><path class="cls-47" d="M59,92.34c0,3.59,0,3.58-3.24,3.64C53.23,96,53,94.31,53,92.45a1,1,0,0,1,0-.24c.19-.9-.49-2.54.62-2.56,1.61,0,.69,1.66.8,2.57.15,1.2.13,2.51,1.68,2.53,1.26,0,1.34-1.13,1.47-2.18s-.68-2.93.74-2.89S58.52,91.66,59,92.34Z"/><path class="cls-48" d="M86.42,93.31c0,.33,0,.67,0,1-.07.6.24,1.55-.76,1.51s-.57-1-.72-1.57c-.32-1.34,1-3.71-1.59-3.65-2.25,0-1.18,2.26-1.45,3.57-.12.59.27,1.57-.65,1.62-1.22.07-.66-1-.8-1.68a5.44,5.44,0,0,1,0-1c0-3.81.29-4.28,3.52-4C86.37,89.4,86.46,91.4,86.42,93.31Z"/><path class="cls-48" d="M92,95.49c-1.12.65-2,.65-2.74,0s-1.3-6.74-.58-7.57c.51-.58,1.19-.54,1.21.26,0,1.35,1.22,1.12,1.89,1.6C89.21,91.61,89.22,93.83,92,95.49Z"/><path class="cls-47" d="M43.72,90c-2.27,1.14-3.07,2.76-2.76,5,.07.5-.12,1-.82.93-.51-.07-.61-.49-.61-.91,0-1.48,0-3,0-4.44,0-.42.27-1.11.52-.93C41.14,90.36,42.27,88.93,43.72,90Z"/><path class="cls-4" d="M391.86,94.74c-.82.21-1.33.37-1.95-.49-1.11-1.56-2.62-1.55-3.77,0-.44.59-.85.85-1.38.63-.85-.36-.18-1,0-1.39.64-1.6,1.34-3.19,2-4.78.25-.59.4-1.25,1.3-1.24s1,.76,1.26,1.31C390.22,90.74,391,92.73,391.86,94.74Z"/><path class="cls-6" d="M379.8,95a3.42,3.42,0,0,1-3.5-2.27,3.53,3.53,0,0,1,1-4.29,3.65,3.65,0,0,1,4.17-.63c.47.22,1.23.38.89,1.17s-.85.69-1.45.33a1.89,1.89,0,0,0-2.66.49,2.11,2.11,0,0,0-.35,2.32,2,2,0,0,0,2.62,1.25c.66-.15,1.58-1,1.84.09s-1,1.28-1.8,1.5A3.74,3.74,0,0,1,379.8,95Z"/><path class="cls-49" d="M401,90.9c.44-1-.76-3.19.69-3.17,1.83,0,.83,2.28.8,3.45-.05,1.91.54,2.55,2.38,2.28.56-.08,1.49-.29,1.39.83-.08.89-.83.61-1.36.65C401,95.24,401,95.23,401,90.9Z"/><path class="cls-4" d="M393.82,91.33c0-.82,0-1.65,0-2.47,0-.55-.11-1.27.73-1.3,1,0,.87.77.89,1.4a11.09,11.09,0,0,1,0,1.73c-.22,1.9.06,3.28,2.51,2.76.44-.1,1-.1,1.08.63s-.52.81-1.11.88C394,95.42,393.82,95.31,393.82,91.33Z"/><path class="cls-45" d="M65.93,295.93c-.79-1.53-.36-2.73-.55-3.86-.16-1-.58-1.84-1.71-1.77s-1.23.95-1.25,1.84a.7.7,0,0,1,0,.25c-.36,1.05.77,3.07-.85,3-1.24,0-.52-2.11-.56-3.26-.11-2.79,1.35-3.88,4.06-3a3.33,3.33,0,0,0,2.54.06,2.33,2.33,0,0,1,3.33,2.13,29.18,29.18,0,0,1,0,3.24c0,.5,0,1.1-.73,1s-.67-.64-.68-1.14c0-.75,0-1.5,0-2.25s-.05-1.78-1.15-1.91-1.47.87-1.74,1.74C66.28,293.16,66.85,294.46,65.93,295.93Z"/><path class="cls-45" d="M45.2,296.39c1.5-.53,4,1.34,4.78-1.86a10.35,10.35,0,0,1-1.9.64,2.94,2.94,0,0,1-3.14-1.54,2.67,2.67,0,0,1,.13-3.25c.81-1,1.91-2,3.16-1.24,1,.63,2.88-.8,3.08.95.26,2.33.7,5-1.18,6.87-1.2,1.22-2.9,1-4.44.32A.75.75,0,0,1,45.2,296.39Z"/><path class="cls-45" d="M29.23,295.4c1.12-2.47,2.19-4.89,3.29-7.28.27-.57.41-1.35,1.27-1.33s.88.7,1.11,1.19c1,2.1,1.9,4.21,2.85,6.32.17.38.38.81,0,1.14s-.74,0-1.05-.25c-2.4-2.24-3.87-2.2-6.12.15C30.29,295.66,29.92,295.79,29.23,295.4Z"/><path class="cls-46" d="M78.33,294.57c-1.11,1.61-2.62,1.4-4.06.79a2.94,2.94,0,0,1-1.71-3.48A3.22,3.22,0,0,1,75.5,289a2.86,2.86,0,0,1,3.08,2c.57,1.2.37,1.91-1.13,1.85a4,4,0,0,0-1,0c-.76.13-1.67-.42-2.26.45-.07.12.09.47.23.64a1.86,1.86,0,0,0,2.42.59C77.32,294.28,77.76,294,78.33,294.57Z"/><path class="cls-47" d="M59,292.31c0,3.44,0,3.44-3.31,3.45-2.52,0-2.62-1.78-2.67-3.6a3.64,3.64,0,0,1,0-.74c.14-.74-.45-2,.69-2.06s.64,1.24.76,1.95,0,1.17.07,1.73c.14.91.68,1.59,1.65,1.5A1.42,1.42,0,0,0,57.51,293a3.07,3.07,0,0,1,0-.74c.27-1-.64-2.87.84-2.79C59.62,289.54,58.65,291.46,59,292.31Z"/><path class="cls-48" d="M80.43,292.58c0-3.5,0-3.62,3.28-3.64,2.3,0,2.82,1.75,2.67,3.65-.08,1,.73,2.84-.74,2.88-1.3,0-.55-1.75-.67-2.71-.15-1.15.12-2.54-1.63-2.47-1.54,0-1.34,1.34-1.48,2.4s.54,2.83-.61,2.75C79.61,295.33,80.84,293.42,80.43,292.58Z"/><path class="cls-48" d="M92.05,289.88c-1.59.24-2.25.9-2.18,2.42s.41,2.38,1.94,2.87c-1.17.67-2.45,1-2.89-.54a11.86,11.86,0,0,1-.45-6.45c.12-.42.2-.83.7-.88a.67.67,0,0,1,.74.78C89.83,289.39,91.29,289,92.05,289.88Z"/><path class="cls-47" d="M39.51,292.32c0-3.24,0-3.24,3.05-3.12.33,0,.66,0,.75.45s-.25.57-.53.72A3.3,3.3,0,0,0,41,293.84c0,.63.38,1.75-.72,1.73s-.63-1.11-.72-1.77A12.18,12.18,0,0,1,39.51,292.32Z"/><path class="cls-4" d="M384.15,294.69c1-2.33,1.83-4.47,2.82-6.53.66-1.39,1.55-1.38,2.2.07q1.23,2.7,2.35,5.45c.12.28.57.79-.1,1-.36.09-1,.08-1.15-.14-1.54-2.25-3-2.25-4.49,0C385.62,294.77,384.88,294.63,384.15,294.69Z"/><path class="cls-6" d="M379.75,294.77a3.47,3.47,0,0,1-3.48-2.33,3.56,3.56,0,0,1,.7-3.93,3.82,3.82,0,0,1,4.09-1.12c.58.18,1.53.43,1.35,1.18-.22,1-1,.75-1.78.38a1.89,1.89,0,0,0-2.56.85,2.19,2.19,0,0,0,.07,2.57,2,2,0,0,0,2.42.75c.68-.19,1.54-1,1.82.15.23,1-.88,1.19-1.64,1.42A4.06,4.06,0,0,1,379.75,294.77Z"/><path class="cls-49" d="M401,291.09c0-.91,0-1.83,0-2.74,0-.49,0-1,.72-1.05s.81.42.83.95a14.68,14.68,0,0,1,0,2c-.21,2-.06,3.52,2.6,3,.44-.09,1-.1,1.11.62.08.9-.57.81-1.15.87C401.11,295.19,401,295.1,401,291.09Z"/><path class="cls-4" d="M393.82,290.93c.47-1-.87-3.35.73-3.4,1.79-.06.84,2.23.82,3.41,0,1.8.4,2.6,2.31,2.29.57-.1,1.44-.27,1.34.84-.08.92-.82.6-1.32.64C393.82,295,393.82,295,393.82,290.93Z"/><path class="cls-45" d="M65.92,196c-.8-1.39-.36-2.58-.52-3.68s-.48-1.87-1.61-1.88-1.24,1-1.4,2c-.2,1.13.65,3.25-.7,3.17s-.63-2.2-.69-3.4c-.13-2.6,1.36-3.72,3.94-2.94a3.86,3.86,0,0,0,2.78.07c1.75-.67,2.81.31,3.22,2a1.2,1.2,0,0,1,0,.5c-.32,1.28.76,3.61-.64,3.69-1.55.09-.52-2.13-.77-3.31-.18-.85-.19-1.75-1.3-1.8s-1.31.86-1.59,1.64C66.23,193.19,66.91,194.51,65.92,196Z"/><path class="cls-45" d="M49.88,194.56c-1.23.66-2.34,1.1-3.56.46a3,3,0,0,1-1.79-3.25,2.77,2.77,0,0,1,2.61-2.6c1.39,0,3.25-.38,4.16.9s-.08,6.18-1.18,7.1-3.22.85-5.12-.48C46.56,195.79,49.41,198.06,49.88,194.56Z"/><path class="cls-45" d="M29.19,195.62c1.18-2.63,2.29-5.11,3.42-7.59.23-.5.41-1.15,1.15-1.13s.89.67,1.12,1.17c1,2.09,1.91,4.21,2.86,6.32.19.44.47,1-.15,1.26-.42.2-.7-.21-1-.53-1.82-2-4.07-1.93-5.83.11a2.67,2.67,0,0,1-.79.53C29.86,195.82,29.67,195.71,29.19,195.62Z"/><path class="cls-46" d="M78.39,194.62c-1.9,1.62-4.06,1.57-5.22,0a3.69,3.69,0,0,1,.87-5,3,3,0,0,1,4.41,1.18c.68,1.29.74,2.26-1.18,2.14a5.05,5.05,0,0,0-1.23,0c-.64.14-1.8-.44-1.78.6s1,1.39,2.07,1.25C76.94,194.69,77.49,194.06,78.39,194.62Z"/><path class="cls-47" d="M59,192.53c0,3.28,0,3.28-3.23,3.34-2.69,0-2.77-1.87-2.72-3.76,0-.91-.51-2.54.59-2.57,1.63,0,.7,1.65.81,2.55.15,1.2.12,2.55,1.67,2.54s1.46-1.3,1.45-2.41a2.09,2.09,0,0,1,0-.5c.2-.79-.5-2.25.76-2.22s.47,1.48.66,2.29A3,3,0,0,1,59,192.53Z"/><path class="cls-48" d="M80.43,192.38c0-3.09.28-3.48,3.4-3.35,2.11.09,2.61,1.71,2.59,3.55a1.85,1.85,0,0,1,0,.24c-.23,1,.6,2.71-.65,2.77-1.56.06-.62-1.67-.79-2.59-.19-1.1.24-2.56-1.51-2.6s-1.53,1.38-1.57,2.53a2.66,2.66,0,0,1,0,.49c-.2.79.53,2.25-.76,2.21s-.5-1.46-.68-2.26A4.67,4.67,0,0,1,80.43,192.38Z"/><path class="cls-48" d="M92,195.44c-1.26.56-2.18.63-2.93-.34s-1-6.31-.48-7.17c.39-.68,1.17-.8,1.22-.1.08,1.41,1.21,1.35,2,1.81C89.19,191.37,89.19,193.66,92,195.44Z"/><path class="cls-47" d="M39.51,192.38c0-3.16.15-3.31,3.1-3.06.23,0,.56.11.63.27.24.49-.14.73-.51.93A3.31,3.31,0,0,0,41,194c0,.62.39,1.72-.78,1.68-.92,0-.61-1-.66-1.59S39.51,193,39.51,192.38Z"/><path class="cls-4" d="M384.22,194.65c.92-2.17,1.76-4.3,2.74-6.36.66-1.39,1.54-1.41,2.21,0,.82,1.8,1.6,3.63,2.35,5.46.11.28.56.78-.09,1-.36.1-1,.09-1.15-.13-1.65-2.6-3.16-1.83-4.68.11-.07.1-.31.09-.47.08S384.65,194.73,384.22,194.65Z"/><path class="cls-6" d="M380.2,187.31a6.84,6.84,0,0,1,1.25.38c.48.22,1.23.38.9,1.16s-.83.69-1.44.34a2,2,0,0,0-2.81.68,2.13,2.13,0,0,0,0,2.56,2,2,0,0,0,2.84.62c.63-.31,1.17-.4,1.45.27s-.46,1-.92,1.2a3.72,3.72,0,0,1-4.18-.52,3.57,3.57,0,0,1-1-4.28C376.94,188,378.33,187.41,380.2,187.31Z"/><path class="cls-49" d="M401,191.09a18.87,18.87,0,0,1,0-2c.07-.63-.41-1.71.82-1.64s.63,1.12.73,1.76a6.34,6.34,0,0,1,0,1.74c-.23,1.72.18,2.73,2.21,2.39.55-.09,1.5-.34,1.49.73s-.92.7-1.51.74C401,195,401,195,401,191.09Z"/><path class="cls-4" d="M396.23,194.83c-2.24.69-2.63-.68-2.43-2.77.11-1.14,0-2.3,0-3.46,0-.57,0-1.23.87-1.16.66.05.74.54.75,1.06a16.64,16.64,0,0,1,0,1.73c-.19,2-.15,3.67,2.64,3.1.52-.1,1,.08,1,.78s-.52.71-1,.72Z"/><path class="cls-45" d="M66.07,395.84c-1-1.42-.54-2.52-.66-3.56s-.41-2.09-1.66-2.09-1.19,1.08-1.36,2c-.21,1.11.73,3.13-.76,3.13-1.3,0-.41-2.08-.67-3.2-.55-2.38.61-3.3,2.83-3.21a27.94,27.94,0,0,0,4.93,0c1.83-.25,2.49,1.65,2.21,3.42-.16,1.05.72,2.95-.65,3s-.54-1.89-.74-2.92.1-2.22-1.34-2.23-1.46,1.18-1.64,2.15S66.71,394.45,66.07,395.84Z"/><path class="cls-45" d="M44.59,396.36c4.49-.23,4.49-.23,5.29-1.66-.39-.57-.67,0-1,.13a3,3,0,0,1-3.76-1,2.69,2.69,0,0,1-.16-3.46c.9-1.21,2.2-2.21,3.58-1.23.93.65,2.9-1.22,2.82,1.19s.79,5.2-1.77,6.83C48.2,398.07,46.51,397.86,44.59,396.36Z"/><path class="cls-45" d="M29.22,395.33c1.14-2.55,2.25-5,3.38-7.51.23-.5.41-1.15,1.14-1.15s.9.66,1.14,1.15c1,2.1,1.9,4.22,2.85,6.33.2.44.48,1-.12,1.27-.41.21-.71-.19-1-.51-1.87-2-4.08-2-5.82.09A1.12,1.12,0,0,1,29.22,395.33Z"/><path class="cls-46" d="M78.61,394.25a3.3,3.3,0,0,1-4.42,1,3,3,0,0,1-1.62-3.54,3.27,3.27,0,0,1,3-2.83,2.84,2.84,0,0,1,2.92,1.85c.64,1.27.52,2.08-1.17,2a2,2,0,0,0-.49,0c-.87.13-1.83-.35-2.59.32-.31.27,0,.63.23.86.87,1,1.88.75,2.92.3C77.61,394.08,77.88,394.19,78.61,394.25Z"/><path class="cls-50" d="M59,392.08c0,3.56,0,3.55-3.31,3.56-2.52,0-2.62-1.76-2.67-3.59a3.65,3.65,0,0,1,0-.74c.14-.74-.44-2,.69-2.06s.64,1.23.76,1.95c.09.56,0,1.16.07,1.73.14.9.68,1.59,1.64,1.5a1.43,1.43,0,0,0,1.34-1.53,3.07,3.07,0,0,1,0-.74c.27-1-.63-2.88.83-2.8C59.64,389.43,58.56,391.36,59,392.08Z"/><path class="cls-48" d="M80.43,392.4c0-3.52,0-3.65,3.34-3.59,2.28.05,2.77,1.84,2.61,3.73-.09,1,.72,2.8-.8,2.8-1.2,0-.49-1.78-.62-2.75s.12-2.36-1.44-2.42c-1.72-.06-1.51,1.32-1.66,2.47-.12,1,.59,2.82-.67,2.71C79.68,395.21,80.79,393.29,80.43,392.4Z"/><path class="cls-48" d="M92.56,389.46c-1.62.74-2.81.74-2.68,2.28s0,2.86,2.6,3.16c-1.79.88-3,1.12-3.49-.22a12,12,0,0,1-.5-6.7c.1-.44.26-.8.77-.79a.58.58,0,0,1,.62.63C89.83,389.13,91,389,92.56,389.46Z"/><path class="cls-47" d="M43.67,389.48c-2.07,1.26-3.09,2.86-2.72,5.13a.68.68,0,0,1-.62.88c-.68.05-.79-.45-.8-1,0-.74,0-1.48,0-2.22C39.51,388.92,39.51,388.92,43.67,389.48Z"/><path class="cls-4" d="M384.24,394.34c.88-2,1.77-4.08,2.63-6.13.23-.56.42-1,1.16-1.08s1,.48,1.19,1c.86,2.05,1.75,4.09,2.57,6.57C389.27,392.29,386.81,392.61,384.24,394.34Z"/><path class="cls-6" d="M379.72,394.65a3.43,3.43,0,0,1-3.46-2.35,3.54,3.54,0,0,1,1.09-4.26,3.65,3.65,0,0,1,4.18-.54c.46.23,1.23.39.79,1.2a.84.84,0,0,1-1.27.34,2,2,0,0,0-3,.68,2.1,2.1,0,0,0,.1,2.56,2,2,0,0,0,2.87.51c.66-.36,1.18-.28,1.4.38s-.44.78-.8,1.06A3,3,0,0,1,379.72,394.65Z"/><path class="cls-49" d="M401,390.58c.43-1-.75-3.2.67-3.18,1.85,0,.84,2.26.82,3.43,0,1.88.5,2.57,2.37,2.29.55-.08,1.48-.3,1.4.82-.06.89-.82.62-1.34.66C401,394.91,401,394.91,401,390.58Z"/><path class="cls-4" d="M393.82,390.46c.48-.91-.86-3.09.83-3.08s.77,2.18.73,3.31c-.05,1.88.41,2.76,2.41,2.42.51-.08,1.22-.2,1.24.72s-.66.73-1.2.78C393.82,395,393.82,395,393.82,390.46Z"/><path class="cls-25" d="M37,491.12c0,2.7-1.68,4.52-4,4.42-2.11-.09-3.62-2-3.56-4.57s1.86-4.57,4-4.47S37.07,488.58,37,491.12Z"/><path class="cls-4" d="M391.8,494.32c-.78.18-1.28.3-1.91-.55-1.11-1.52-2.63-1.55-3.77.06-.44.62-.9.82-1.39.59-.79-.38-.15-1,0-1.41.65-1.61,1.36-3.19,2-4.78.26-.61.44-1.25,1.33-1.21s.9.61,1.12,1.12q1,2.39,2.06,4.77C391.5,493.36,391.63,493.83,391.8,494.32Z"/><path class="cls-6" d="M380.12,494.53a3.74,3.74,0,0,1-3.06-6.34,3.69,3.69,0,0,1,4.11-1c.54.19,1.48.33,1.2,1.23s-.94.67-1.63.31a1.89,1.89,0,0,0-2.6.71,2.14,2.14,0,0,0-.06,2.56,2,2,0,0,0,2.6.81c.62-.21,1.32-.8,1.67.08s-.69,1.12-1.26,1.44A2.28,2.28,0,0,1,380.12,494.53Z"/><path class="cls-49" d="M401,490.53c.63-.93-1.11-3.2.86-3.25,1.46,0,.67,2.2.65,3.37,0,1.75.29,2.69,2.28,2.36.55-.09,1.5-.33,1.47.75s-.94.69-1.52.72C401,494.69,401,494.68,401,490.53Z"/><path class="cls-4" d="M393.82,490.73c.45-1-.79-3.43.69-3.42,1.94,0,.86,2.38.86,3.62,0,1.84.65,2.27,2.28,2.07.56-.07,1.44-.3,1.37.82,0,.92-.78.63-1.29.67C393.82,494.81,393.82,494.8,393.82,490.73Z"/><path class="cls-51" d="M50,92.22c-.21,1.23-.9,2.07-2.11,2A1.79,1.79,0,0,1,46,92.34c0-1.18.52-1.86,1.74-1.9A2.05,2.05,0,0,1,50,92.22Z"/><path class="cls-52" d="M35.13,92.24c-.91.32-2.25.55-2.55,0-.58-1.08.71-2,1-3.24A7,7,0,0,1,35.13,92.24Z"/><path class="cls-51" d="M74.12,92c.58-1.49,1.4-1.75,2.46-1.38.38.13.85.6.62.89C76.42,92.51,75.33,91.85,74.12,92Z"/><path class="cls-53" d="M388,89.79c.59.79,1.17,1.32.59,2a1.16,1.16,0,0,1-1.11,0C387,91.15,387.55,90.63,388,89.79Z"/><path class="cls-51" d="M47.86,290.21a1.85,1.85,0,0,1,2,1.86A1.83,1.83,0,0,1,48,294,1.81,1.81,0,0,1,46,292.08C46,290.88,46.55,290.26,47.86,290.21Z"/><path class="cls-52" d="M32.32,292.08a8.68,8.68,0,0,1,1.47-3.28l1.54,3.28Z"/><path class="cls-51" d="M74.12,291.67c.63-1.43,1.46-1.68,2.5-1.27.38.15.84.63.57.92C76.37,292.21,75.3,291.69,74.12,291.67Z"/><path class="cls-53" d="M388.73,290.88c.26.58,0,.81-.51.82s-1.12.15-.94-.65c.1-.43.11-1.1.69-1.18S388.47,290.57,388.73,290.88Z"/><path class="cls-51" d="M50,192.24c-.32,1.19-1,2-2.25,1.85a1.8,1.8,0,0,1-1.73-2c.06-1.38.88-1.87,2.12-1.74A2,2,0,0,1,50,192.24Z"/><path class="cls-52" d="M35.37,192.27h-3c0-1.24.77-2.1,1.37-3.48Z"/><path class="cls-51" d="M74.12,191.78c.63-1.43,1.46-1.68,2.5-1.26.38.14.84.62.57.91C76.37,192.32,75.3,191.81,74.12,191.78Z"/><path class="cls-53" d="M387.88,189.94c.67.52,1.25,1.06.67,1.77a1.16,1.16,0,0,1-1.11-.05C386.83,191,387.76,190.57,387.88,189.94Z"/><path class="cls-51" d="M50,392c-.29,1.21-1,2-2.21,1.91a1.8,1.8,0,0,1-1.77-2,1.63,1.63,0,0,1,1.84-1.8A2,2,0,0,1,50,392Z"/><path class="cls-52" d="M32.34,392a8.31,8.31,0,0,1,1.37-3.19c.68,1,1.61,2.06,1.26,3S33.29,392.09,32.34,392Z"/><path class="cls-51" d="M75.57,391.68c-.42-.2-1.34.36-1.23-.59a1.35,1.35,0,0,1,1.5-1c.69,0,1.45.25,1.35,1S76.13,391.48,75.57,391.68Z"/><path class="cls-53" d="M388,389.44c.57.82,1.19,1.34.57,2.05a1.16,1.16,0,0,1-1.11-.06C387,390.81,387.55,390.28,388,389.44Z"/><path class="cls-36" d="M30.89,491.13c0-1.61.43-3.27,2.25-3.35,2-.08,2.52,1.66,2.52,3.33s-.49,3.24-2.36,3.24S31,492.74,30.89,491.13Z"/><path class="cls-53" d="M388,489.45c.52.65,1,1.19.53,1.9a1.16,1.16,0,0,1-1.1,0C387,490.63,387.48,490.08,388,489.45Z"/></g></g></g></svg>