<svg id="Layer_1" data-name="Layer 1" xmlns="http://www.w3.org/2000/svg" viewBox="0 0 565.16 789.04"><path d="M597.05,148.23a268.34,268.34,0,0,1,42.75,20.71c16.4,9.64,31.6,20.82,43.92,35.5,14.42,17.19,22.42,36.71,20.51,59.48-2.47,29.51-17,51.66-41.9,67.25a153.17,153.17,0,0,1-27.09,13.28c-1.37.52-2.73,1.1-4.53,1.83,7.14,3.88,13.93,7.44,20.41,11.55a141,141,0,0,1,26.24,20.95c20.81,21.63,24.64,46.59,11.23,73.56-11.28,22.7-29.2,39-50.59,51.7-25.36,15.12-53,24.22-81.67,30.62a502,502,0,0,1-97.77,11.91c-.78-3.22,1.07-5.88,2.09-8.61q12.69-34,25.4-68c8.25-22.06,16.27-44.21,24.51-66.28q7.06-18.94,14-37.94c.52-1.41.81-2.95,2.34-3.74,2.58-1,5.38,0,8-.91,11.33-.5,22.64-1.27,33.9-2.62,19.57-2.34,38.87-6,57.74-12.09-.25-1.39-1.4-1.5-2.22-1.88-24.31-11.35-49.65-19.83-75.47-27a11.3,11.3,0,0,1-3.87-1.46,2.23,2.23,0,0,1-.65-1c.23-4.51,2.31-8.47,3.84-12.57q18.25-48.91,36.24-97.94c5.76-15.76,11.56-31.5,17.55-47.17,1.61-4.21,1.51-4.23-2.45-6.32C598.31,150.47,596.72,150.15,597.05,148.23Z" transform="translate(-222 -100.66)"/><path d="M510.76,306.83c-55-12.61-110.81-20.62-167.84-26.16,3.44-2.42,6.24-4.43,9.08-6.39q48.24-33.27,96.54-66.46c2.58-1.77,2.66-3,1.35-5.62Q425.81,153.65,402,105c-.6-1.23-1.16-2.48-2-4.32,5.13.59,9.8,1,14.43,1.67,40.92,5.75,81.43,13.56,121.22,24.78,14.14,4,28.27,8,41.91,13.6-1.17,1.22-2.55.81-3.89.46-1.71-.45-3.37-1.07-5.06-1.56-5.91-1.71-6-1.75-7.76,4.33-7.79,26.76-15.76,53.48-23.72,80.19s-15.83,53.44-24,80.09a5.47,5.47,0,0,1-1.2,2.33A1.3,1.3,0,0,1,510.76,306.83Z" transform="translate(-222 -100.66)"/><path d="M364.71,706.59c-9.65-4.25-19.86-5.5-30.26-5.53-22.33-.06-44.66,0-67,0a9.54,9.54,0,0,0-2.27,0c-2.81.66-2.36,3.34-2.67,5.18-.35,2,1.74,1.22,2.77,1.25,4.54.09,9.09.24,13.62,0,3.28-.2,4,.57,3.14,3.88q-20.44,79.49-40.7,159c-.8,3.15-.46,7.5-2.88,9.08s-6.32.61-9.58.64c-6.19.07-6.19,0-6.89,6.4,13.39,0,26.75.13,40.12,0,17.65-.22,35.34,1,52.95-.76,14.09-1.41,27.33-5.39,39-13.86,22.07-16,26.92-58.06-6.68-74A115.58,115.58,0,0,0,328.16,791a98.5,98.5,0,0,0,25.4-6.6c12.17-5.2,22.42-12.67,28.34-24.87C389.7,743.5,388.77,717.18,364.71,706.59Zm-20.78,121c-.81,10.2-3.87,20-7.37,29.58-5.76,15.84-18.4,21.47-34,22.4-5.53.33-11.09.06-16.64.06v.45c-5.68,0-11.36-.1-17,0-2.46.06-3.39-.37-2.67-3.12q10.61-40.51,21-81.09c.36-1.41.49-2.73,2.46-2.63,11.06.55,22.22.09,33.08,2.76C339.37,800.15,345.16,812.26,343.93,827.64Zm8.67-62.87c-6.19,12.71-16.1,20-30.58,20.43-5.8.18-11.58.61-17.37.93v.15c-3.78,0-7.58-.23-11.33.06-3.36.27-3.58-.86-2.82-3.74,5.48-20.92,10.81-41.88,16.19-62.82.87-3.41,1.84-6.8,2.63-10.22.3-1.31.82-2,2.22-2,10.45.2,21-.83,31.31,1.24,10.61,2.12,15.3,7.39,16.21,18.82C360.07,740.47,358.31,753,352.6,764.77Z" transform="translate(-222 -100.66)"/><path d="M511.49,306.77c4-14.09,8.17-28.1,12.53-42.07,4.6-14.71,8.72-29.56,13.11-44.34,5.21-17.54,10.5-35.05,15.72-52.59,2.68-9,5.28-18,7.88-27.06,1.12-3.87,1.81-4.08,5.58-3s7.22,3,11.21,3a143.44,143.44,0,0,1,19.53,7.53c1.26,2.23,3.91,2,5.76,3.25,1.32.87,2,1.45,1.32,3.25-6.27,16.42-12.51,32.86-18.59,49.35-4.43,12-8.27,24.2-13,36.08-5.79,14.58-10.82,29.43-16.49,44-3.94,10.17-7.55,20.48-11.31,30.72-1.46,1.25-3,.79-4.63.36C531.8,313,523.42,311,515,309,513.64,308.68,511.94,308.66,511.49,306.77Z" transform="translate(-222 -100.66)"/><path d="M560.4,860.13c7.38-26.66,14.7-53.34,22.2-80,.92-3.27,0-3.73-3-3.6-4.4.2-8.83.19-13.23,0-2.53-.11-3.89.53-4.55,3.17-.89,3.52-2.28,6.91-3.61,10.81-1.35-2.39-2.31-4.3-3.45-6.1-5-7.9-12.28-11.28-21.48-10.58a40.38,40.38,0,0,0-11.41,2.48c-18,6.85-30.81,19.69-40.79,35.64-8.74,13.95-13.54,29-10.49,45.65,2.55,14,8.91,25.38,23.17,30.08,14.58,4.81,27.25.43,38.13-9.87,1.81-1.72,3.36-3.7,5.07-5.6,5.39,15.18,14.85,20.52,27.81,15.8,10.11-3.68,16.32-10.58,14.35-16-1.47.35-2.12,1.7-3.12,2.59-3.14,2.81-6.53,5.13-10.76,5.94-6.62,1.27-9.76-1.89-8.2-8.43C558.05,868.1,559.3,864.13,560.4,860.13Zm-16-19.78c-3.16,9.82-6.51,19.58-12.49,28.17-3.56,5.12-7.74,9.63-13.29,12.65-13,7-26.44-.32-27.59-15.07-.75-9.69,1.3-19,3.74-28.3,3.84-14.67,9.07-28.78,17-41.8a44,44,0,0,1,9.43-11.23,21,21,0,0,1,10.8-5c13.45-1.72,21.31,5.77,21.18,22.39C552.6,813.9,548.66,827.16,544.43,840.35Z" transform="translate(-222 -100.66)"/><path d="M526.64,362.55c-4.45,12-8.95,23.95-13.32,36-6.52,17.88-12.84,35.82-19.44,53.67-7.71,20.81-15.65,41.54-23.45,62.32-4,10.67-7.92,21.38-11.87,32.07v.23c-5.21,2.71-10.79,1.65-16.27,1.48a1.94,1.94,0,0,1-2.12-1.73q9.45-32.1,18.9-64.2,17.54-59.42,35.09-118.84a16.12,16.12,0,0,1,.75-1.71c4.65-2.27,9.62-1.18,14.41-1,4.48.14,9,.65,13.47.64C524.16,361.4,525.57,361.45,526.64,362.55Z" transform="translate(-222 -100.66)"/><path d="M721.75,832.61a141.6,141.6,0,0,0,23.7-2.14c11.78-2.14,23.11-5.44,32.27-13.66,15.08-13.52,11.55-35.22-6.68-41.33a30.54,30.54,0,0,0-10.77-1.71c-16.49.51-30,7.74-41.76,18.76C703.45,806.69,694,823.7,693,844.75a46.53,46.53,0,0,0,.87,9.44c3.8,16.76,13,29.09,30,33.73s31.88.12,43.71-13.31c3.68-4.18,6.49-9,9.49-13.63,1.68-2.59.47-3.6-1.5-5-2.83-2-2.78.91-3.57,2-2,2.74-3.69,5.72-5.66,8.49-6.53,9.18-15.09,14.82-26.6,16-12.23,1.3-20.86-4.32-23.93-16.28-2.69-10.44-.24-20.47,2.19-30.55C718.55,833.41,719.39,832.64,721.75,832.61Zm-.38-9.89c3.68-11.14,7.91-22.06,15.29-31.38,4.29-5.43,9.28-10,16.59-10.88,8-.91,14.12,4.43,14.15,12.44.05,11.22-4.94,19.82-14.3,25.88-8.74,5.66-18.63,7.29-27.65,7.9C720.1,826.75,720,826.74,721.37,822.72Z" transform="translate(-222 -100.66)"/><path d="M601.37,793.43c-1-.88-.54-1.78-.35-2.56,2.72-11.15,15.43-19.08,26.62-16.65,8.23,1.79,12.89,8.55,11.19,16.86-2.62,12.83-6.75,25.27-10.26,37.86-3.72,13.33-7.5,26.64-11.24,40a35.7,35.7,0,0,0-1,4.42c-.65,4.54,1.67,7.84,6.22,8.81,7.58,1.61,14.19-.85,20.24-5.15a61.42,61.42,0,0,0,16.34-18.16c10.33-16.66,17.61-34.48,20-54.09.69-5.79-.88-7.44-6.82-7.65l-1.51,0c-8.31-.32-11.66-3.44-11.77-11a13.19,13.19,0,0,1,12.08-13.14c6.45-.43,11.76,3.48,14.39,10.57,2.37,6.38,1.83,12.93.87,19.43-3.29,22.33-10.19,43.36-23.27,62-7.86,11.21-17.65,20.06-31.39,23.46-7.12,1.76-14.22,1.81-21.19-.84-9.75-3.69-13.81-11.07-11.53-21.24,5.62-25,13.08-49.62,19.59-74.45.23-.84.36-1.72.61-2.56a4.83,4.83,0,0,0-1.95-5.65c-2-1.47-4.06-1-6,.17-3,1.78-5.17,4.39-7.28,7.08C603.16,791.82,602.61,793,601.37,793.43Z" transform="translate(-222 -100.66)"/><path d="M387.28,886.5c2.94-12,5.81-23.71,8.68-35.41,5.31-21.63,10.56-43.27,16-64.86.73-2.9,0-3.46-2.7-3.37-4.91.16-9.84.11-14.76,0-1.09,0-3.44,1-3.07-1.17.33-1.9-.23-5.14,3.57-5.08,8.59.12,17.13-.8,25.67-1.43,4.63-.35,9.25-.87,14.44-1.37-2.31,9.39-4.53,18.45-6.76,27.51,3.65-5.21,6.93-10.58,11.26-15.19,5.62-6,11.93-10.82,20.35-12.19,8.68-1.41,15.81,3.86,15.5,11.53-.32,8.15-8.68,13-16.2,9.28a44.58,44.58,0,0,1-5.89-4.08c-3.87-2.78-6.05-2.74-9.72.56-6.86,6.18-11.49,13.95-15.61,22.09-7,13.76-9.49,28.87-13.37,43.56-2.37,9-4.59,18-6.82,27.08-.35,1.43-.51,2.63-2.49,2.6C399.46,886.44,393.54,886.5,387.28,886.5Z" transform="translate(-222 -100.66)"/><path d="M526.64,362.55l-31.73-.74q7.74-25.81,15.46-51.64a18.37,18.37,0,0,0,.39-3.34,1.3,1.3,0,0,1,.73-.06c11,2.94,22,6,33.27,8.16a4.8,4.8,0,0,1,.11.57c-1,6.39-4,12.1-6.19,18.1-2.73,7.55-5.43,15.11-8.37,22.59-1.55,3.95-1.52,4,2.77,4.76a2.27,2.27,0,0,1,1.89,1C532.25,362.94,529.42,362.37,526.64,362.55Z" transform="translate(-222 -100.66)"/><path d="M409.31,673c-4.89-.08-6.19-1.72-5.06-6.51.58-2.41,1.29-4.78,1.94-7.17q11-36.8,22.07-73.58c3.94-13.07,7.94-26.14,11.91-39.2,4.85,1.49,9.79.38,14.69.47,1.23,0,2.47-.14,3.71-.22q-10.06,26.82-20.12,53.65-10.21,27.39-20.32,54.82c-.22.59-.35,1.2-.53,1.8-1.44,1.22-1.52,2.88-1.53,4.58a4,4,0,0,1-.28,2.05C414.57,667.46,413.47,671.3,409.31,673Z" transform="translate(-222 -100.66)"/></svg>