<?xml version="1.0" encoding="UTF-8"?>
<svg version="1.1" viewBox="0 0 468.52 158.8" xml:space="preserve" xmlns="http://www.w3.org/2000/svg"><g transform="matrix(1.3333 0 0 -1.3333 0 158.8)"><g transform="scale(.1)" fill="#fff"><path d="m291.77 516.31c0.664 0.183 1.671 0.312 2.753 0.351 20.891 2.961 42.543 8.469 63.969 16.328 39.582 14.575 77.91 23.907 114.12 27.793-6.25 3.801-12.277 7.91-18.008 12.309l-4.281 3.195c-0.496 0.278-1.226 0.785-1.918 1.399l-0.289 0.246c-38.926 27.785-73.234 36.386-171.58 15.258-75.707-16.122-138.99 15.335-173.89 39.125-0.757-11.247-1.289-22.559-1.289-34.004 0-12.766 0.641-25.379 1.586-37.903 10.106-7.144 33.45-21.953 67.157-32.941 39.554-12.891 80.535-16.652 121.67-11.156"/><path d="m243.99 748.26c-33.316 31.961-57.402 72.316-72.996 103.97-18.797-31.636-34.18-65.523-45.66-101.18 29.672 1.062 75.184 1.515 118.66-2.797"/><path d="m255.32 484.24c-32.992-0.14-64.793 5.078-95.5 15.207-21.773 7.18-39.343 15.68-52.742 23.215 4.617-30.301 12.082-59.648 21.906-87.894 16.114 11.531 36.485 16.976 57.836 22.589 23.282 6.121 47.254 12.426 68.5 26.883"/><path d="m358.87 392.14c-34.437-14.696-69.293-31.098-95.289-66.348-11.836-16.098-22.715-38.648-32.285-62.879 23.68-25.965 50.144-49.32 78.805-69.808 11.336 20.39 19.968 44.3 21.914 71.836 4.097 59.222 12.242 98.136 26.855 127.2"/><path d="m239.02 342.79v0.25l0.992 1.004c32.406 43.898 74.269 61.625 114.74 78.769 18.922 8.012 36.773 15.582 52.668 25.579 1.527 1.203 3.355 2.597 5.234 3.98 16.223 11.98 29.821 26.297 42.559 44.855-2.637 6.418 11.937 24.965 19.352 33.786-33.395-3.731-68.946-12.489-105.79-26.036-21.609-7.949-43.703-13.675-65.679-17.042-13.703-16.68-30.266-29.649-50.582-39.622-19.875-9.773-40.129-15.097-58.008-19.785-23.074-6.078-42.938-11.386-54.278-23.367 15.008-35.625 34.11-69.082 56.598-99.91 16.039 10.238 30.606 22.598 42.192 37.539"/><path d="m309.8 704.97c-52.274 19.293-149.71 17.679-193.22 15.82-4.457-17.613-7.891-35.617-10.414-53.922 25.23-19.562 88.926-60.512 164.11-44.504 58.035 12.477 97.68 15.399 129.66 9.422-23.789 29.168-49.183 58.02-90.148 73.184"/><path d="m584.55 363.91c2.09 5.153 4.18 10.309 6.215 15.477 11.441 29.074 16.625 52.89 16.754 77.23l0.027 3.496c-0.078 1.047-0.051 1.84 0.012 2.637 0.039 19.719-0.703 38.93-10.114 54.145-11.785-2.375-34.23 7.113-38.511 11.796-0.43 0.079-0.821 0.172-1.188 0.289-12.828 2.465-27.144 3.903-42.215 4.176-7.558-8.402-12.41-15.269-14.187-17.89-24.82-48.68-34.738-112.11-29.258-188.21 1.633-22.942 1.031-45.754-1.801-67.821 12.203-17.761 20.071-37.269 24.051-59.586 3.902-21.937 3.395-42.859 2.949-61.328-0.226-9.75-0.414-18.949-8e-3 -27.422 11.969-2.5 24.129-4.449 36.395-6.058-1.23 16.34 2.816 31.859 6.68 42.14 2.285 6.071 5.09 12.282 7.804 18.29 6.981 15.449 14.2 31.429 14.055 47.597-5.508 27.77-5.703 55.66-0.508 82.27 4.656 23.894 13.899 46.707 22.848 68.773"/><path d="m836.27 188.42c-0.066-9.551-0.117-18.883-0.027-28.113 10.602 5.742 20.891 11.972 31.008 18.453-11.188 11.648-21.813 24.379-30.918 38.136 0.066-9.761 0-19.234-0.063-28.476"/><path d="m867.23 361.72c-20.266 6.289-38.903 15.761-56.625 28.84 1.671-5.207 3.277-10.664 4.843-16.457 4.293-15.348 7.922-30.747 10.805-45.766 5.051-22.07 10.086-41.227 18.164-62.617 9.805-26.09 27.949-49.692 47.992-69.801 31.774 23.184 60.668 50.039 86.117 79.937-19.234 28.875-54.105 67.2-111.3 85.864"/><path d="m440.29 258.92c2.949 20.945 3.652 43.262 2.023 66.008-3.027 42.113-1.382 81.535 4.907 117.36-5.352-4.934-10.989-9.594-16.809-13.898-1.437-1.059-2.844-2.129-4.242-3.211-0.442-0.43-1.137-0.981-1.906-1.477-37.493-29.426-55.489-59.703-62.485-160.86-2.371-33.633-12.926-62.395-26.652-86.547 19.516-12.242 39.937-23.129 61.144-32.621 22.829 34.07 37.516 71.925 43.614 112.53 0 0.641 0.144 1.684 0.406 2.715"/><path d="m944.57 350.55c23.219-19.164 39.992-36.836 52.184-52.07 12.822 16.968 24.502 34.828 35.092 53.39-26.12-1.625-57.178-2.625-87.276-1.32"/><path d="m467.45 139.03c0.574 24.059 1.149 48.848-6.851 73.262-8.227-28.613-20.567-55.422-36.43-80.145 14.043-5.277 28.406-9.886 43.02-13.898-0.071 6.801 0.093 13.738 0.261 20.781"/><path d="m630.73 101.49c0.75 0.051 1.492 0.121 2.238 0.172-0.863 0.551-1.66 1.012-2.531 1.57 0.113-0.558 0.179-1.179 0.293-1.742"/><path d="m698.6 155.2c-9.917 7.871-20.187 16.02-28.175 25.391-12.645 14.867-19.391 29.512-20.606 44.805-0.418 5.101 0.457 10.832 1.371 16.902 1.918 12.75 4.098 27.207-4.644 40.859-2.207 3.614-4.281 7.215-6.25 10.871-9.02 16.754-21.117 40.922-27.446 66.071-0.808-1.996-1.644-3.993-2.468-5.989-4.242-10.285-8.637-20.921-12.344-31.492-10.375-29.637-14.289-57.172-12.008-84.183 0.133-1.555 0.301-3.094 0.473-4.621 0.168-0.704 0.273-1.79 0.508-4.098 0.418-4.059 1.187-11.613 2.336-14.34 4.566-21.363 12.421-42.645 23.554-63.863 0.485-0.274 1.02-0.602 1.555-1.012 24.223-18.02 45.828-30.918 66.719-43.281 18.047 2.992 35.746 6.98 53.082 11.851-8.188 14.34-22.09 25.36-35.657 36.129"/><path d="m659.02 915.7c10.848-20.203 21.965-36.566 35.329-54.929 9.41-12.059 18.625-24.926 27.316-38.184 3.301-4.906 6.352-9.695 9.199-14.434 1.774 21.676 6.785 41.747 15.215 61.008v2.637h1.121c36.434 89.117-16.09 197.08-21.754 208.26-26.531 6.93-53.949 11.65-82.015 14.11-6.332-36.93-15.676-120.37 15.589-178.46"/><path d="m911.39 474.86c-57.278-15.632-96.715-20.734-129.04-16.468 25.164-27.715 52.07-55.278 93.898-68.223 45.59-13.98 123.43-10.938 172.11-7.133 9.27 19.309 17.23 39.348 23.98 59.934-29.06 19.043-91.102 50.804-160.95 31.89"/><path d="m595.44 960.39 1.071-0.914c6.656-5.743 13.48-11.625 20.422-17.762-15.75 57.183-9.145 120.42-3.551 154.16-4.703 0.13-9.379 0.35-14.11 0.35-33.894 0-66.98-3.41-98.968-9.86 30.91-52.24 68.121-102.72 95.136-125.97"/><path d="m884.19 579.57c-0.769-0.261-1.957-0.496-3.132-0.574-20.59-4.098-41.797-10.754-62.614-19.691-38.797-16.719-76.59-28.121-112.5-33.957 6.434-3.446 12.684-7.215 18.661-11.274 1.5-1.019 2.988-2.012 4.476-2.988 0.524-0.262 1.254-0.719 1.973-1.27l0.117-0.09c2.949-1.878 6.078-3.785 9.187-5.546 0.481-0.219 1.161-0.598 1.801-1.032 33.969-18.894 69.867-24.453 161.4 0.512 75.898 20.551 141.89-8.797 177.67-30.805 5.26 20.274 9.14 41.082 11.83 62.27-25.64 14.621-60.66 32.848-86.94 39.867-40.116 10.688-81.159 12.254-121.93 4.578"/><path d="m806.43 188.63c0.273 38.226 0.574 81.566-9.512 134.17l-2.312 10.219c-2.555 11.418-4.985 22.21-7.907 33.07l-1.293 4.566c-6.996 24.742-17.996 54.707-47.019 91.598-9.422 9.906-17.227 17.226-25.082 23.516-1.617 1.031-3.535 2.312-5.469 3.617-24.613 16.742-49.355 24.312-72.738 29.363 4.031-11.16 2.726-30.551 0.886-49.957-0.445-4.633-0.808-8.363-0.824-10.52 0.641-10.66 0.391-21.742 0.157-32.441-0.325-14.289-0.653-29.051 1.175-43.301 3.145-24.535 14.563-49.277 25.328-70.25 23.793-46.39 54.133-70.023 90.18-70.246 4.906-0.027 9.043-2.363 11.34-6.394 2.543-4.477 2.492-10.258-0.133-14.735-2.387-4.07-6.59-6.41-11.535-6.41h-0.105c-26.934 0.16-51.508 10.078-73.133 29.496-0.157-1.137-0.297-2.269-0.457-3.418-2.27-17.058 2.82-31.113 16.523-45.558 7.504-7.907 16.285-15.157 24.77-22.145 15.914-13.101 32.144-26.633 41.562-45.519 15.641 5.359 30.926 11.468 45.82 18.308-0.398 14.078-0.324 28.289-0.222 42.969"/><path d="m320.4 732.89 0.184-0.078c51.492-19.196 80.074-54.469 107.72-88.571 12.879-15.894 25.054-30.914 39.164-43.519 1.562-1.125 3.418-2.496 5.258-3.918 12.058-9.238 38.668-18.465 62.132-26.598 14.094-4.89 27.403-9.5 35.965-13.598 4.164-0.949 8.797-2.164 13.274-3.457l0.703-0.062c6.695 1.695 28.476 0.898 32.613-0.395 0.559 0.039 1.238-0.039 1.879-0.222 20.578-2.817 43.77-2.727 68.59 0.355-0.09 2.375-0.301 4.422-0.652 6.289-0.68 1.539-1.043 3.25-1.11 5.075-4.879 16.796-19.144 30.277-34.57 43.679-0.379 0.25-1.004 0.77-1.629 1.399l-2.793 2.425c-18.414 15.883-39.766 27.653-69.219 38.161-5.168 1.839-10.375 3.64-15.593 5.425-22.567 7.782-45.887 15.832-66.989 28.047-23.476 13.61-44.371 32.09-62.078 54.942-11.652 10.281-28.426 15.347-44.644 20.238-6.317 1.922-12.868 3.891-18.95 6.16-18.164 6.785-49.394 23.387-54.289 58.297-0.664 4.789 0.903 8.937 4.41 11.68 3.93 3.054 9.661 3.769 14.551 1.773 4.672-1.891 7.766-5.898 8.485-11 3.523-25.254 33.578-34.543 55.515-41.344l1.969-0.613c1.934-0.586 3.863-1.199 5.797-1.828-4.828 9.633-9.176 19.656-12.961 29.898-13.152 34.805-44.305 61.364-71.801 84.801l-3.613 3.078c-14.344 12.25-30.746 43.063-43.875 75.567-31.606-27.332-59.738-58.532-83.641-92.93 19.973-44.336 63.641-123.3 130.2-149.16"/><path d="m591.09 133.87c-5.219 9.598-9.918 19.449-13.988 29.41-0.809-1.871-1.618-3.742-2.442-5.59l-0.836-1.882c-7.086-15.977-16.082-36.45-12.632-53.821 12.589-0.949 25.257-1.59 38.089-1.59 1.188 0 2.356 0.082 3.547 0.09-2.523 11.653-6.144 22.953-11.738 33.383"/><path d="m1070.7 758.4c-5.86-3.192-11.89-6.762-18.21-10.563-15.89-9.555-33.84-20.371-54.815-27.852-21.324-7.621-42.18-10.414-63.711-8.664-17.723-13.351-37.191-25.171-57.914-35.117-67.156-32.144-116.59-71.058-147-115.72 25.316 6.133 51.363 14.954 77.554 26.243 21.141 9.082 42.856 15.988 64.547 20.554 12.801 17.383 28.645 31.231 48.414 42.309 19.434 10.883 39.387 17.305 57.004 22.98 23.427 7.532 43.667 14.043 54.057 27.586 4.98 6.528 14.36 7.766 20.92 2.754 6.52-5.008 7.75-14.39 2.75-20.93-16.04-20.894-41.55-29.117-68.567-37.82-22.953-7.387-46.574-14.992-67.039-30.613 32.758 1.773 64.977-1.555 96.156-10.012 24.9-6.738 55.79-21.933 81.26-35.949 0.62 10.172 1.04 20.398 1.04 30.723 0 56.027-9.39 109.83-26.45 160.09"/><path d="m1037.1 773.38c7.8 4.691 15.44 9.254 23.1 13.312-7.64 18.676-16.38 36.778-26.15 54.235-2.46-6.078-5.23-12.375-8.39-18.883-14.14-29.063-32.84-55.606-55.664-79.031 25.215 5.156 46.474 17.945 67.104 30.367"/><path d="m788.72 935.19c20.773 25.414 50.859 55.692 78.933 82.419-32.457 20.82-67.464 37.97-104.49 50.87 11.336-28.78 26.352-77.617 25.555-133.29"/><path d="m574.07 747.5c8.715-21.887 19.836-46.746 36.278-65.277 9.539-10.727 20.882-20.188 31.843-29.336 8.235-6.864 16.743-13.965 24.52-21.61 7.062-6.07 14.512-13.062 22.617-21.234 0.313-0.207 1.344-0.703 2.676-1.395 5.715-2.964 16.023-8.289 20.394-16.429 11.446 20.761 21.821 44.187 25.372 73.507 0.273 2.297 0.574 4.583 0.902 6.829 0.391 9.683-0.016 20.711-1.309 34.347-8.664 45.778-23.996 73.785-37.871 95.082l-2.804 4.27c-6.067 9.055-12.516 17.89-19.692 27.652l-6.254 8.559c-32.937 42.101-65.781 70.355-94.765 95.293-30.891 26.582-72.586 83.548-106.02 141.4-13.465-3.61-26.719-7.73-39.711-12.41 20.563-69.758 12.184-115.1 2.539-167.12-4.582-24.676-9.316-50.203-11.758-81.473-0.039-0.574-0.117-1.16-0.261-1.812 8.691-22.356 19.55-42.258 32.3-59.168 1.618-3.199 6.774-8.707 9.539-11.668 1.618-1.723 2.375-2.543 2.805-3.16l3.195-3.407c18.871-19.507 42.207-34.644 71.321-46.285 10.402-4.164 21.297-7.843 31.843-11.406 2.047-0.68 4.082-1.371 6.133-2.074-14.801 21.297-25.043 46.289-31.738 64.113-1.461 3.891-2.82 7.828-4.059 11.785-4.566 15.645-16.898 23.516-27.785 30.457-5.152 3.289-10.035 6.41-13.609 10.063-10.715 10.976-17.332 25.695-20.203 44.984-1.824 12.176-1.211 25.277-0.614 37.938 1.071 23.031 2.18 46.847-11.484 65.351-5.129 6.957-2.375 14.617 3.004 18.586 5.492 4.047 14.184 4.516 19.457-2.637 17.449-23.621 16.68-50.949 15.934-77.359-0.313-11.004-0.637-22.383 0.39-33.238 1.867-19.797 9.098-32.875 23.465-42.414 0.965-0.625 1.918-1.266 2.871-1.895-0.402 29.063 8.274 54.11 25.852 74.504 5.82 6.762 14.187 5.68 19.394 1.176 5.129-4.426 7.348-12.36 1.645-18.961-23.531-27.289-25.672-65.684-6.356-114.12"/><path d="m348.47 909.56c19.847-16.68 35.445-32.536 47.461-48.262 2.402 16.312 5.195 31.359 7.504 43.785 9.156 49.312 16.175 89.309-1.27 150.51-37.613-16.23-72.797-36.98-104.93-61.541 15.125-35.684 35.731-71.477 51.235-84.496"/><path d="m877.21 803.83c-79.008-52.566-98.398-83.273-106.56-121.54-0.051-0.523-0.195-1.277-0.418-2.035-0.64-3.238-1.265-6.801-1.812-10.465l-0.055-0.668c-0.062-0.664-0.18-1.316-0.34-1.957-0.179-1.449-0.414-3.223-0.636-5.039-0.864-7.164-2.129-14.356-3.774-21.465 28.047 23.254 61.492 44.227 99.563 62.457 20.421 9.785 39.371 21.402 56.308 34.504 0.547 0.563 1.5 1.293 2.52 1.918 32.273 25.473 58.074 57.406 76.371 94.668 7.087 14.434 12.107 27.898 15.687 39.492-14.441 21.707-30.515 42.219-48.093 61.348-10.5-40.969-34.379-94.906-88.766-131.22"/><path d="m773.72 857.86c-17.735-40.011-14.657-78.406-10.309-115.6 17.996 27.133 47.789 53.492 97.234 86.406 54.559 36.434 73.485 95.449 80.102 131.83-14.93 14.078-30.687 27.274-47.266 39.442-46.015-44.473-102.75-103.96-119.76-142.08"/><path d="m1575.4 359.48c69.65 0 104.5 33.614 104.5 100.86 0 70.254-36.96 105.4-110.85 105.4h-206.26v-206.26zm-15.44 281.67c30.89 0 55.72 8.938 74.51 26.809 18.77 17.859 28.16 41.035 28.16 69.512 0 31.492-8.49 55.117-25.44 70.867-16.96 15.754-40.29 23.633-69.96 23.633h-204.44v-190.82zm-283.5 266.23h300.76c52.09 0 94.04-13.934 125.85-41.797 31.8-27.871 47.71-64.824 47.71-110.85 0-35.136-9.7-65.422-29.09-90.871-19.39-25.437-44.22-43.015-74.51-52.695v-3.633c36.95-8.496 66.34-26.055 88.15-52.703 21.8-26.66 32.7-61.789 32.7-105.4 0-55.743-17.41-97.227-52.24-124.48-34.84-27.258-81.03-40.89-138.57-40.89h-300.76v623.32"/><path d="m1835.2 762h60.88l9.08-71.777h5.46c9.08 23.621 22.71 43.3 40.89 59.062 18.16 15.742 42.09 23.621 71.77 23.621 16.36 0 30.59-2.43 42.71-7.273v-77.227h-33.61c-33.94 0-61.95-9.855-84.06-29.531-22.12-19.699-33.16-50.43-33.16-92.227v-282.59h-79.96v477.94"/><path d="m2319.5 354.02c21.2 9.688 38.46 24.082 51.79 43.165 13.32 19.082 19.99 42.257 19.99 69.511v34.531c-78.14 0-136.75-6.218-175.82-18.632-39.07-12.422-58.6-35.887-58.6-70.418 0-26.059 8.02-44.68 24.07-55.879 16.05-11.223 39.82-16.809 71.33-16.809 23.62 0 46.03 4.836 67.24 14.531zm-198.08-51.785c-32.12 19.375-48.16 54.52-48.16 105.4 0 61.172 27.26 103.14 81.78 125.85 54.51 22.715 133.25 34.071 236.24 34.071v52.695c0 27.863-7.88 49.211-23.62 64.062-15.76 14.836-44.23 22.266-85.41 22.266-38.78 0-66.49-7.273-83.15-21.816-16.67-14.532-24.99-32.411-24.99-53.602v-10.91h-77.22c-0.62 3.633-0.91 10.293-0.91 19.992 0 42.391 17.56 75.106 52.69 98.133 35.13 23.019 82.08 34.531 140.84 34.531 59.36 0 104.5-12.422 135.4-37.254 30.88-24.843 46.33-59.972 46.33-105.4v-258.96c0-10.898 3.03-18.934 9.09-24.07 6.05-5.156 13.63-7.727 22.71-7.727h36.35v-51.797c-15.76-7.265-36.35-10.898-61.79-10.898-20.6 0-37.86 6.211-51.79 18.625-13.94 12.41-23.33 28.914-28.17 49.519h-6.36c-16.36-22.421-38.61-39.98-66.78-52.703-28.17-12.715-59.22-19.082-93.14-19.082-41.2 0-77.84 9.696-109.94 29.082"/><path d="m2503.1 762h84.5l84.5-238.96c12.11-33.937 27.86-83.906 47.25-149.93h4.54c17.57 62.383 33.01 112.36 46.35 149.93l83.59 238.96h79.95l-175.36-477.94h-79.96l-175.36 477.94"/><path d="m3286.3 567.56c0 92.675-40.89 139.02-122.66 139.02-45.43 0-79.52-10.906-102.23-32.715-22.72-21.804-36.49-57.246-41.34-106.31zm-294.4-233.52c-37.56 40.574-56.33 103.58-56.33 189 0 85.41 18.77 148.4 56.33 188.99 37.56 40.578 94.8 60.879 171.74 60.879 69.05 0 120.69-18.332 154.92-54.969 34.21-36.66 51.34-95.57 51.34-176.74v-39.973h-351.64c3.01-55.136 16.2-95.867 39.52-122.21 23.31-26.348 58.6-39.524 105.86-39.524 38.16 0 69.05 8.77 92.67 26.348 23.62 17.558 35.44 44.523 35.44 80.871h78.15c0-55.742-19.24-98.586-57.7-128.57-38.48-29.981-88-44.981-148.56-44.981-76.94 0-134.18 20.293-171.74 60.879"/></g></g></svg>
