<?xml version="1.0" encoding="UTF-8"?>
<svg version="1.1" viewBox="0 0 313.84 270.67" xml:space="preserve" xmlns="http://www.w3.org/2000/svg"><g transform="matrix(1.3333 0 0 -1.3333 0 270.67)"><g transform="scale(.1)" fill="#211d1d"><path d="m880.18 1329.1c0.664 0.19 1.668 0.32 2.754 0.36 20.89 2.96 42.543 8.47 63.968 16.32 39.582 14.58 77.912 23.91 114.12 27.8-6.25 3.8-12.28 7.91-18.01 12.31l-4.28 3.19c-0.49 0.28-1.22 0.79-1.92 1.4l-0.28 0.25c-38.932 27.78-73.237 36.38-171.58 15.25-75.707-16.12-138.99 15.34-173.89 39.13-0.754-11.25-1.285-22.56-1.285-34 0-12.77 0.64-25.38 1.582-37.91 10.109-7.14 33.453-21.95 67.16-32.94 39.555-12.89 80.531-16.65 121.67-11.16"/><path d="m832.4 1561c-33.316 31.96-57.406 72.31-72.996 103.97-18.8-31.64-34.179-65.52-45.664-101.17 29.676 1.06 75.188 1.51 118.66-2.8"/><path d="m843.73 1297c-32.993-0.14-64.793 5.08-95.5 15.2-21.778 7.18-39.344 15.68-52.747 23.22 4.622-30.3 12.086-59.65 21.911-87.89 16.113 11.53 36.484 16.97 57.836 22.59 23.281 6.12 47.253 12.42 68.5 26.88"/><path d="m947.28 1204.9c-34.437-14.69-69.297-31.1-95.293-66.35-11.832-16.09-22.711-38.64-32.285-62.87 23.684-25.97 50.149-49.32 78.809-69.81 11.336 20.39 19.969 44.3 21.914 71.83 4.098 59.23 12.238 98.14 26.855 127.2"/><path d="m827.43 1155.6v0.25l0.992 1c32.402 43.9 74.27 61.63 114.74 78.78 18.922 8.01 36.774 15.58 52.668 25.57 1.528 1.2 3.356 2.6 5.236 3.98 16.22 11.99 29.82 26.3 42.55 44.86-2.63 6.42 11.95 24.96 19.36 33.78-33.4-3.73-68.947-12.49-105.79-26.03-21.614-7.95-43.707-13.68-65.68-17.05-13.703-16.67-30.266-29.65-50.586-39.61-19.871-9.78-40.125-15.11-58.008-19.79-23.07-6.08-42.933-11.39-54.273-23.37 15.008-35.62 34.109-69.08 56.597-99.91 16.039 10.24 30.602 22.6 42.192 37.54"/><path d="m898.21 1517.7c-52.273 19.29-149.71 17.68-193.22 15.82-4.457-17.61-7.887-35.62-10.41-53.92 25.231-19.57 88.926-60.51 164.11-44.51 58.032 12.48 97.68 15.4 129.66 9.42-23.789 29.17-49.183 58.02-90.148 73.19"/><path d="m1173 1176.7c2.09 5.15 4.18 10.3 6.22 15.47 11.44 29.08 16.62 52.9 16.75 77.23l0.03 3.5c-0.08 1.05-0.05 1.84 0.01 2.64 0.04 19.71-0.7 38.93-10.11 54.14-11.79-2.37-34.23 7.11-38.51 11.8-0.43 0.08-0.83 0.17-1.19 0.29-12.83 2.46-27.15 3.9-42.22 4.17-7.55-8.4-12.41-15.27-14.18-17.89-24.83-48.67-34.74-112.11-29.26-188.21 1.63-22.94 1.03-45.75-1.8-67.82 12.2-17.76 20.07-37.27 24.05-59.59 3.9-21.93 3.39-42.851 2.95-61.32-0.23-9.758-0.42-18.949-0.01-27.43 11.97-2.488 24.13-4.441 36.39-6.058-1.23 16.347 2.82 31.867 6.68 42.136 2.29 6.071 5.09 12.282 7.81 18.301 6.98 15.449 14.2 31.421 14.05 47.591-5.51 27.77-5.7 55.66-0.51 82.27 4.66 23.9 13.9 46.71 22.85 68.78"/><path d="m1424.7 1001.2c-0.07-9.561-0.12-18.889-0.03-28.12 10.6 5.75 20.89 11.981 31.01 18.461-11.19 11.649-21.81 24.379-30.92 38.139 0.07-9.77 0-19.24-0.06-28.48"/><path d="m1455.6 1174.5c-20.26 6.29-38.9 15.77-56.62 28.84 1.67-5.2 3.27-10.66 4.84-16.45 4.29-15.35 7.92-30.75 10.8-45.77 5.06-22.07 10.09-41.22 18.17-62.61 9.8-26.1 27.95-49.69 47.99-69.81 31.77 23.19 60.67 50.04 86.12 79.95-19.24 28.87-54.11 67.19-111.3 85.85"/><path d="m1028.7 1071.7c2.95 20.94 3.65 43.26 2.02 66.01-3.03 42.11-1.38 81.53 4.91 117.35-5.35-4.93-10.99-9.59-16.81-13.89-1.44-1.06-2.85-2.13-4.24-3.21-0.45-0.43-1.14-0.98-1.91-1.48-37.49-29.43-55.486-59.7-62.482-160.85-2.372-33.64-12.926-62.4-26.653-86.55 19.516-12.238 39.934-23.14 61.145-32.621 22.83 34.071 37.52 71.921 43.61 112.52 0 0.64 0.15 1.69 0.41 2.72"/><path d="m1533 1163.3c23.22-19.16 39.99-36.83 52.18-52.07 12.82 16.97 24.5 34.83 35.1 53.39-26.13-1.62-57.18-2.62-87.28-1.32"/><path d="m1055.8 951.8c0.58 24.058 1.15 48.839-6.85 73.259-8.22-28.611-20.56-55.419-36.43-80.138 14.05-5.281 28.41-9.891 43.02-13.91-0.07 6.797 0.1 13.75 0.26 20.789"/><path d="m1219.1 914.25c0.75 0.051 1.49 0.121 2.24 0.172-0.86 0.558-1.66 1.019-2.53 1.578 0.11-0.559 0.18-1.18 0.29-1.75"/><path d="m1287 967.97c-9.92 7.863-20.19 16.019-28.17 25.39-12.65 14.861-19.4 29.511-20.61 44.801-0.42 5.11 0.46 10.83 1.37 16.9 1.92 12.75 4.1 27.21-4.64 40.86-2.21 3.62-4.29 7.22-6.26 10.87-9.01 16.76-21.11 40.93-27.44 66.07-0.81-1.99-1.64-3.99-2.47-5.98-4.24-10.29-8.64-20.92-12.34-31.49-10.38-29.64-14.29-57.18-12.01-84.19 0.13-1.56 0.3-3.09 0.47-4.62 0.17-0.7 0.28-1.79 0.51-4.1 0.42-4.06 1.19-11.61 2.34-14.34 4.56-21.36 12.42-42.652 23.55-63.87 0.48-0.258 1.02-0.598 1.55-1 24.23-18.032 45.83-30.918 66.72-43.282 18.05 2.981 35.75 6.973 53.09 11.852-8.19 14.332-22.09 25.359-35.66 36.129"/><path d="m1247.4 1728.5c10.85-20.2 21.96-36.57 35.33-54.93 9.41-12.06 18.62-24.92 27.31-38.18 3.3-4.91 6.36-9.7 9.2-14.44 1.78 21.68 6.79 41.75 15.22 61.02v2.63h1.12c36.43 89.12-16.09 197.08-21.75 208.26-26.54 6.93-53.95 11.64-82.02 14.11-6.33-36.93-15.68-120.37 15.59-178.47"/><path d="m1499.8 1287.6c-57.27-15.64-96.71-20.74-129.04-16.47 25.17-27.72 52.07-55.28 93.9-68.23 45.59-13.98 123.43-10.93 172.11-7.13 9.27 19.31 17.23 39.35 23.99 59.93-29.07 19.05-91.11 50.81-160.96 31.9"/><path d="m1183.8 1773.2 1.07-0.92c6.66-5.74 13.48-11.62 20.42-17.76-15.75 57.18-9.14 120.41-3.55 154.15-4.7 0.14-9.38 0.36-14.11 0.36-33.89 0-66.98-3.42-98.97-9.87 30.91-52.24 68.12-102.71 95.14-125.96"/><path d="m1472.6 1392.3c-0.77-0.26-1.96-0.49-3.13-0.57-20.6-4.1-41.8-10.75-62.62-19.7-38.8-16.71-76.59-28.12-112.5-33.95 6.43-3.45 12.68-7.22 18.66-11.28 1.5-1.02 2.99-2 4.47-2.98 0.53-0.27 1.26-0.72 1.97-1.27l0.12-0.09c2.95-1.88 6.08-3.79 9.19-5.55 0.48-0.22 1.16-0.6 1.8-1.03 33.97-18.9 69.87-24.46 161.4 0.51 75.9 20.55 141.89-8.8 177.67-30.8 5.26 20.27 9.15 41.08 11.83 62.26-25.64 14.63-60.66 32.85-86.94 39.87-40.11 10.69-81.15 12.26-121.92 4.58"/><path d="m1394.8 1001.4c0.28 38.23 0.58 81.56-9.51 134.17l-2.31 10.22c-2.56 11.42-4.99 22.21-7.91 33.07l-1.29 4.56c-7 24.75-18 54.71-47.02 91.6-9.42 9.91-17.23 17.23-25.08 23.52-1.62 1.03-3.54 2.31-5.47 3.61-24.61 16.74-49.36 24.31-72.74 29.37 4.03-11.16 2.72-30.56 0.88-49.96-0.44-4.63-0.8-8.36-0.82-10.52 0.64-10.66 0.39-21.74 0.16-32.44-0.33-14.29-0.65-29.05 1.17-43.3 3.15-24.53 14.57-49.28 25.33-70.25 23.79-46.39 54.14-70.03 90.18-70.25 4.91-0.03 9.04-2.36 11.34-6.39 2.54-4.48 2.49-10.26-0.13-14.74-2.39-4.07-6.59-6.41-11.54-6.41h-0.1c-26.94 0.16-51.51 10.08-73.13 29.5-0.16-1.13-0.3-2.27-0.46-3.42-2.27-17.06 2.82-31.11 16.52-45.56 7.5-7.909 16.29-15.151 24.77-22.139 15.91-13.102 32.15-26.629 41.56-45.532 15.65 5.371 30.93 11.481 45.82 18.313-0.39 14.09-0.32 28.297-0.22 42.978"/><path d="m908.8 1545.7 0.183-0.09c51.496-19.19 80.078-54.46 107.72-88.57 12.88-15.89 25.05-30.91 39.16-43.52 1.56-1.12 3.42-2.49 5.26-3.91 12.06-9.24 38.66-18.47 62.13-26.6 14.09-4.89 27.4-9.5 35.97-13.59 4.16-0.96 8.79-2.17 13.27-3.47l0.7-0.06c6.7 1.7 28.48 0.9 32.61-0.39 0.57 0.04 1.24-0.04 1.88-0.22 20.58-2.82 43.77-2.73 68.59 0.35-0.09 2.37-0.3 4.42-0.65 6.29-0.68 1.54-1.04 3.25-1.11 5.08-4.88 16.79-19.14 30.27-34.57 43.68-0.38 0.24-1 0.77-1.63 1.39l-2.79 2.43c-18.41 15.88-39.76 27.65-69.22 38.16-5.17 1.84-10.37 3.64-15.59 5.43-22.57 7.77-45.89 15.83-66.99 28.04-23.48 13.61-44.37 32.09-62.08 54.94-11.65 10.29-28.423 15.35-44.642 20.24-6.317 1.92-12.867 3.89-18.949 6.16-18.168 6.79-49.395 23.39-54.289 58.3-0.668 4.79 0.898 8.94 4.41 11.68 3.929 3.05 9.656 3.77 14.55 1.77 4.672-1.89 7.766-5.9 8.485-11 3.523-25.25 33.578-34.54 55.515-41.34l1.969-0.62c1.934-0.58 3.864-1.2 5.793-1.82-4.828 9.63-9.172 19.65-12.957 29.9-13.156 34.8-44.305 61.36-71.801 84.79l-3.617 3.09c-14.34 12.25-30.746 43.05-43.875 75.56-31.601-27.33-59.734-58.53-83.637-92.93 19.973-44.33 63.641-123.29 130.2-149.15"/><path d="m1179.5 946.64c-5.22 9.589-9.92 19.449-13.99 29.398-0.81-1.859-1.62-3.73-2.44-5.578l-0.83-1.879c-7.09-15.98-16.08-36.453-12.64-53.82 12.59-0.953 25.26-1.602 38.09-1.602 1.19 0 2.36 0.09 3.55 0.09-2.52 11.66-6.15 22.961-11.74 33.391"/><path d="m1659.1 1571.2c-5.85-3.19-11.89-6.76-18.21-10.56-15.88-9.56-33.84-20.37-54.81-27.85-21.32-7.62-42.18-10.41-63.71-8.67-17.72-13.35-37.19-25.17-57.92-35.12-67.15-32.14-116.59-71.05-146.99-115.71 25.31 6.13 51.36 14.96 77.55 26.24 21.14 9.08 42.86 15.99 64.55 20.56 12.8 17.38 28.64 31.23 48.42 42.31 19.43 10.88 39.38 17.3 57 22.98 23.42 7.53 43.66 14.04 54.05 27.59 4.99 6.52 14.37 7.76 20.92 2.75 6.53-5.01 7.75-14.39 2.76-20.93-16.04-20.9-41.56-29.12-68.57-37.82-22.96-7.39-46.58-15-67.04-30.62 32.76 1.78 64.98-1.55 96.15-10.01 24.9-6.73 55.79-21.93 81.27-35.95 0.62 10.17 1.03 20.4 1.03 30.73 0 56.02-9.39 109.82-26.45 160.08"/><path d="m1625.5 1586.2c7.79 4.69 15.44 9.25 23.09 13.31-7.64 18.68-16.38 36.78-26.14 54.24-2.47-6.08-5.23-12.38-8.4-18.89-14.13-29.06-32.83-55.6-55.66-79.03 25.21 5.16 46.47 17.95 67.11 30.37"/><path d="m1377.1 1748c20.78 25.41 50.87 55.69 78.94 82.41-32.46 20.82-67.47 37.97-104.49 50.88 11.33-28.79 26.35-77.62 25.55-133.29"/><path d="m1162.5 1560.3c8.72-21.88 19.84-46.75 36.28-65.28 9.54-10.72 20.88-20.19 31.85-29.33 8.23-6.87 16.74-13.96 24.52-21.61 7.06-6.07 14.51-13.07 22.61-21.24 0.32-0.2 1.35-0.7 2.68-1.39 5.71-2.96 16.02-8.29 20.4-16.43 11.44 20.76 21.82 44.19 25.37 73.51 0.27 2.3 0.57 4.58 0.9 6.82 0.39 9.69-0.02 20.72-1.31 34.35-8.66 45.78-24 73.79-37.87 95.08l-2.81 4.27c-6.07 9.06-12.51 17.89-19.69 27.66l-6.25 8.56c-32.94 42.1-65.79 70.35-94.77 95.29-30.89 26.58-72.58 83.55-106.01 141.4-13.47-3.61-26.72-7.73-39.71-12.42 20.56-69.75 12.18-115.1 2.53-167.12-4.58-24.67-9.31-50.2-11.75-81.46-0.04-0.58-0.12-1.17-0.26-1.82 8.69-22.36 19.54-42.25 32.29-59.17 1.62-3.2 6.78-8.7 9.54-11.67 1.62-1.72 2.38-2.54 2.81-3.15l3.2-3.41c18.87-19.51 42.2-34.65 71.32-46.29 10.4-4.16 21.29-7.84 31.84-11.4 2.05-0.68 4.08-1.38 6.13-2.08-14.8 21.3-25.04 46.29-31.74 64.11-1.46 3.9-2.82 7.84-4.06 11.79-4.56 15.65-16.9 23.52-27.78 30.46-5.15 3.29-10.03 6.41-13.61 10.06-10.71 10.98-17.33 25.69-20.2 44.98-1.83 12.18-1.22 25.28-0.62 37.94 1.08 23.03 2.18 46.85-11.48 65.36-5.13 6.95-2.37 14.61 3 18.58 5.5 4.05 14.19 4.51 19.46-2.64 17.45-23.62 16.68-50.94 15.93-77.36-0.31-11-0.64-22.38 0.4-33.24 1.86-19.79 9.09-32.87 23.46-42.41 0.97-0.62 1.92-1.27 2.87-1.89-0.4 29.06 8.27 54.11 25.85 74.5 5.82 6.76 14.19 5.68 19.4 1.18 5.12-4.43 7.34-12.36 1.64-18.97-23.53-27.28-25.67-65.68-6.36-114.12"/><path d="m936.88 1722.3c19.848-16.68 35.441-32.54 47.461-48.26 2.402 16.31 5.195 31.36 7.504 43.78 9.156 49.31 16.176 89.31-1.274 150.52-37.609-16.23-72.797-36.98-104.93-61.54 15.129-35.69 35.734-71.48 51.238-84.5"/><path d="m1465.6 1616.6c-79.01-52.56-98.4-83.27-106.56-121.53-0.05-0.52-0.19-1.28-0.42-2.04-0.64-3.23-1.26-6.79-1.81-10.46l-0.05-0.67c-0.07-0.66-0.18-1.32-0.34-1.96-0.18-1.45-0.42-3.22-0.64-5.03-0.86-7.17-2.13-14.36-3.77-21.47 28.04 23.25 61.49 44.23 99.56 62.46 20.42 9.79 39.37 21.4 56.31 34.5 0.55 0.56 1.5 1.29 2.52 1.92 32.27 25.48 58.07 57.41 76.37 94.67 7.09 14.43 12.1 27.9 15.69 39.49-14.44 21.71-30.52 42.22-48.1 61.35-10.5-40.97-34.38-94.91-88.76-131.23"/><path d="m1362.1 1670.6c-17.74-40.02-14.66-78.41-10.31-115.61 17.99 27.14 47.79 53.5 97.23 86.41 54.56 36.43 73.49 95.45 80.11 131.83-14.93 14.08-30.69 27.28-47.27 39.44-46.02-44.47-102.75-103.96-119.76-142.07"/><path d="m439.88 217.64c69.648 0 104.49 33.609 104.49 100.86 0 70.25-36.953 105.4-110.85 105.4h-206.26v-206.26zm-15.449 281.67c30.898 0 55.722 8.941 74.511 26.812 18.77 17.859 28.164 41.027 28.164 69.508 0 31.492-8.488 55.121-25.437 70.871-16.965 15.75-40.293 23.629-69.961 23.629h-204.44v-190.82zm-283.5 266.23h300.76c52.09 0 94.043-13.937 125.85-41.801 31.797-27.867 47.703-64.816 47.703-110.85 0-35.129-9.695-65.422-29.082-90.871-19.395-25.438-44.227-43.008-74.512-52.692v-3.629c36.945-8.5 66.336-26.058 88.145-52.711 21.808-26.656 32.707-61.789 32.707-105.4 0-55.738-17.414-97.231-52.246-124.48-34.836-27.257-81.028-40.89-138.57-40.89h-300.76v623.32"/><path d="m699.75 620.16h60.879l9.082-71.781h5.461c9.078 23.621 22.715 43.301 40.887 59.062 18.164 15.75 42.09 23.629 71.777 23.629 16.359 0 30.586-2.429 42.703-7.281v-77.219h-33.609c-33.938 0-61.946-9.859-84.055-29.539-22.117-19.691-33.164-50.429-33.164-92.222v-282.59h-79.961v477.94"/><path d="m1184 212.18c21.19 9.691 38.46 24.082 51.79 43.16 13.32 19.09 19.99 42.262 19.99 69.519v34.532c-78.14 0-136.75-6.219-175.82-18.641-39.07-12.418-58.6-35.879-58.6-70.418 0-26.051 8.01-44.672 24.07-55.871 16.04-11.223 39.82-16.813 71.33-16.813 23.62 0 46.03 4.832 67.24 14.532zm-198.08-51.789c-32.117 19.379-48.152 54.519-48.152 105.4 0 61.18 27.254 103.14 81.775 125.85 54.51 22.718 133.25 34.078 236.24 34.078v52.691c0 27.86-7.88 49.211-23.62 64.059-15.76 14.84-44.23 22.269-85.41 22.269-38.78 0-66.49-7.277-83.15-21.816-16.67-14.531-24.99-32.41-24.99-53.602v-10.91h-77.224c-0.613 3.629-0.906 10.289-0.906 19.988 0 42.391 17.554 75.114 52.69 98.141 35.13 23.012 82.08 34.531 140.84 34.531 59.36 0 104.5-12.422 135.39-37.261 30.89-24.84 46.34-59.969 46.34-105.4v-258.96c0-10.898 3.03-18.937 9.08-24.078 6.06-5.152 13.64-7.723 22.72-7.723h36.35v-51.796c-15.77-7.262-36.35-10.903-61.79-10.903-20.6 0-37.86 6.211-51.79 18.633-13.94 12.406-23.33 28.906-28.17 49.52h-6.36c-16.36-22.422-38.61-39.981-66.79-52.711-28.16-12.711-59.22-19.082-93.13-19.082-41.2 0-77.84 9.703-109.94 29.082"/><path d="m1367.6 620.16h84.5l84.5-238.97c12.11-33.929 27.85-83.902 47.25-149.93h4.54c17.57 62.386 33.01 112.37 46.35 149.93l83.59 238.97h79.95l-175.36-477.94h-79.96l-175.36 477.94"/><path d="m2150.8 425.72c0 92.672-40.89 139.02-122.67 139.02-45.43 0-79.51-10.906-102.22-32.718-22.72-21.801-36.5-57.239-41.34-106.3zm-294.4-233.53c-37.56 40.579-56.33 103.58-56.33 189 0 85.411 18.77 148.4 56.33 189 37.55 40.571 94.8 60.879 171.73 60.879 69.06 0 120.7-18.332 154.93-54.968 34.21-36.661 51.33-95.571 51.33-176.74v-39.968h-351.64c3.02-55.141 16.2-95.871 39.52-122.22 23.32-26.352 58.61-39.524 105.86-39.524 38.17 0 69.06 8.774 92.68 26.352 23.62 17.559 35.44 44.52 35.44 80.871h78.14c0-55.75-19.23-98.59-57.69-128.58-38.48-29.98-88-44.98-148.57-44.98-76.93 0-134.18 20.293-171.73 60.882"/></g></g></svg>
