<svg xmlns="http://www.w3.org/2000/svg" viewBox="0 0 358.93 125.34"><defs><style>.cls-1{fill:#1a2b56;}.cls-2{fill:#663895;}.cls-3{fill:#fff;}.cls-4{fill:#fcfcfd;}.cls-5{fill:#1b2c57;}.cls-6{fill:#f7f7f8;}.cls-7{fill:#f8f8f9;}.cls-8{fill:#f7f7f9;}.cls-9{fill:#f5f5f7;}.cls-10{fill:#edeef1;}.cls-11{fill:#eeeef1;}.cls-12{fill:#c1c7d4;}.cls-13{fill:#d7dae2;}.cls-14{fill:#f3f3f5;}.cls-15{fill:#e1e4e9;}.cls-16{fill:#bfc6d3;}.cls-17{fill:#cfd4dd;}.cls-18{fill:#dc3745;}.cls-19{fill:#ecedf0;}.cls-20{fill:#f1f2f4;}.cls-21{fill:#f4f4f6;}.cls-22{fill:#f3f3f6;}.cls-23{fill:#eff0f3;}.cls-24{fill:#f0f0f3;}.cls-25{fill:#f2f2f4;}.cls-26{fill:#e2e4ea;}.cls-27{fill:#f1f1f4;}.cls-28{fill:#d4d7df;}.cls-29{fill:#cdd0da;}.cls-30{fill:#d1d5de;}.cls-31{fill:#c9ced9;}.cls-32{fill:#c6cad6;}.cls-33{fill:#f6f3f9;}.cls-34{fill:#f6f4f9;}.cls-35{fill:#ece6f3;}.cls-36{fill:#f1ecf6;}.cls-37{fill:#ede7f3;}.cls-38{fill:#1d2e59;}.cls-39{fill:#1b2b57;}.cls-40{fill:#1e2f5a;}.cls-41{fill:#fef8f7;}.cls-42{fill:#fdf1f0;}.cls-43{fill:#fef4f3;}.cls-44{fill:#fef3f2;}.cls-45{fill:#fef9f9;}.cls-46{fill:#fdedec;}.cls-47{fill:#fef7f6;}.cls-48{fill:#fdecec;}.cls-49{fill:#fce7e6;}.cls-50{fill:#fef9f8;}.cls-51{fill:#f9d5d4;}.cls-52{fill:#1e2f59;}.cls-53{fill:#22335c;}.cls-54{fill:#2c3d64;}.cls-55{fill:#693c97;}.cls-56{fill:#673a96;}.cls-57{fill:#dd3d49;}.cls-58{fill:#e04d55;}.cls-59{fill:#dd414c;}.cls-60{fill:#de454f;}.cls-61{fill:#e36164;}.cls-62{fill:#df4a52;}.cls-63{fill:#1f3e69;}.cls-64{fill:#754b9e;}.cls-65{fill:#1b8754;}.cls-66{fill:#f8fbf9;}.cls-67{fill:#f5f9f6;}.cls-68{fill:#f6f9f7;}.cls-69{fill:#f7faf8;}.cls-70{fill:#f4f8f5;}.cls-71{fill:#f3f7f4;}.cls-72{fill:#fdfefd;}.cls-73{fill:#f9fbf9;}.cls-74{fill:#ebf3ee;}.cls-75{fill:#fdfefe;}.cls-76{fill:#3f9467;}.cls-77{fill:#f3f8f4;}.cls-78{fill:#f3f7f3;}.cls-79{fill:#f2f7f3;}.cls-80{fill:#eef4ef;}.cls-81{fill:#fefefe;}.cls-82{fill:#e9f1eb;}.cls-83{fill:#308d5d;}.cls-84{fill:#3a9163;}.cls-85{fill:#3a9061;}.cls-86{fill:#248a57;}.cls-87{fill:#258a57;}.cls-88{fill:#3f9265;}.cls-89{fill:#278a59;}.cls-90{fill:#389061;}.cls-91{fill:#378f60;}.cls-92{fill:#2e8d5c;}.cls-93{fill:#1c8854;}.cls-94{fill:#3d9163;}.cls-95{fill:#419366;}.cls-96{fill:#231f20;}.cls-97{fill:none;stroke:#231f20;stroke-miterlimit:10;}</style></defs><g id="Layer_2" data-name="Layer 2"><g id="Layer_1-2" data-name="Layer 1"><g id="p1gZbU.tif"><path class="cls-1" d="M.3,0Q64.71,0,129.13,0c.82,0,1.07.11,1.07,1q0,34.52,0,69a1.69,1.69,0,0,1-1.32.49H2.85c-.86,0-1.79.26-2.55-.42a2.78,2.78,0,0,1-.11-1.31q0-33.75,0-67.49A2.65,2.65,0,0,1,.3,0Z"/><path class="cls-1" d="M130.17,88.24v36.84a2.61,2.61,0,0,1-1.3.11H1.67c-1.67,0-1.48.16-1.48-1.5q0-17.08,0-34.17a4.18,4.18,0,0,1,.07-1.32,1.51,1.51,0,0,1,1.2-.46H127.64C128.5,87.75,129.44,87.51,130.17,88.24Z"/><path class="cls-2" d="M130.17,88.24H.36C.1,88,.19,87.73.19,87.46q0-8.31,0-16.62c0-.27-.09-.57.17-.79H130.17Z"/><path class="cls-3" d="M.36,70.05v18.2q0,7.26,0,14.53c0,7,0,14.06,0,21.08,0,1,.26,1.24,1.25,1.24q64.32,0,128.63,0c0,.07.13.25-.12.24h-1q-64,0-127.93,0c-.91,0-1.11-.2-1.11-1.11q0-61.56,0-123.12C.08.76-.2.29.3,0q0,34.29,0,68.58C.31,69.09.34,69.57.36,70.05Z"/><path class="cls-3" d="M59.06,10.18a56.61,56.61,0,0,1,10.48,2.33,16.66,16.66,0,0,1,6.31,3.42c3.07,2.92,2.43,6.94-1.4,8.81-.36.17-.71.36-1.12.57A15.81,15.81,0,0,1,75.78,27a3.84,3.84,0,0,1,.73,5.32c-1.54,2.47-4.06,3.49-6.67,4.25a23.26,23.26,0,0,1-6.31,1,1.13,1.13,0,0,0-1.23,1c-.7,2.06-1.46,4.09-2.21,6.12-.11.29-.17.65-.67.71-.28-.47,0-.9.16-1.31q3-10.07,6-20.11c.26-.84.11-1.07-.73-1.24-3-.61-6-1-9.36-1.37,1.46-1,2.74-1.85,4-2.75.88-.63,2.24-1,2.5-1.95s-.76-1.94-1.21-2.92C60.25,12.54,59.68,11.44,59.06,10.18Z"/><path class="cls-4" d="M55.09,52.84A2.41,2.41,0,0,1,57.25,55a2.7,2.7,0,0,1-1.71,3,5,5,0,0,1-2.34.49c-1.65,0-3.29,0-5-.07,1.09-.2,1.14-1,1.34-1.86.63-2.61,1.31-5.21,2-7.82a2.23,2.23,0,0,0,.15-1.17c.57-.75,1.29-.27,2-.25.39,1.13-.23,2.12-.43,3.16-.27,1.34-.31,1.33,1,1.64.4.2.61.47.28.9a1.53,1.53,0,0,1-.42.22c-.56.22-1.4-.16-1.71.59A11.76,11.76,0,0,0,51.58,57c0,.24.14.34.34.43a2.33,2.33,0,0,0,3-1.35c.42-1.07,0-2-.2-3C54.75,52.88,54.86,52.75,55.09,52.84Z"/><path class="cls-5" d="M68.05,52.08l.34.28c.74,1.45.15,4-1.19,5.33l-.26.23a2,2,0,0,1-1.71.46,1.24,1.24,0,0,1-.87-1.17c0-2,.38-3.87,2.11-5.17C67,51.84,67.54,51.57,68.05,52.08Z"/><path class="cls-6" d="M80.5,58.43a2.46,2.46,0,0,1-3.39-2.08,4.62,4.62,0,0,1,3.74-4.76c.86-.1,1.63,0,1.93,1s-.23,1.46-.93,1.88a3.3,3.3,0,0,1-1.94.56c-1.38-.12-1.46.75-1.44,1.75s.65,1.48,1.66,1.4h.36c.07,0,.09.11.07.16S80.52,58.43,80.5,58.43Z"/><path class="cls-7" d="M67.2,57.69c.31-.94.62-1.89.94-2.83a6.79,6.79,0,0,0,.25-2.5c.12,0,.33.07.34,0,.23-.61.71-1,1.27-.67s0,.91-.06,1.35a38.07,38.07,0,0,1-1.11,4.06c-.29.88,0,1,.8,1.06-.67.52-1.32.76-1.9-.14C67.59,57.84,67.5,57.64,67.2,57.69Z"/><path class="cls-7" d="M61.12,53.1a21.17,21.17,0,0,0-1.36,4.45c-.15.85-.53,1.09-1.43.82.38-1.64.77-3.29,1.16-4.93.29-1.24.3-1.24-1.19-1.44A4.07,4.07,0,0,1,61,51.7c.52.06-.31.67.13,1A.27.27,0,0,1,61.12,53.1Z"/><path class="cls-8" d="M74.13,58.09a1.87,1.87,0,0,1-2.35.32c-.76-.4-.52-1.08-.36-1.7.31-1.2.6-2.41,1-3.6.19-.62.13-1-.65-1.07a1.24,1.24,0,0,1,1.61-.29c.61.37.35,1,.19,1.52-.3,1-.55,2.09-.84,3.13C72.19,58.19,72.26,58.29,74.13,58.09Z"/><path class="cls-8" d="M54.33,52.86c.35-.43,0-.44-.31-.53a.68.68,0,0,1,.52-.59,2.44,2.44,0,0,0,1.5-2,1.8,1.8,0,0,0-1.16-2.09c-.11-.06-.11-.2-.09-.32a1.54,1.54,0,0,1,1.31-.08,2.11,2.11,0,0,1,2.09,2,3,3,0,0,1-1.85,3c-.42.21-1.14-.09-1.25.68l-.27.25C54.54,53.27,54.35,53.25,54.33,52.86Z"/><path class="cls-9" d="M66.69,52.11a7.13,7.13,0,0,0-2,4.72,1.42,1.42,0,0,0,.53,1.37c0,.46-.23.37-.49.24a2.64,2.64,0,0,1-1.33-3.09,4.93,4.93,0,0,1,3-3.5C66.66,51.73,66.72,51.87,66.69,52.11Z"/><path class="cls-10" d="M76.12,54c0-.47.19-1-.56-1.06-.38-.05-.68-.25-.56-.73a.82.82,0,0,1,1.61,0,4.36,4.36,0,0,1-.25,2.34C75.9,54.53,76,54.26,76.12,54Z"/><path class="cls-11" d="M61.12,53.1v-.44c.53-.46,1-1.08,1.78-1.06.48,0,.78.21.75.7s-.46.77-.84.53C62.12,52.4,61.64,52.74,61.12,53.1Z"/><path class="cls-12" d="M56.1,47.25c-.41.14-.9-.11-1.27.24a.78.78,0,0,1-1.23,0,1.82,1.82,0,0,0-1.93,0c-.34,0-.71.1-1.05-.31A19,19,0,0,1,56.1,47.25Z"/><path class="cls-13" d="M76.12,54l.24.53a3,3,0,0,1-1.28,2.13Z"/><path class="cls-14" d="M64.74,58.44l.49-.24c.61.16,1.14-.17,1.71-.28A1.53,1.53,0,0,1,64.74,58.44Z"/><path class="cls-15" d="M66.69,52.11l-.31-.26c.59-.18,1.23-.7,1.67.23A1.88,1.88,0,0,0,66.69,52.11Z"/><path class="cls-16" d="M80.5,58.43v-.25a1.05,1.05,0,0,1,1-.44A1,1,0,0,1,80.5,58.43Z"/><path class="cls-17" d="M82.18,56.72c0,.5-.16.73-.6.82C81.49,57.09,81.68,56.88,82.18,56.72Z"/><path class="cls-18" d="M92.62,121.2H64.77c-2,0-2.68-.62-2.68-2.66,0-1.62,0-3.23,0-4.85s.7-2.42,2.43-2.42h56c2,0,2.67.62,2.68,2.66v4.85c0,1.73-.71,2.43-2.43,2.43Z"/><path class="cls-18" d="M92.62,103H64.77c-2,0-2.68-.62-2.68-2.66,0-1.62,0-3.23,0-4.85s.7-2.42,2.43-2.42q13.14,0,26.28,0h29.67c2,0,2.67.62,2.68,2.66v4.85c0,1.72-.71,2.42-2.43,2.42Q106.67,103,92.62,103Z"/><path class="cls-19" d="M31.69,117.93c-.25.63.21,1.68-.37,1.65-.79,0-.32-1-.37-1.63-.07-1,0-2,0-3,0-.65,0-.69.69-.41.27.11.36-.06.5-.13a1.52,1.52,0,0,1,2.13.44,2.51,2.51,0,0,1-.07,2.93,1.56,1.56,0,0,1-2.17.29A1.85,1.85,0,0,0,31.69,117.93Z"/><path class="cls-20" d="M25.48,114.94c0-.49,0-1,0-1.45,0-.25-.14-.65.29-.66s.4.4.41.71c0,.88,0,1.77,0,2.66a1.35,1.35,0,0,0,1.44,1.55,1.4,1.4,0,0,0,1.49-1.54c0-1,0-1.93,0-2.89,0-.23,0-.53.34-.51s.37.25.37.52c0,1.12.06,2.26-.06,3.37a2,2,0,0,1-2.36,1.71,1.9,1.9,0,0,1-1.93-2c0-.49,0-1,0-1.45Z"/><path class="cls-20" d="M8.28,97.47v-.73c0-1.93.84-2.49,2.69-1.72a1.64,1.64,0,0,1,1.1,1.81,1.57,1.57,0,0,1-1.57,1.55c-1.07,0-1.81.1-1.52,1.44,0,.23,0,.5-.32.53-.48,0-.37-.33-.37-.59C8.27,99,8.28,98.23,8.28,97.47Z"/><path class="cls-21" d="M8.05,115.42a2.59,2.59,0,0,1,1.53-2.55,2.22,2.22,0,0,1,2.62.63c.21.23.64.56.28.89s-.56-.06-.75-.35a1.47,1.47,0,0,0-1.69-.6,1.53,1.53,0,0,0-1.18,1.37,2.4,2.4,0,0,0,.79,2.72,1.48,1.48,0,0,0,2.06-.34c.22-.25.48-.6.76-.33s-.09.63-.31.86a2.26,2.26,0,0,1-2.67.49C8.35,117.71,8.06,116.66,8.05,115.42Z"/><path class="cls-22" d="M33.53,99.41a1.79,1.79,0,0,1-2.38.87,2.08,2.08,0,0,1-1-2.56,1.76,1.76,0,0,1,3.48,0c.15.61-.05.81-.63.78a6.61,6.61,0,0,0-1.09,0c-.34,0-.75-.18-1,.19a.53.53,0,0,0,.12.66,1.28,1.28,0,0,0,1.18.44C32.62,99.76,32.85,99.2,33.53,99.41Z"/><path class="cls-23" d="M24,114.38c.08.88-1.69.82-.73,2,.48.58,1,1.18,1.46,1.82-1,.4-1.12-.53-1.57-.91-.27-.22-.38-.76-.78-.65s-.2.62-.26,1,.13.73-.38.71-.3-.48-.3-.75c0-1.45,0-2.9,0-4.34,0-.22-.1-.54.24-.59s.45.24.45.55v2.64C22.88,115.51,23.13,114.57,24,114.38Z"/><path class="cls-20" d="M15.85,98.74v.84c0,.47.1,1.11-.71.55-.34-.24-.46.19-.72.22-.76.08-1.51.11-1.77-.81s.32-1.32,1.12-1.49l.6-.1c.34-.06.91.17.75-.55s-.55-.61-1-.55c-.07,0-.15.06-.23.07-.33.06-.76.71-.94.15s.5-.73,1-.82C15.34,96,15.85,96.66,15.85,98.74Z"/><path class="cls-24" d="M24,98.31a1.88,1.88,0,0,1,1.13-2,1.78,1.78,0,0,1,2,.38c.19.19.46.43.19.7s-.45,0-.61-.18a1,1,0,0,0-1.65,0,1.61,1.61,0,0,0-.05,2.12,1,1,0,0,0,1.66.09c.22-.22.5-.45.7-.21s-.09.58-.32.78a1.82,1.82,0,0,1-1.94.27A1.87,1.87,0,0,1,24,98.31Z"/><path class="cls-25" d="M17,116.24a1.8,1.8,0,0,1,1.11-1.95,1.75,1.75,0,0,1,2,.38c.19.19.47.43.2.7s-.44,0-.61-.16a1,1,0,0,0-1.65-.06,1.64,1.64,0,0,0-.05,2.12c.49.68,1.14.64,1.71,0,.19-.2.46-.32.63-.13s-.06.5-.24.69a1.75,1.75,0,0,1-2,.37A1.81,1.81,0,0,1,17,116.24Z"/><path class="cls-26" d="M14.32,115.59c0,.64,0,1.29,0,1.93,0,.28.16.72-.34.76s-.35-.44-.36-.7c0-1.41,0-2.81,0-4.22,0-.27-.2-.76.28-.77s.4.5.41.83C14.34,114.14,14.32,114.87,14.32,115.59Z"/><path class="cls-3" d="M28.43,97.46V95.18c0-.26,0-.51.35-.53s.35.26.35.5v4.69c0,.24,0,.5-.33.51s-.37-.24-.37-.48Z"/><path class="cls-27" d="M20.39,95.15c.17.15.31.21.32.29.05.46.07.87.73.86.22,0,.27.3,0,.5a2,2,0,0,0-.13,3c.15.12.4.16.31.42s-.4.19-.61.18c-.76,0-.82-.59-.93-1.18-.16-.83.51-1.84-.52-2.54C19.51,96.6,20.07,95.7,20.39,95.15Z"/><path class="cls-28" d="M17.76,97.24a8.42,8.42,0,0,0-.19,2.6c0,.24,0,.51-.33.51s-.38-.23-.38-.48V96.76c0-.25,0-.49.36-.51s.33.16.32.38C17.73,96.79,17.89,97,17.76,97.24Z"/><path class="cls-26" d="M16.07,116.26c0,.53,0,1,0,1.57,0,.2,0,.43-.26.45s-.44-.12-.44-.42c0-1.09,0-2.18,0-3.27a.36.36,0,0,1,.35-.4c.37,0,.34.26.34.5C16.07,115.21,16.07,115.74,16.07,116.26Z"/><path class="cls-29" d="M23.17,98.36v1.45c0,.23,0,.51-.31.54s-.4-.21-.4-.46c0-1,0-2.09,0-3.14,0-.24,0-.51.37-.49s.32.3.32.53C23.17,97.32,23.17,97.84,23.17,98.36Z"/><path class="cls-30" d="M17.76,97.24l-.22-.61a.79.79,0,0,0,.22-.06c.39-.26,1-.64,1.21-.19.29.71-.61.42-.92.66Z"/><path class="cls-31" d="M22.85,94.58c.25.08.45.21.42.48a.42.42,0,0,1-.47.41.42.42,0,0,1-.41-.47A.45.45,0,0,1,22.85,94.58Z"/><path class="cls-32" d="M16.17,112.93c0,.25-.11.46-.41.48a.4.4,0,0,1-.43-.33.44.44,0,0,1,.33-.56C15.94,112.45,16.1,112.66,16.17,112.93Z"/><path class="cls-33" d="M8.28,79.44c0-.72,0-1.45,0-2.17,0-.22-.06-.53.28-.56S9,77,9,77.29a2.16,2.16,0,0,1,0,.36c-.23,1.18.29,1.39,1.42,1.45,1.44.08,1.71-.49,1.54-1.7,0-.27-.15-.73.38-.69s.32.4.32.66q0,2.05,0,4.11c0,.28.14.71-.4.68s-.29-.4-.31-.65c-.14-1.82-.14-1.79-2-1.8-.7,0-1.07.14-.95.92a7.85,7.85,0,0,1,0,1c0,.29,0,.59-.42.56s-.29-.32-.29-.55C8.27,80.89,8.28,80.17,8.28,79.44Z"/><path class="cls-34" d="M28.07,81.22a1.67,1.67,0,0,1-2.23.92,1.86,1.86,0,0,1-1.26-2.2,1.79,1.79,0,0,1,1.54-1.88A1.62,1.62,0,0,1,28,79.15c.27.69.33,1.3-.74,1.19a3.93,3.93,0,0,0-.84,0c-.37.06-.85-.22-1.07.24-.07.15.1.47.25.64a1.12,1.12,0,0,0,1.19.37C27.2,81.5,27.43,81,28.07,81.22Z"/><path class="cls-33" d="M17.3,80.14c0,1.3-.67,2.07-1.81,2.09s-1.92-.75-1.92-2.1S14.29,78,15.5,78,17.3,78.85,17.3,80.14Z"/><path class="cls-35" d="M21.65,78.8c-.56.84-.21,1.79-.31,2.68,0,.3.08.72-.43.68s-.27-.42-.28-.67c0-.52,0-1,0-1.56,0-1.28-.48-1.51-1.64-.86-.48,0-.46-.54-.74-.77,1.06-.11,2.15-.47,3.14.25A.28.28,0,0,1,21.65,78.8Z"/><path class="cls-36" d="M21.65,78.8l-.27-.25A1.27,1.27,0,0,1,23,78.14a1.32,1.32,0,0,1,.78,1.37c0,.72,0,1.44,0,2.16,0,.25,0,.5-.37.5s-.33-.27-.33-.5c0-.56,0-1.12,0-1.68C23.12,79,22.74,78.45,21.65,78.8Z"/><path class="cls-37" d="M18.24,78.3c.46,0,.57.44.74.77,0,.79-.05,1.59-.09,2.38,0,.29.11.71-.39.71s-.32-.39-.31-.64C18.19,80.45,18.22,79.37,18.24,78.3Z"/><path class="cls-38" d="M67.14,26.11a.38.38,0,0,1,0-.1c.55-2.66.58-2.69,3.11-1.84.83.28,1.64.61,2.52.94A11.45,11.45,0,0,1,67.14,26.11Z"/><path class="cls-39" d="M54.33,52.86l.49.23c1.27,1.07.73,2.35.32,3.55S53.78,58,52.71,58.05c-2,.06-2,.07-1.47-1.8.11-.43.24-.85.35-1.28C52.16,52.8,52.16,52.8,54.33,52.86Z"/><path class="cls-5" d="M53.6,47.52l1.23,0c.82.08,1.6.17,1.69,1.27a3.14,3.14,0,0,1-1.58,3.32c-.3.11-.61.17-.92.25-1.76,0-1.8,0-1.31-1.71A17.45,17.45,0,0,1,53.6,47.52Z"/><path class="cls-40" d="M78.79,54.8a4.47,4.47,0,0,1,1.36-2.53.91.91,0,0,1,1.22-.12.89.89,0,0,1,.18,1.11C81.07,54.47,80,54.68,78.79,54.8Z"/><path class="cls-41" d="M69.12,116.81c0-.93,0-1.52,0-2.11,0-.24,0-.49.34-.51s.48.2.48.52c0,1,0,1.93,0,2.89,0,.26.09.59-.31.68a.65.65,0,0,1-.7-.35l-1.41-2a3.53,3.53,0,0,0-.21,1.61c0,.31.07.68-.43.7s-.42-.37-.42-.66c0-.93,0-1.85,0-2.77,0-.25-.15-.6.29-.67a.68.68,0,0,1,.7.36C67.93,115.21,68.42,115.87,69.12,116.81Z"/><path class="cls-41" d="M119,116.13a4.33,4.33,0,0,1,0,.72c-.08.47.22,1.4-.23,1.34-.83-.1-1.86.65-2.52-.38a2,2,0,0,1,0-2.15c.14-.25.39-.5.66-.47.85.12,1.52.11,1.37-1,0,0,.24-.16.38-.18s.35.14.36.36v1.81Z"/><path class="cls-41" d="M78.13,118.19c.39-1.14.79-2.27,1.17-3.41.12-.38.28-.62.74-.62s.6.27.72.65c.31,1,.66,1.89,1,2.84.06.18.36.46,0,.59a.59.59,0,0,1-.81-.25c-.62-1-1.14-.94-1.85,0C78.91,118.23,78.91,118.23,78.13,118.19Z"/><path class="cls-42" d="M92,116.72c.1-.61.25-1.23.87-1.48a1.44,1.44,0,0,1,1.58.19,1.3,1.3,0,0,1,.49,1.28c-.11.39-.63.18-1,.23s-.73-.17-1,.19c0,.06,0,.25.11.32.35.34.71.24,1.09,0,.21-.12.51-.19.63.07s-.14.43-.34.56a1.66,1.66,0,0,1-1.61.12C92.18,117.94,92.05,117.33,92,116.72Z"/><path class="cls-43" d="M95.59,116.76c0-.33,0-.65,0-1a.9.9,0,0,1,.07-.47c.26-.38,2.43-.19,2.63.27a5.69,5.69,0,0,1,.14,2.5c0,.16-.21.2-.39.2s-.38-.21-.39-.48c0-.44,0-.89,0-1.32s-.16-.66-.6-.62-.51.33-.52.68,0,.73,0,1.09.06.67-.45.65-.44-.37-.45-.69Z"/><path class="cls-44" d="M115.33,117.54a1.41,1.41,0,0,1-1.92.7,1.44,1.44,0,0,1-.94-1.64,1.42,1.42,0,0,1,1.07-1.44,1.33,1.33,0,0,1,1.65.67c.34.64.4,1.19-.62,1.11H114c-.22,0-.54,0-.52.32s.34.41.62.41S114.82,117.13,115.33,117.54Z"/><path class="cls-44" d="M108.57,116.26c-.34-.74-.79-.34-1.22-.21a.53.53,0,0,1-.44-.08c-.14-.18,0-.39.13-.52a1.71,1.71,0,0,1,1.6-.27,1,1,0,0,1,.74,1c0,.2,0,.4,0,.6,0,1.35-.83,1.95-2.14,1.51a.83.83,0,0,1-.61-.8.77.77,0,0,1,.53-.85C107.63,116.48,108.09,116.38,108.57,116.26Z"/><path class="cls-45" d="M73.76,116.72a1.44,1.44,0,0,1-1.53,1.61c-1,0-1.43-.61-1.48-1.53a1.51,1.51,0,1,1,3-.08Z"/><path class="cls-42" d="M104.74,118.32a1.3,1.3,0,0,1-1.42-1.06,1.57,1.57,0,0,1,.73-2,1.45,1.45,0,0,1,1.78.26c.16.16.36.41.21.63a.43.43,0,0,1-.65,0c-.36-.35-.75-.55-1.1-.06a1.08,1.08,0,0,0,0,1.26c.3.41.68.3,1,0a.44.44,0,0,1,.65,0c.23.28,0,.51-.24.7A1.25,1.25,0,0,1,104.74,118.32Z"/><path class="cls-46" d="M100.43,118.34a2.84,2.84,0,0,1-.66-.26c-.39-.3-.57-3-.31-3.4s.5-.3.8-.18c-.37.65,1.28.54.51,1.29a1.11,1.11,0,0,0,0,1.83c.16.16.31.33.19.5S100.62,118.27,100.43,118.34Z"/><path class="cls-41" d="M87.75,115.3c0,.33-.07.43-.22.52-.75.47-.43,1.11-.19,1.66.1.23.66.38.34.69s-.75.17-1.11-.09a.56.56,0,0,1-.25-.63c.39-.83-.8-1.55-.13-2.38.19-.25.07-.82.63-.64S87.16,115.37,87.75,115.3Z"/><path class="cls-41" d="M75.78,118.29a1.11,1.11,0,0,1-.9-.26.76.76,0,0,1-.19-.78c.34-.84-.88-1.59-.06-2.5.29-.32.44-.34.75-.27-.19.63,1.18.64.62,1.23-.72.73-.71,1.27,0,1.92a.45.45,0,0,1,.12.54C76,118.27,75.81,118.28,75.78,118.29Z"/><path class="cls-47" d="M112,115.36a.49.49,0,0,1-.27.46,1.11,1.11,0,0,0-.11,1.71c.16.21.53.33.32.63s-.52.14-.8.1a.78.78,0,0,1-.32-.15,7.41,7.41,0,0,1-.42-3.09c.15-.31.23-.83.68-.56S111.54,115.22,112,115.36Z"/><path class="cls-48" d="M88.55,114.17c1.36-.62.6.66,1,1A1.92,1.92,0,0,1,91.39,118a.41.41,0,0,1-.45.28c-.3,0-.45-.14-.45-.43s0-.81,0-1.21-.19-.85-.77-.8a.82.82,0,0,1-.83-.83A1.19,1.19,0,0,0,88.55,114.17Z"/><path class="cls-46" d="M88.55,114.17c.43,0,.7.18.67.64a1.18,1.18,0,0,0,.49,1c-.51.54-.26,1.22-.31,1.85,0,.37-.1.62-.54.59s-.36-.36-.36-.61C88.51,116.51,88.53,115.34,88.55,114.17Z"/><path class="cls-49" d="M83.66,117.62c1.09-.13.61-1,.73-1.58.07-.34-.23-.89.45-.88s.43.54.46.88,0,.88,0,1.32c.1,1.09-.39,1.14-1.18.69C83.87,118,83.62,118,83.66,117.62Z"/><path class="cls-3" d="M102.62,116.65c-.27.57.31,1.53-.44,1.56-1,.05-.47-1-.47-1.48s-.52-1.53.46-1.5C103,115.25,102.26,116.24,102.62,116.65Z"/><path class="cls-50" d="M83.66,117.62l.47.43c-1.13.47-1.61.24-1.7-.86,0-.48,0-1,0-1.44,0-.27,0-.59.39-.6s.4.29.43.57C83.3,116.37,83,117.11,83.66,117.62Z"/><path class="cls-51" d="M102.56,114.11c0,.36-.13.53-.41.55a.42.42,0,0,1-.48-.4.44.44,0,0,1,.42-.48C102.37,113.74,102.48,114,102.56,114.11Z"/><path class="cls-41" d="M69.12,98.88c0-.93,0-1.52,0-2.1,0-.24,0-.5.33-.53s.49.19.49.52c0,1,0,1.92,0,2.89,0,.26.1.59-.3.68a.66.66,0,0,1-.71-.34l-1.41-2a3.35,3.35,0,0,0-.21,1.6c0,.3.08.67-.42.7s-.43-.35-.43-.65c0-.92,0-1.85,0-2.77,0-.24-.15-.6.28-.67a.68.68,0,0,1,.71.35Z"/><path class="cls-41" d="M118.06,97.36c.41-.39-.28-1.39.65-1.29.68.08.24.87.32,1.33a8,8,0,0,1,0,1.2c0,1.93,0,1.93-1.91,1.78-.95-.08-1.15-.84-1.16-1.56s.23-1.56,1.24-1.61A4.43,4.43,0,0,1,118.06,97.36Z"/><path class="cls-41" d="M78.13,100.25c.39-1.12.78-2.21,1.14-3.31.14-.41.27-.73.8-.71s.58.3.7.67c.31.95.66,1.89,1,2.84.06.18.36.45,0,.58a.6.6,0,0,1-.74-.18c-.85-1-1.15-1.06-1.88,0C78.79,100.5,78.5,100.35,78.13,100.25Z"/><path class="cls-42" d="M93.54,100.4A1.39,1.39,0,0,1,92,99a1.45,1.45,0,0,1,1.1-1.75,1.33,1.33,0,0,1,1.72.91c.21.59.13.93-.59.88a4.33,4.33,0,0,0-.72,0c-.22,0-.55-.11-.58.23s.29.44.57.5c.07,0,.15,0,.23,0,.35,0,.91-.6,1-.06S94,100.37,93.54,100.4Z"/><path class="cls-43" d="M95.59,98.82c0-.33,0-.65,0-1a1,1,0,0,1,.15-.55,4,4,0,0,1,2.49.26,5,5,0,0,1,.19,2.6c0,.06-.24.16-.38.18s-.37-.11-.38-.35c0-.4,0-.8,0-1.2s-.06-.89-.63-.85-.52.52-.53.93,0,.56,0,.84.05.67-.46.65-.43-.39-.44-.7S95.59,99.1,95.59,98.82Z"/><path class="cls-44" d="M115.43,99.49a1.54,1.54,0,0,1-2.19.74,1.57,1.57,0,0,1-.7-2,1.37,1.37,0,0,1,1.55-1.06,1.29,1.29,0,0,1,1.13.77c.29.6.35,1.1-.59,1.07-.38,0-.82-.17-1.15.15-.12.11,0,.31.09.41.45.36.83,0,1.23-.12A2.47,2.47,0,0,1,115.43,99.49Z"/><path class="cls-44" d="M108.61,98.32c-.4-.6-.75-.43-1.13-.25-.2.09-.51.19-.61-.12s.13-.42.35-.56a1.34,1.34,0,0,1,2.17,1.06c0,.12,0,.24,0,.36,0,1.39-.77,2-2.12,1.53a.84.84,0,0,1-.63-.79.78.78,0,0,1,.51-.86C107.61,98.54,108.08,98.45,108.61,98.32Z"/><path class="cls-45" d="M72.28,100.4a1.61,1.61,0,0,1,0-3.21c1,0,1.42.63,1.46,1.55A1.44,1.44,0,0,1,72.28,100.4Z"/><path class="cls-42" d="M104.94,100.38c-.88,0-1.39-.28-1.58-.93a1.67,1.67,0,0,1,.47-2,1.53,1.53,0,0,1,1.71-.09c.32.17.69.49.49.84s-.55.11-.81-.13a.56.56,0,0,0-.93.07,1.19,1.19,0,0,0,0,1.27.54.54,0,0,0,.84.14c.31-.21.7-.56.87-.1s-.33.75-.78.87A.92.92,0,0,1,104.94,100.38Z"/><path class="cls-46" d="M101,100a.3.3,0,0,1-.32.33,1.14,1.14,0,0,1-.91-.19,6.31,6.31,0,0,1-.32-3.4c.23-.39.5-.3.8-.21-.24.65,1.14.65.6,1.2-.75.77-.73,1.33,0,2A.87.87,0,0,1,101,100Z"/><path class="cls-41" d="M86.67,96.48c.64-.06.44.91,1.07.92.05,0-.06.34-.28.52a1.13,1.13,0,0,0-.06,1.67c.19.25.6.42.21.69a.89.89,0,0,1-1.1-.19.74.74,0,0,1-.19-.78c.34-.84-.94-1.63,0-2.49C86.4,96.7,86.43,96.48,86.67,96.48Z"/><path class="cls-41" d="M75,96.49c.73-.08.53.89,1.16.9,0,0,0,.35-.27.53a1.13,1.13,0,0,0-.07,1.67c.17.24.6.41.22.69a.91.91,0,0,1-1.3-1.08c.21-.84-.82-1.64,0-2.49A.76.76,0,0,1,75,96.49Z"/><path class="cls-47" d="M111.34,100.37a2.11,2.11,0,0,1-.58-.22c-.39-.28-.56-3-.28-3.43a.57.57,0,0,1,.75-.11c-.37.68,1.33.53.52,1.22s-.62,1.23,0,1.84c.15.15.31.27.24.49S111.62,100.34,111.34,100.37Z"/><path class="cls-48" d="M88.55,96.24c1.36-.63.6.66,1,1a1.92,1.92,0,0,1,1.88,2.85.42.42,0,0,1-.45.28c-.3,0-.45-.14-.45-.44s0-.8,0-1.21-.19-.84-.77-.8a.81.81,0,0,1-.83-.82A1.19,1.19,0,0,0,88.55,96.24Z"/><path class="cls-46" d="M88.55,96.24c.43,0,.7.17.67.63a1.17,1.17,0,0,0,.49,1c-.51.55-.26,1.23-.31,1.85,0,.38-.1.62-.54.6s-.36-.36-.36-.62C88.51,98.57,88.53,97.41,88.55,96.24Z"/><path class="cls-49" d="M83.66,99.69c1.09-.14.61-1,.73-1.59.07-.33-.23-.88.45-.88s.43.54.46.89,0,.88,0,1.31c.1,1.09-.39,1.14-1.18.69C83.87,100.09,83.62,100.06,83.66,99.69Z"/><path class="cls-3" d="M102.61,98.86c-.33.46.41,1.43-.5,1.43s-.41-1-.4-1.45-.52-1.56.42-1.54S102.28,98.35,102.61,98.86Z"/><path class="cls-50" d="M83.66,99.69l.47.42c-1.13.47-1.61.24-1.7-.85,0-.48,0-1,0-1.45,0-.27,0-.59.39-.59s.4.28.43.57C83.3,98.44,83,99.17,83.66,99.69Z"/><path class="cls-51" d="M102.09,96.73c-.26,0-.45-.19-.42-.47a.42.42,0,0,1,.47-.41.41.41,0,0,1,.41.47C102.54,96.6,102.37,96.73,102.09,96.73Z"/><path class="cls-52" d="M34,116.21c-.06.83-.33,1.51-1.16,1.52s-1.2-.77-1.18-1.52.24-1.43,1.14-1.42S33.91,115.53,34,116.21Z"/><path class="cls-38" d="M9,96.68c0-.62-.22-1.28.82-1.2.8.07,1.5.2,1.54,1.12s-.73,1.12-1.56,1.18C8.74,97.87,9,97.15,9,96.68Z"/><path class="cls-53" d="M31.84,98c-.3-.22-1,.31-1-.42,0-.49.5-.72.95-.72s1,.22,1,.79S32.17,97.8,31.84,98Z"/><path class="cls-54" d="M15.15,98.82a1,1,0,0,1-1.06,1c-.41,0-.86-.16-.82-.66.07-.74.76-.56,1.23-.67C14.8,98.43,15.16,98.38,15.15,98.82Z"/><path class="cls-55" d="M26.43,79.81c-.3-.23-1,.33-1-.42,0-.5.49-.72,1-.71s.95.26.95.75C27.37,80.11,26.75,79.61,26.43,79.81Z"/><path class="cls-56" d="M16.57,80.29c0,.76-.36,1.35-1.18,1.31S14.28,80.83,14.3,80s.32-1.38,1.18-1.34S16.61,79.45,16.57,80.29Z"/><path class="cls-57" d="M117.37,117.57c-.49-.08-.55-.51-.52-1s.18-.73.63-.73c.61,0,.7.47.68.93S118,117.6,117.37,117.57Z"/><path class="cls-58" d="M80,115.43c.18.38.59.71.29,1.14a.59.59,0,0,1-.56,0C79.41,116.17,79.85,115.82,80,115.43Z"/><path class="cls-59" d="M94.14,116.23a1.3,1.3,0,0,1-1.26,0C93.25,115.7,93.61,115.66,94.14,116.23Z"/><path class="cls-60" d="M114.51,116.23a.94.94,0,0,1-1,0c-.16-.11,0-.31.11-.36A.59.59,0,0,1,114.51,116.23Z"/><path class="cls-61" d="M108.12,116.93c.27,0,.49.06.42.33a.58.58,0,0,1-.62.44c-.23,0-.5-.12-.42-.42S107.94,117,108.12,116.93Z"/><path class="cls-62" d="M73,116.68c-.08.45-.1.94-.7.94s-.66-.4-.68-.81.05-.92.62-1S72.84,116.28,73,116.68Z"/><path class="cls-57" d="M117.39,99.64c-.52-.1-.58-.53-.54-1s.19-.72.64-.71c.61,0,.69.48.67.94S118,99.67,117.39,99.64Z"/><path class="cls-58" d="M80.07,97.46c.09.43.62.78.21,1.2-.09.09-.52,0-.55,0C79.52,98.16,79.81,97.81,80.07,97.46Z"/><path class="cls-59" d="M92.82,98.29c.53-.56.89-.53,1.25,0A1.29,1.29,0,0,1,92.82,98.29Z"/><path class="cls-60" d="M114,97.86c.24,0,.52.1.48.38s-.36.19-.57.2-.43,0-.42-.23S113.74,97.89,114,97.86Z"/><path class="cls-61" d="M108,99.78c-.24,0-.48-.11-.48-.3,0-.45.38-.42.67-.47s.42,0,.37.3S108.22,99.72,108,99.78Z"/><path class="cls-62" d="M72.22,97.88c.62,0,.7.5.7.93s-.08.84-.6.88-.74-.4-.75-.86S71.66,98,72.22,97.88Z"/></g><g id="_3TqbG9.tif" data-name="3TqbG9.tif"><path class="cls-1" d="M228.76,0H358.63a2.2,2.2,0,0,1,.12,1.19V69a3.53,3.53,0,0,1-.08,1.21,1.53,1.53,0,0,1-1.2.46h-126a5,5,0,0,1-2.5-.25.73.73,0,0,1-.3-.37c0-9.86,0-19.72,0-29.58q0-19.57,0-39.16A2.54,2.54,0,0,1,228.76,0Z"/><path class="cls-3" d="M358.59,70.18c0-.49,0-1,0-1.45V0c.5.22.23.66.23,1,0,5.51,0,11,0,16.51q0,52.27,0,104.54c0,.91-.21,1.12-1.12,1.12q-64.08,0-128.17,0c-.36,0-.83.28-1.1-.23a2.21,2.21,0,0,1,.4-.28,5.38,5.38,0,0,1,2.39-.21H357a1,1,0,0,0,1.16-1.2c0-.4,0-.81,0-1.21V90.34a15.57,15.57,0,0,1,.07-1.93c-.15-5.67,0-11.35-.06-17A1.73,1.73,0,0,1,358.59,70.18Z"/><path class="cls-63" d="M228.76,0V70.14a.16.16,0,0,1-.26,0q0-34.55,0-69.09C228.53.74,228.25.27,228.76,0Z"/><path class="cls-63" d="M228.76,122.83l-.25,0V88.39l.24,0a1,1,0,0,1,.32.37,3.78,3.78,0,0,1,.18,1.67q0,15.2,0,30.41C229.25,121.5,229.39,122.26,228.76,122.83Z"/><path class="cls-64" d="M228.76,88.34l-.25,0V70.18l.26,0,0,.07a1.86,1.86,0,0,1,.5,1.56q0,7.5,0,15A1.73,1.73,0,0,1,228.76,88.34Z"/><path class="cls-2" d="M228.76,88.34q0-9.06,0-18.13l1.69,0H358.59V88.39a1.51,1.51,0,0,1-1.2.49H230.82a2.64,2.64,0,0,1-2.07-.46Z"/><path class="cls-3" d="M283.8,21.31c2.14-1.46,4-2.78,5.93-4a1,1,0,0,0,.41-1.56c-.95-1.78-1.8-3.59-2.78-5.56,5.59,1,11,1.75,15.74,4.88A7.39,7.39,0,0,1,305,16.84a5.06,5.06,0,0,1-1.81,7.71c-.46.25-.93.47-1.53.77A19.29,19.29,0,0,1,304.14,27a3.86,3.86,0,0,1,.72,5.33c-1.55,2.47-4.08,3.49-6.69,4.26a24.53,24.53,0,0,1-6.21,1c-.72,0-1.11.18-1.35,1-.66,2.07-1.45,4.1-2.21,6.14-.1.28-.16.64-.66.68-.27-.47,0-.9.16-1.32,2-6.72,4-13.44,6-20.15.27-.87.05-1.06-.75-1.22C290.17,22.07,287.14,21.67,283.8,21.31Z"/><path class="cls-4" d="M283.41,52.92A2.44,2.44,0,0,1,285.57,55a2.69,2.69,0,0,1-1.72,3,5,5,0,0,1-2.34.5c-1.65,0-3.3,0-5-.08,1.09-.2,1.14-1.05,1.34-1.86.63-2.61,1.31-5.22,2-7.83a2.37,2.37,0,0,0,.15-1.18c.57-.75,1.29-.27,2-.25.39,1.13-.23,2.12-.43,3.17-.27,1.34-.31,1.33,1.05,1.64.4.2.61.47.29.9a1.68,1.68,0,0,1-.42.22c-.57.23-1.41-.16-1.72.59a11.8,11.8,0,0,0-.82,3.27c0,.23.14.34.34.42a2.32,2.32,0,0,0,3-1.35c.43-1.07,0-2-.2-3.05C283.07,53,283.18,52.84,283.41,52.92Z"/><path class="cls-5" d="M296.39,52.16l.34.29c.74,1.44.15,4-1.19,5.33l-.27.23a1.94,1.94,0,0,1-1.71.47,1.24,1.24,0,0,1-.86-1.18c-.06-2,.37-3.87,2.1-5.18C295.34,51.92,295.87,51.65,296.39,52.16Z"/><path class="cls-6" d="M308.86,58.52a2.47,2.47,0,0,1-3.4-2.08,4.65,4.65,0,0,1,3.75-4.77c.86-.09,1.63,0,1.93,1s-.23,1.46-.93,1.88a3.21,3.21,0,0,1-1.94.56c-1.38-.11-1.46.76-1.44,1.76s.65,1.48,1.66,1.4h.37c.06.06.09.11.07.17S308.89,58.52,308.86,58.52Z"/><path class="cls-7" d="M295.54,57.78c.31-.94.62-1.89.94-2.83a6.84,6.84,0,0,0,.25-2.5c.12,0,.33.06.34,0,.24-.61.71-1,1.28-.67s0,.92-.06,1.35a40.82,40.82,0,0,1-1.12,4.07c-.29.88,0,1,.8,1.06-.67.52-1.32.76-1.9-.14C295.92,57.94,295.84,57.74,295.54,57.78Z"/><path class="cls-7" d="M289.45,53.18a20.54,20.54,0,0,0-1.37,4.46c-.15.85-.53,1.09-1.43.83q.57-2.47,1.16-4.95c.29-1.24.3-1.24-1.19-1.44a4.07,4.07,0,0,1,2.69-.3c.53.06-.31.68.13,1A.28.28,0,0,1,289.45,53.18Z"/><path class="cls-8" d="M300,52.14c.77-.52,1.33-.64,1.82-.25s.25.94.1,1.46c-.31,1.08-.57,2.17-.88,3.25-.47,1.66-.37,1.8,1.48,1.57a1.88,1.88,0,0,1-2.36.34c-.76-.4-.53-1.08-.37-1.71.32-1.2.61-2.41,1-3.6C300.92,52.58,300.91,52.17,300,52.14Z"/><path class="cls-8" d="M282.64,52.94c.35-.43-.05-.44-.3-.53,0-.33.26-.49.52-.59a2.46,2.46,0,0,0,1.5-2,1.81,1.81,0,0,0-1.17-2.1c-.11-.06-.11-.2-.09-.32a1.54,1.54,0,0,1,1.31-.08,2.12,2.12,0,0,1,2.1,2,3,3,0,0,1-1.85,3c-.42.21-1.14-.08-1.25.68l-.28.25C282.85,53.35,282.66,53.33,282.64,52.94Z"/><path class="cls-9" d="M295,52.2a7.19,7.19,0,0,0-2,4.72,1.43,1.43,0,0,0,.54,1.38c0,.45-.23.36-.5.23a2.65,2.65,0,0,1-1.33-3.1,4.94,4.94,0,0,1,3-3.5C295,51.81,295.05,52,295,52.2Z"/><path class="cls-10" d="M304.47,54.09c0-.46.19-1-.55-1.06-.38-.05-.69-.25-.57-.73a.82.82,0,0,1,1.61,0,4.31,4.31,0,0,1-.25,2.35C304.25,54.62,304.38,54.35,304.47,54.09Z"/><path class="cls-11" d="M289.45,53.18v-.44c.53-.46,1-1.08,1.79-1.06.48,0,.78.21.75.7s-.46.77-.84.54C290.44,52.49,290,52.83,289.45,53.18Z"/><path class="cls-12" d="M284.41,47.32c-.41.14-.9-.11-1.27.24a.76.76,0,0,1-1.22,0,1.86,1.86,0,0,0-1.94,0c-.35,0-.72.1-1.05-.31A19.35,19.35,0,0,1,284.41,47.32Z"/><path class="cls-13" d="M304.47,54.09l.24.54a3,3,0,0,1-1.28,2.13Z"/><path class="cls-14" d="M293.07,58.53l.5-.23c.61.16,1.14-.18,1.7-.29A1.53,1.53,0,0,1,293.07,58.53Z"/><path class="cls-15" d="M295,52.2l-.32-.27c.6-.18,1.24-.7,1.68.23A1.83,1.83,0,0,0,295,52.2Z"/><path class="cls-16" d="M308.86,58.52v-.25a1.09,1.09,0,0,1,1-.44A1,1,0,0,1,308.86,58.52Z"/><path class="cls-17" d="M309.92,57.92c0-.76.16-1,.53-1.08C310.69,57.34,310.28,57.43,309.92,57.92Z"/><path class="cls-1" d="M228.75,88.43c.44,0,.89,0,1.33,0H358.59c0,2.35,0,4.69,0,7,0,8.74,0,17.48,0,26.22,0,1-.24,1.25-1.25,1.25q-42.18,0-84.35,0h-43c-.44,0-.89,0-1.33,0Z"/><path class="cls-33" d="M236.5,79.57c0-.72,0-1.45,0-2.17,0-.22-.07-.54.28-.56s.43.28.43.58a2.16,2.16,0,0,1,0,.36c-.23,1.19.29,1.39,1.42,1.46,1.45.08,1.71-.5,1.54-1.71,0-.27-.14-.73.39-.69s.31.41.31.67c0,1.37,0,2.74,0,4.11,0,.28.14.72-.4.68s-.29-.4-.31-.65c-.14-1.82-.14-1.79-2-1.8-.71,0-1.08.14-1,.92a6.28,6.28,0,0,1,0,1c0,.29,0,.6-.43.56s-.28-.33-.28-.55C236.5,81,236.5,80.3,236.5,79.57Z"/><path class="cls-34" d="M256.3,81.42a1.66,1.66,0,0,1-2.2.86,1.86,1.86,0,0,1-1.27-2.2,1.81,1.81,0,0,1,1.66-1.9,1.65,1.65,0,0,1,1.85,1.21c.25.7.15,1.2-.78,1.09a3.37,3.37,0,0,0-.84,0c-.37,0-.86-.22-1.09.24-.07.14.1.47.25.64a1.14,1.14,0,0,0,1.31.32C255.53,81.57,255.77,81,256.3,81.42Z"/><path class="cls-33" d="M245.54,80.23c0,1.36-.68,2.15-1.89,2.14s-1.83-.76-1.84-2.06.68-2.15,1.89-2.14S245.53,78.94,245.54,80.23Z"/><path class="cls-35" d="M246.48,78.43c1.07-.11,2.15-.46,3.15.25a.29.29,0,0,1,.27.25c-.56.85-.21,1.79-.31,2.69,0,.3.08.72-.43.68s-.27-.43-.28-.67c0-.52,0-1,0-1.56,0-1.29-.48-1.52-1.64-.87C246.74,79.17,246.76,78.66,246.48,78.43Z"/><path class="cls-36" d="M249.9,78.93l-.27-.25a1.26,1.26,0,0,1,1.61-.4c.61.2.76.78.79,1.36,0,.73,0,1.45,0,2.17,0,.25,0,.49-.36.5s-.34-.27-.34-.5c0-.56,0-1.12,0-1.68C251.38,79.08,251,78.58,249.9,78.93Z"/><path class="cls-37" d="M246.48,78.43c.47,0,.57.45.75.77,0,.8-.06,1.59-.1,2.39,0,.29.11.71-.39.71s-.31-.39-.31-.64C246.44,80.58,246.46,79.51,246.48,78.43Z"/><path class="cls-38" d="M301.12,25.34a23.32,23.32,0,0,1-5,.87c-.67.1-.73-.15-.56-.73.62-2.05.61-2.07,2.63-1.42.88.28,1.74.64,2.61,1C300.88,25.07,301,25.18,301.12,25.34Z"/><path class="cls-39" d="M282.64,52.94l.49.23c1.28,1.08.73,2.36.33,3.56s-1.37,1.37-2.44,1.41c-2,.06-2,.07-1.48-1.8.12-.43.25-.85.36-1.28C280.47,52.89,280.47,52.89,282.64,52.94Z"/><path class="cls-5" d="M281.92,47.59l1.22,0c.82.09,1.61.17,1.7,1.28a3.13,3.13,0,0,1-1.59,3.32c-.3.11-.61.17-.91.25-1.77,0-1.81,0-1.32-1.71A17,17,0,0,1,281.92,47.59Z"/><path class="cls-40" d="M307.15,54.89a4.63,4.63,0,0,1,1.17-2.36c.4-.42.89-.68,1.4-.3s.33,1,0,1.43A3,3,0,0,1,307.15,54.89Z"/><path class="cls-65" d="M313.6,93.25h35.17c2.26,0,2.82.54,2.82,2.76v4.61c0,2-.62,2.58-2.63,2.58H278c-2,0-2.63-.61-2.63-2.58,0-1.65,0-3.31,0-5s.68-2.4,2.44-2.4Z"/><path class="cls-65" d="M324.15,111.46h24.74c2.13,0,2.7.58,2.7,2.75,0,1.66,0,3.32,0,5a2,2,0,0,1-2.25,2.23q-25.17,0-50.33,0c-1.58,0-2.27-.72-2.28-2.32s0-3.48,0-5.22.68-2.41,2.44-2.41Z"/><path class="cls-19" d="M260,118.13c-.24.63.21,1.69-.35,1.66-.81-.05-.33-1.05-.38-1.62-.08-1,0-2,0-3,0-.67.05-.72.68-.43.27.12.36,0,.5-.11a1.53,1.53,0,0,1,2.14.42,2.51,2.51,0,0,1-.06,2.94,1.56,1.56,0,0,1-2.17.3C260.2,118.21,260.08,118.18,260,118.13Z"/><path class="cls-20" d="M253.74,115.12c0-.44,0-.88,0-1.33,0-.27-.2-.74.3-.76s.39.41.4.72c0,.85,0,1.7,0,2.54,0,1,.46,1.67,1.46,1.67s1.48-.69,1.49-1.68,0-1.77,0-2.66c0-.24-.12-.63.35-.61.3,0,.36.27.35.53,0,1.13.06,2.27-.05,3.38a2,2,0,0,1-2.26,1.71,1.93,1.93,0,0,1-2-1.93c0-.53,0-1,0-1.58Z"/><path class="cls-20" d="M236.51,97.79v-.85c0-2.18.16-2.31,2.31-1.86a1.67,1.67,0,0,1,1.49,1.77,1.57,1.57,0,0,1-1.67,1.7c-1.11,0-1.67.2-1.43,1.41.06.29,0,.6-.42.56s-.28-.33-.28-.55C236.5,99.24,236.51,98.52,236.51,97.79Z"/><path class="cls-21" d="M236.27,115.72a2.62,2.62,0,0,1,1.58-2.67,2.27,2.27,0,0,1,2.62.68c.2.22.55.56.3.81s-.59-.06-.84-.33a1.56,1.56,0,0,0-2.8.62,3,3,0,0,0-.08,1.55,1.73,1.73,0,0,0,1.19,1.53,1.51,1.51,0,0,0,1.73-.55c.22-.26.49-.57.77-.27s-.09.58-.29.79a2.3,2.3,0,0,1-2.66.57C236.62,118,236.31,117,236.27,115.72Z"/><path class="cls-22" d="M261.84,99.42a1.67,1.67,0,0,1-2.14,1.1c-1.19-.25-1.42-1.18-1.36-2.23A1.72,1.72,0,0,1,260,96.41a1.62,1.62,0,0,1,1.89,1.44c.14.55.08.86-.58.83a14,14,0,0,0-1.45,0c-.26,0-.63-.13-.71.25s.16.66.49.89C260.37,100.35,261,99.56,261.84,99.42Z"/><path class="cls-23" d="M253,118.4c-1.05.36-1.17-.58-1.64-1-.25-.22-.35-.75-.79-.58s-.16.57-.21.87.17.74-.32.76-.36-.51-.36-.8c0-1.45,0-2.9,0-4.36,0-.22-.06-.53.3-.53s.39.23.39.5v2.63l.36.29,1.22-1.84c.47,1.07-1.39,1.07-.47,2.15C252,117.12,252.43,117.75,253,118.4Z"/><path class="cls-20" d="M244.09,99v1.09c0,.2-.08.56-.23.45-.7-.49-1.32.2-2,.06a1.15,1.15,0,0,1-1-1,1,1,0,0,1,.76-1.21,9,9,0,0,1,1.06-.22c.31-.06.79.16.72-.49s-.45-.61-.86-.65c-.11,0-.23.09-.35.08-.36,0-.77.84-1,.12-.15-.44.54-.69,1-.77,1.19-.17,1.82.37,1.87,1.58C244.1,98.32,244.09,98.64,244.09,99Z"/><path class="cls-24" d="M255.8,99.4c-.26,1-1,1.2-1.86,1.16a1.64,1.64,0,0,1-1.58-1.43,2.14,2.14,0,0,1,.82-2.48,1.79,1.79,0,0,1,2.15.14c.24.19.58.46.33.78s-.47,0-.68-.21a1,1,0,0,0-1.65.09,1.64,1.64,0,0,0,0,2.13,1,1,0,0,0,1.59.06C255.18,99.43,255.35,99.23,255.8,99.4Z"/><path class="cls-25" d="M248.69,117.41a1.58,1.58,0,0,1-2,1.1,1.6,1.6,0,0,1-1.46-1.53c-.13-1-.08-1.9.92-2.41a1.76,1.76,0,0,1,2.13.27c.2.18.5.43.27.69s-.47,0-.69-.17a1,1,0,0,0-1.65,0,1.66,1.66,0,0,0,0,2.12,1,1,0,0,0,1.65,0A.52.52,0,0,1,248.69,117.41Z"/><path class="cls-26" d="M241.85,115.66c0-.8,0-1.61,0-2.41,0-.18-.05-.44.24-.47a.38.38,0,0,1,.45.42c0,1.61,0,3.23,0,4.84,0,.27-.09.48-.41.46s-.29-.32-.3-.54Z"/><path class="cls-3" d="M257.39,97.74c0,.76,0,1.53,0,2.29,0,.24,0,.5-.34.5s-.36-.25-.36-.5v-4.7c0-.26.05-.51.36-.51s.34.27.34.51C257.4,96.13,257.39,96.94,257.39,97.74Z"/><path class="cls-27" d="M248.44,95.43c.48,0,.56.15.56.37s.07.59.52.63.51.29.08.56a2.12,2.12,0,0,0-.11,2.91c.2.15.5.22.35.51s-.44.14-.68.11c-.6-.06-.72-.49-.84-1-.2-.91.51-2-.61-2.73A2.1,2.1,0,0,0,248.44,95.43Z"/><path class="cls-28" d="M246,97.41a8.19,8.19,0,0,0-.2,2.61c0,.23,0,.5-.33.51s-.37-.23-.37-.49q0-1.56,0-3.12c0-.25,0-.49.36-.5s.32.15.31.38C246,97,246.14,97.13,246,97.41Z"/><path class="cls-26" d="M244.3,116.49c0,.53,0,1.05,0,1.58,0,.2,0,.41-.28.43s-.41-.08-.41-.33v-3.4a.35.35,0,0,1,.37-.38c.28,0,.32.2.32.4C244.31,115.36,244.3,115.92,244.3,116.49Z"/><path class="cls-29" d="M251.42,98.56v1.57c0,.22-.08.4-.34.4a.33.33,0,0,1-.36-.38c0-1.08,0-2.17,0-3.26,0-.25.06-.49.4-.46s.29.24.3.44C251.43,97.43,251.42,98,251.42,98.56Z"/><path class="cls-30" d="M246,97.41l-.23-.61a.79.79,0,0,0,.22-.06c.39-.26,1-.65,1.21-.19.3.71-.6.42-.92.66Z"/><path class="cls-32" d="M244.05,113.63c-.34,0-.51-.21-.49-.49a.42.42,0,1,1,.84,0A.48.48,0,0,1,244.05,113.63Z"/><path class="cls-31" d="M251.55,95.11c0,.33-.18.5-.44.53a.43.43,0,0,1-.47-.42.43.43,0,0,1,.42-.47C251.34,94.71,251.43,95,251.55,95.11Z"/><path class="cls-55" d="M254.66,79.93c-.31-.18-.92.31-1-.34,0-.49.43-.76.91-.78s1,.25,1,.8S255,79.76,254.66,79.93Z"/><path class="cls-56" d="M242.54,80.42c0-.91.21-1.6,1.15-1.6s1.12.62,1.13,1.41-.26,1.51-1.16,1.52S242.52,81.12,242.54,80.42Z"/><path class="cls-66" d="M279.7,98.43v-.36c0-1.77.27-2,2-1.63.51.11,1.19.5.93.87-.7,1,1.15,2.21-.32,3a4.71,4.71,0,0,1-2.27.2c-.34,0-.35-.26-.35-.51Z"/><path class="cls-67" d="M325.11,100.35c-1.06-.37-1.13-1.23-.87-2.08s.92-.74,1.72-.82c2-.2,1.2,1.18,1.24,2,.09,1.72-.45,2.33-1.75,2.18a4.89,4.89,0,0,1-1-.34c0-.52,0-.52.71-.59.08,0,.18,0,.24,0s0-.11-.09-.14A.37.37,0,0,1,325.11,100.35Z"/><path class="cls-68" d="M332.9,98.37a1.93,1.93,0,0,1,3.45-1.29c.15.2.31.47.15.65a.48.48,0,0,1-.75,0c-.38-.54-.84-.8-1.43-.41s-.52,1-.45,1.54c.13,1,.91,1.32,1.71.66.3-.24.61-.59.89-.2s-.14.67-.42.91a1.89,1.89,0,0,1-2.05.26A2,2,0,0,1,332.9,98.37Z"/><path class="cls-69" d="M345.42,100.36c0,.23,0,.43-.05.62s0,.57-.44.57-.38-.32-.38-.59c0-.61,0-1.21,0-1.81,0-1.79.3-2.07,2-1.77.91.17,1.07.94,1.05,1.67s-.28,1.47-1.23,1.49A4.47,4.47,0,0,1,345.42,100.36Z"/><path class="cls-70" d="M329.38,99.68c.23-.76.43-1.32.57-1.89s.43-.47.74-.37.09.4,0,.58c-.29.88-.6,1.75-.91,2.62a1.3,1.3,0,0,1-1.12,1c-.21,0-.43.09-.55-.11s0-.4.28-.51c.54-.22.37-.63.23-1-.23-.65-.46-1.29-.67-2-.06-.19-.33-.47,0-.58s.64-.13.76.33S329.14,98.9,329.38,99.68Z"/><path class="cls-70" d="M343.82,99a1.51,1.51,0,0,1-1.58,1.6c-1,0-1.4-.7-1.48-1.57a1.49,1.49,0,0,1,1.51-1.66A1.51,1.51,0,0,1,343.82,99Z"/><path class="cls-71" d="M311.62,99q0-.48,0-1a.9.9,0,0,1,.06-.47c.25-.39,2.5-.14,2.67.33a6.35,6.35,0,0,1,.11,2.38c0,.26-.24.28-.45.26s-.32-.18-.33-.4c0-.44,0-.89,0-1.33s-.16-.74-.65-.68-.49.36-.5.7,0,.73,0,1.09.05.67-.46.63-.42-.29-.42-.58S311.62,99.31,311.62,99Z"/><path class="cls-72" d="M308.87,97.69c1.48-.59,1.95-.3,2,1.17a5.89,5.89,0,0,1,0,.84c0,.31.2.82-.41.82s-.33-.51-.39-.82c-.12-.57.31-1.56-.61-1.56s-.46,1-.59,1.56c-.08.3.21.81-.4.82s-.42-.48-.43-.8c0-.89,0-1.78,0-2.66,0-.33-.17-.83.38-.86.71,0,.36.56.44.89A2.78,2.78,0,0,1,308.87,97.69Z"/><path class="cls-71" d="M286.11,98.15c.33-.89,1.06-.87,1.78-.74s.85.65.83,1.27c0,.12,0,.25,0,.37,0,.47,0,1.33-.1,1.36a7.53,7.53,0,0,1-2.07.07c-.34,0-.52-.35-.56-.7a.81.81,0,0,1,.44-.9,6.87,6.87,0,0,1,.81-.22c.22-.07.68.09.52-.39-.1-.31-.45-.27-.73-.16S286.47,98.44,286.11,98.15Z"/><path class="cls-70" d="M322,100.57a1.46,1.46,0,0,1-1.46-1.69A1.41,1.41,0,0,1,322,97.36,1.49,1.49,0,0,1,323.55,99,1.47,1.47,0,0,1,322,100.57Z"/><path class="cls-70" d="M318.2,99a1.52,1.52,0,1,1-3-.19,1.4,1.4,0,0,1,1.54-1.48A1.48,1.48,0,0,1,318.2,99Z"/><path class="cls-70" d="M302.42,97.36a1.21,1.21,0,0,1,1.1.56,1,1,0,0,1,.24,1c-.14.39-.55.19-.85.23s-.74-.14-1,.16a.3.3,0,0,0,.07.43.83.83,0,0,0,1,0c.24-.14.58-.31.71,0s-.24.5-.48.6a1.54,1.54,0,0,1-1.8-.19,1.65,1.65,0,0,1-.39-1.89A1.33,1.33,0,0,1,302.42,97.36Z"/><path class="cls-70" d="M294.2,100.57a1.4,1.4,0,0,1-1.54-1.34,1.5,1.5,0,0,1,.92-1.79,1.32,1.32,0,0,1,1.77.61c.33.62.43,1.2-.61,1.12a3.11,3.11,0,0,0-.61,0c-.22,0-.53-.07-.53.29s.32.43.58.47a.88.88,0,0,0,.46-.14c.28-.13.65-.4.78,0s-.32.51-.61.63A2.31,2.31,0,0,1,294.2,100.57Z"/><path class="cls-73" d="M340.22,99a1.45,1.45,0,0,1-1.53,1.61c-1,0-1.43-.61-1.48-1.54a1.51,1.51,0,1,1,3-.07Z"/><path class="cls-70" d="M290.86,99.43c.18-.58.36-1.16.52-1.73.11-.4.41-.35.67-.29.43.1.13.39.08.56-.21.69-.49,1.36-.69,2a.6.6,0,0,1-.67.52c-.41,0-.54-.2-.65-.55-.26-.84-.57-1.66-.9-2.59C290.79,97.39,290.14,98.87,290.86,99.43Z"/><path class="cls-72" d="M299.3,96.41a4.31,4.31,0,0,1,.72,0c.31,0,.81-.22.85.34s-.43.37-.7.37c-.48,0-.5.28-.5.63,0,.68,0,1.37,0,2,0,.29.13.69-.39.71s-.43-.35-.44-.66,0-.89,0-1.33c0-.64.34-1.56-.93-1.42-.17,0-.27-.13-.28-.31a.33.33,0,0,1,.35-.38h1.33Z"/><path class="cls-67" d="M306,100.56a1.28,1.28,0,0,1-1.42-.93,1.73,1.73,0,0,1,.37-1.91,1.52,1.52,0,0,1,1.7-.22c.32.13.75.43.54.82s-.58,0-.86-.15a.58.58,0,0,0-.85.15,1.15,1.15,0,0,0-.07,1.16.59.59,0,0,0,.79.34c.32-.09.55-.58.95-.22.07.06.05.32,0,.42A1.17,1.17,0,0,1,306,100.56Z"/><path class="cls-74" d="M283.63,98.92c0-1.58,0-1.58,1.54-1.54.21,0,.41,0,.46.25s0,.44-.25.45c-1,.07-.77.81-.85,1.42,0,.37.3,1-.44,1s-.36-.64-.45-1A3,3,0,0,1,283.63,98.92Z"/><path class="cls-75" d="M319.79,98.42V100c0,.3,0,.57-.43.55s-.4-.21-.4-.48c0-1.12,0-2.24,0-3.37,0-.25.06-.47.38-.49s.44.25.44.54Z"/><path class="cls-76" d="M325.11,100.35h.35a2.82,2.82,0,0,1,.84-.11c.12,0,.06.36-.07.52a.81.81,0,0,1-1,.19c-.34-.1-.87-.62-.83.31C323.78,100.29,324.93,100.68,325.11,100.35Z"/><path class="cls-70" d="M304.28,118.37c-1,.42-1.18-.22-1.44-.77-.14-.29-.27-.61-.68-.55s-.25.49-.31.77.13.68-.42.68-.46-.34-.46-.66c0-.65,0-1.3,0-1.94s-.28-1.26.24-1.43a2.77,2.77,0,0,1,2.45.25c.46.32.74,1,.38,1.37C303.3,116.94,303.77,117.6,304.28,118.37Z"/><path class="cls-68" d="M346.35,117.36a4.15,4.15,0,0,0,.45-1.55c.06-.31.23-.51.58-.45s.26.4.19.64c-.17.66-.38,1.31-.52,2-.09.38-.25.54-.65.53s-.44-.27-.53-.53c-.16-.44-.11-1-.52-1.36-.12.5-.24,1-.36,1.43a.52.52,0,0,1-.59.46c-.27,0-.47-.1-.54-.38-.19-.78-.39-1.56-.59-2.33-.06-.21-.11-.4.19-.43s.51-.06.58.27c.13.54.24,1.08.36,1.64.44-.41.33-1,.54-1.46.09-.22.11-.47.45-.47a.52.52,0,0,1,.59.46C346.09,116.32,346.21,116.81,346.35,117.36Z"/><path class="cls-68" d="M320,116.31a1.92,1.92,0,0,1,3.45-1.24c.14.19.31.45.13.64a.47.47,0,0,1-.74-.07c-.39-.54-.86-.77-1.44-.38a1.45,1.45,0,0,0-.43,1.55c.14,1,.9,1.29,1.71.63.26-.21.53-.53.81-.26s0,.66-.27.9a1.85,1.85,0,0,1-2.14.33A2,2,0,0,1,320,116.31Z"/><path class="cls-71" d="M342.81,116.9a1.53,1.53,0,0,1-1.55,1.65c-1,0-1.44-.62-1.53-1.52a1.5,1.5,0,0,1,1.47-1.71A1.52,1.52,0,0,1,342.81,116.9Z"/><path class="cls-72" d="M335.33,115.66c1.48-.6,1.95-.29,2,1.18,0,.32,0,.65,0,1s.11.7-.42.68-.32-.43-.39-.71c-.13-.6.39-1.67-.61-1.66s-.45,1.08-.58,1.68c-.06.29.12.7-.41.69s-.42-.39-.42-.69c0-.89,0-1.78,0-2.67,0-.34-.23-.92.4-.95s.34.56.42.89A2.71,2.71,0,0,1,335.33,115.66Z"/><path class="cls-77" d="M307.59,117.72a1.51,1.51,0,0,1-2.87-.72,1.5,1.5,0,0,1,1-1.62,1.37,1.37,0,0,1,1.62.49,1.12,1.12,0,0,1,.27,1c-.13.41-.54.19-.83.24s-.41,0-.61,0-.52,0-.48.35.29.37.53.4C306.66,118,307,117.4,307.59,117.72Z"/><path class="cls-78" d="M316.59,118.54a1.36,1.36,0,0,1-1.53-1.35,1.49,1.49,0,0,1,1-1.81,1.34,1.34,0,0,1,1.73.71c.5,1.06-.18,1.08-.95,1.06-.29,0-.66-.18-.88.16a.39.39,0,0,0,.08.33.68.68,0,0,0,.86.18c.29-.13.73-.53.87,0s-.41.61-.83.69C316.84,118.53,316.71,118.53,316.59,118.54Z"/><path class="cls-78" d="M309.93,118.54a1.4,1.4,0,0,1-1.62-1.14,1.58,1.58,0,0,1,.77-2,1.36,1.36,0,0,1,1.74.36,1.2,1.2,0,0,1,.3,1.12c-.11.34-.56.15-.86.21s-.81-.21-1.1.2c0,.06,0,.25.1.32a.78.78,0,0,0,1.09,0c.21-.13.52-.22.64,0s-.19.5-.42.62A2.79,2.79,0,0,1,309.93,118.54Z"/><path class="cls-79" d="M313.23,115.32a5.29,5.29,0,0,1,.64.19c.23.1.45.29.34.56s-.4.2-.61.1-.72-.51-.88,0,.43.32.69.43c.43.19,1,.24,1,.87a.93.93,0,0,1-.75,1,1.7,1.7,0,0,1-1.7-.29c-.1-.09-.11-.28-.15-.42.14,0,.3-.16.42-.12s.51.23.78.31a.32.32,0,0,0,.44-.27c0-.19-.1-.29-.26-.34s-.32-.06-.47-.11c-.49-.18-1.06-.34-.94-1S312.45,115.33,313.23,115.32Z"/><path class="cls-80" d="M332.49,118.54a1.37,1.37,0,0,1-1.51-1.2,1.52,1.52,0,0,1,.75-1.85,1.43,1.43,0,0,1,1.77.25c.17.17.36.41.21.63a.42.42,0,0,1-.64,0c-.36-.34-.75-.55-1.1-.07a1.07,1.07,0,0,0,0,1.26c.28.41.65.34,1,0,.22-.2.57-.29.71,0s-.14.51-.38.69A1.42,1.42,0,0,1,332.49,118.54Z"/><path class="cls-68" d="M329.83,118.55a3.12,3.12,0,0,1-.64-.29.81.81,0,0,1-.23-.88c.23-.85-.87-1.67,0-2.54a.57.57,0,0,1,.71-.15c-.33.67,1.31.55.58,1.26a1.12,1.12,0,0,0,0,1.89c.17.16.29.35.17.51S330,118.48,329.83,118.55Z"/><path class="cls-74" d="M324.42,116.84c0-1.61,0-1.6,1.58-1.49.21,0,.39,0,.42.3s0,.37-.19.38c-1.15.08-.84.94-.91,1.61,0,.36.19.89-.49.86s-.37-.51-.41-.82A7.85,7.85,0,0,1,324.42,116.84Z"/><path class="cls-75" d="M338.21,116.24c0-.52,0-1,0-1.58,0-.24,0-.48.36-.5s.42.17.43.44c0,1.17,0,2.35,0,3.52a.34.34,0,0,1-.36.38c-.32,0-.43-.15-.43-.44C338.22,117.45,338.21,116.85,338.21,116.24Z"/><path class="cls-81" d="M327.87,116.93c-.24.5.33,1.49-.41,1.49-.93,0-.37-1-.39-1.55s-.45-1.45.38-1.43S327.63,116.42,327.87,116.93Z"/><path class="cls-82" d="M327.82,114.25c0,.43-.12.6-.41.6a.36.36,0,0,1-.38-.38.41.41,0,0,1,.42-.47C327.63,114,327.83,114.14,327.82,114.25Z"/><path class="cls-52" d="M262.26,116.38c-.05.82-.29,1.54-1.2,1.55s-1.15-.72-1.15-1.43.22-1.52,1.18-1.51S262.17,115.68,262.26,116.38Z"/><path class="cls-38" d="M237.19,96.47c-.06-.42,0-.9.91-.82s1.48.27,1.48,1.18-.72,1-1.5,1.12C236.94,98.07,237.26,97.3,237.19,96.47Z"/><path class="cls-53" d="M260.11,98.16c-.34-.18-.94.28-1-.35s.5-.8,1-.8.94.2.93.73C261.06,98.5,260.4,97.93,260.11,98.16Z"/><path class="cls-54" d="M242.77,98.66c.38,0,.65,0,.61.4a1,1,0,0,1-1,1c-.41,0-.88-.16-.83-.66C241.59,98.54,242.36,98.82,242.77,98.66Z"/><path class="cls-83" d="M281.19,98.71c.31.06.79,0,.81.57s-.36.55-.73.57-.73.07-.74-.48S280.65,98.68,281.19,98.71Z"/><path class="cls-84" d="M281.86,97.6c-.11.46-.45.51-.83.52s-.53-.22-.51-.6.36-.44.69-.42S281.82,97.22,281.86,97.6Z"/><path class="cls-85" d="M325,98.85c.08-.43.22-.81.75-.77s.65.42.63.86-.25.8-.73.77S325,99.27,325,98.85Z"/><path class="cls-86" d="M346.75,98.94c0,.47-.12.86-.65.88s-.68-.4-.69-.81.11-.93.72-.91S346.73,98.55,346.75,98.94Z"/><path class="cls-87" d="M342.93,99c0,.48-.15.89-.68.84s-.63-.52-.61-1,.17-.83.68-.79S342.9,98.63,342.93,99Z"/><path class="cls-88" d="M287.82,99.55a.56.56,0,0,1-.68.37c-.19,0-.41-.15-.33-.4s.44-.3.7-.32S287.88,99.31,287.82,99.55Z"/><path class="cls-89" d="M321.34,99c.09-.43.1-1,.73-.91s.62.46.62.88-.11.92-.71.91S321.43,99.37,321.34,99Z"/><path class="cls-89" d="M317.36,99c0,.44-.14.85-.66.87s-.68-.5-.67-.93.07-.86.63-.86S317.32,98.55,317.36,99Z"/><path class="cls-90" d="M303.05,98.51c-.48.12-.84.24-1.18-.05,0,0,0-.24.1-.29C302.36,97.89,302.69,98,303.05,98.51Z"/><path class="cls-90" d="M294.77,98.51c-.45.13-.81.23-1.15,0a.38.38,0,0,1,.09-.3C294.1,97.9,294.44,98,294.77,98.51Z"/><path class="cls-91" d="M339.41,99c-.08.45-.15.93-.75.89S338,99.42,338,99s.09-.92.68-.94S339.33,98.56,339.41,99Z"/><path class="cls-92" d="M302.39,116.34c-.49.09-.57-.21-.56-.64s0-.64.5-.62.86.11.9.6S302.87,116.34,302.39,116.34Z"/><path class="cls-93" d="M340.63,117c0-.45.05-.93.66-.91s.61.42.61.85-.08.93-.67.92S340.62,117.4,340.63,117Z"/><path class="cls-94" d="M306.87,116.43a1.23,1.23,0,0,1-1.26,0C306,115.8,306.36,115.86,306.87,116.43Z"/><path class="cls-95" d="M317.18,116.48a2,2,0,0,1-1.19,0C316.44,115.89,316.44,115.89,317.18,116.48Z"/><path class="cls-95" d="M310.37,116.49a1.92,1.92,0,0,1-1.18,0C309.65,115.89,309.65,115.89,310.37,116.49Z"/></g><line class="cls-96" x1="157.44" y1="66.45" x2="201.22" y2="66.45"/><line class="cls-97" x1="157.44" y1="66.45" x2="195.18" y2="66.45"/><path class="cls-96" d="M201.22,66.45a30.2,30.2,0,0,0-8.55,4.76l1.72-4.76-1.72-4.75A30.18,30.18,0,0,0,201.22,66.45Z"/></g></g></svg>